%
M48
M72
T01C0.01969
T02C0.02362
T03C0.02756
T04C0.03150
T05C0.03543
T06C0.03600
T07C0.04000
T08C0.04400
T09C0.09000
T10C0.12598
%
T01
X90821Y76303
X90821Y73104
X90821Y69906
X94020Y69906
X94020Y73104
X94020Y76303
X97219Y76303
X97219Y73104
X97219Y69906
X248301Y69906
X248301Y73104
X248301Y76303
X251500Y76303
X251500Y73104
X251500Y69906
X254699Y69906
X254699Y73104
X254699Y76303
X254699Y295668
X251500Y295668
X248301Y295668
X97219Y295668
X94020Y295668
X90821Y295668
X55417Y276530
X59167Y276530
X62917Y276530
X66667Y276530
X70417Y276530
X70417Y272780
X66667Y272780
X62917Y272780
X59167Y272780
X55417Y272780
X55417Y269030
X59167Y269030
X62917Y269030
X66667Y269030
X70417Y269030
X70417Y265280
X66667Y265280
X62917Y265280
X59167Y265280
X55417Y265280
X55417Y261530
X59167Y261530
X62917Y261530
X66667Y261530
X70417Y261530
X67917Y255280
X55417Y254030
X50417Y255280
X46667Y255280
X42917Y255280
X42917Y251530
X46667Y251530
X50417Y251530
X57917Y229655
X55417Y225905
X55417Y221530
X50417Y204030
X46667Y204030
X42917Y204030
X42917Y200280
X46667Y200280
X50417Y200280
X50417Y196530
X46667Y196530
X42917Y196530
X42917Y192780
X46667Y192780
X50417Y192780
X54167Y192780
X54167Y196530
X57917Y196530
X61667Y196530
X65417Y196530
X65417Y192780
X61667Y192780
X57917Y192780
X57917Y189030
X54167Y189030
X50417Y189030
X46667Y189030
X42917Y189030
X42917Y185280
X42917Y181530
X42917Y177780
X42917Y174030
X42917Y170280
X42917Y166530
X46667Y166530
X50417Y166530
X54167Y166530
X57917Y166530
X57917Y170280
X57917Y162780
X54167Y162780
X50417Y162780
X46667Y162780
X42917Y162780
X42917Y159030
X42917Y155280
X42917Y151530
X45417Y137780
X45417Y134030
X45417Y130280
X45417Y126530
X45417Y122780
X45417Y119030
X45417Y115280
X45417Y111530
X45417Y107780
X55417Y97780
X59167Y97780
X62917Y97780
X66667Y97780
X70417Y97780
X74167Y97780
X74167Y101530
X74167Y105280
X77917Y105280
X81667Y105280
X85417Y105280
X85417Y101530
X81667Y101530
X77917Y101530
X77917Y97780
X81667Y97780
X81667Y90280
X77917Y90280
X74167Y90280
X74167Y86530
X77917Y86530
X81667Y86530
X81667Y82780
X77917Y82780
X74167Y82780
X90417Y101530
X90417Y105280
X90417Y109030
X90417Y112780
X94167Y112780
X97917Y112780
X101667Y112780
X105417Y112780
X109167Y112780
X109167Y109030
X105417Y109030
X101667Y109030
X97917Y109030
X94167Y109030
X94167Y105280
X97917Y105280
X101667Y105280
X105417Y105280
X109167Y105280
X112917Y105280
X116667Y105280
X120417Y105280
X124167Y105280
X124167Y109030
X127917Y105280
X131667Y105280
X127917Y101530
X124167Y101530
X120417Y101530
X116667Y101530
X112917Y101530
X109167Y101530
X105417Y101530
X101667Y101530
X97917Y101530
X94167Y101530
X102917Y92780
X112917Y92780
X122917Y92780
X132917Y92780
X142917Y92780
X144167Y97780
X142917Y82780
X132917Y82780
X122917Y82780
X112917Y82780
X102917Y82780
X85417Y114655
X85417Y122155
X94167Y136530
X90417Y139030
X85417Y140280
X81667Y140280
X81667Y144030
X81667Y147780
X77917Y147780
X77917Y144030
X77917Y140280
X87917Y151530
X87917Y155280
X87917Y159030
X92917Y159030
X96667Y159030
X96667Y155280
X92917Y155280
X92917Y151530
X100417Y155280
X100417Y159030
X101667Y162780
X97917Y162780
X94167Y162780
X101667Y171530
X97917Y181530
X92917Y185280
X91667Y192780
X91667Y196530
X91667Y200280
X91667Y204030
X87917Y204030
X87917Y200280
X87917Y196530
X84167Y196530
X84167Y192780
X80417Y192780
X76667Y192780
X72917Y192780
X69167Y192780
X69167Y196530
X67917Y200280
X55417Y201530
X57917Y185280
X69167Y162780
X72917Y162780
X76667Y162780
X80417Y162780
X87917Y192780
X100417Y192780
X100417Y196530
X101667Y205280
X100417Y210280
X101667Y215280
X112917Y217780
X112917Y222780
X116667Y222780
X120417Y224030
X121667Y212780
X126667Y212780
X126667Y207780
X121667Y207780
X112605Y202780
X125417Y187780
X135417Y200280
X142917Y200280
X152917Y207780
X155417Y212780
X162917Y204030
X162917Y199030
X154167Y186530
X150417Y186530
X146667Y186530
X146667Y182780
X150417Y182780
X154167Y182780
X175417Y169030
X184167Y159030
X180417Y154030
X170417Y140280
X174167Y137780
X171667Y134030
X175417Y130280
X177917Y134030
X181667Y130280
X179167Y126530
X182917Y122780
X185417Y126530
X189167Y122780
X186667Y119030
X190417Y115280
X195417Y116530
X198542Y112780
X207917Y102780
X192917Y92780
X189167Y100905
X182917Y92780
X182917Y82780
X172917Y82780
X162917Y82780
X162917Y92780
X152917Y82780
X146667Y115280
X142917Y115280
X159167Y115280
X171667Y119030
X175417Y115280
X164167Y142780
X160417Y146530
X160417Y151530
X120417Y139030
X101667Y134030
X97917Y134030
X107917Y185280
X74167Y212780
X79167Y220280
X73542Y225280
X77917Y227155
X75417Y233405
X74167Y242780
X89167Y246530
X95417Y241530
X106667Y226530
X132917Y221530
X136667Y224030
X140417Y221530
X144167Y224030
X147917Y226530
X157917Y232780
X161667Y249030
X152292Y259030
X148542Y259030
X148542Y262780
X144167Y259030
X139792Y265905
X147917Y272780
X147917Y282780
X137917Y282780
X127917Y282780
X117917Y282780
X117917Y272780
X109167Y269030
X105417Y269030
X85417Y283405
X90821Y289271
X90821Y292469
X94020Y292469
X94020Y289271
X97219Y289271
X97219Y292469
X90417Y269030
X85417Y261530
X62917Y281530
X282917Y282780
X272917Y282780
X262917Y282780
X252917Y282780
X251500Y289271
X248301Y289271
X248301Y292469
X251500Y292469
X254699Y292469
X254699Y289271
X242917Y282780
X232917Y282780
X222917Y282780
X212917Y282780
X210417Y279655
X210417Y275905
X207917Y272780
X212917Y272780
X222917Y272780
X232917Y272780
X242917Y272780
X252917Y272780
X262917Y272780
X272917Y272780
X282917Y272780
X292917Y272780
X291667Y259030
X287917Y259030
X284167Y259030
X280417Y259030
X276667Y259030
X276667Y255280
X276667Y251530
X276667Y247780
X276667Y244030
X276667Y240280
X276667Y236530
X276667Y232780
X276667Y229030
X276667Y225280
X276667Y221530
X276667Y217780
X276667Y214030
X276667Y210280
X276667Y206530
X276667Y202780
X276667Y199030
X276667Y195280
X276667Y191530
X276667Y187780
X276667Y184030
X276667Y180280
X276667Y176530
X284167Y175280
X284167Y178405
X284167Y181530
X284167Y184655
X284167Y187780
X284167Y190905
X284167Y194030
X284167Y197155
X284167Y200280
X286667Y202155
X289792Y202155
X292917Y202155
X296042Y202155
X299167Y202155
X301667Y200280
X301667Y197155
X301667Y194030
X301667Y190905
X301667Y187780
X301667Y184655
X301667Y181530
X301667Y178405
X301667Y175280
X299167Y173405
X296042Y173405
X292917Y173405
X289792Y173405
X286667Y173405
X276667Y159655
X276667Y155905
X276667Y152155
X276667Y148405
X276667Y144655
X276667Y140905
X276667Y137155
X276667Y133405
X276667Y129655
X276667Y125905
X276667Y122155
X276667Y118405
X276667Y114655
X276667Y110905
X276667Y107155
X276667Y103405
X285417Y94655
X290417Y94655
X294167Y94655
X297917Y94655
X292917Y82780
X282917Y82780
X272917Y82780
X262917Y82780
X252917Y82780
X242917Y82780
X232917Y82780
X227917Y82780
X227917Y86530
X227917Y90280
X222917Y82780
X212917Y82780
X202917Y82780
X192917Y82780
X225417Y122780
X227917Y126530
X230417Y130280
X232917Y134030
X230417Y137780
X235417Y141530
X241667Y141530
X241667Y137780
X241667Y134030
X241667Y130280
X245417Y130280
X245417Y134030
X245417Y137780
X245417Y141530
X249167Y141530
X252917Y141530
X252917Y137780
X249167Y137780
X249167Y134030
X252917Y134030
X252917Y130280
X249167Y130280
X250417Y122780
X257917Y121530
X261667Y124030
X264167Y127780
X261667Y131530
X240417Y111530
X244167Y107780
X236042Y121530
X232917Y125280
X225417Y142780
X221667Y146530
X215417Y150280
X217917Y154030
X221667Y157780
X221667Y162467
X216667Y162467
X211667Y162467
X207917Y176530
X212917Y146530
X239167Y151530
X241667Y155280
X241667Y176530
X241667Y180280
X241667Y184030
X245417Y184030
X249167Y184030
X252917Y184030
X256667Y184030
X256667Y180280
X252917Y180280
X249167Y180280
X245417Y180280
X245417Y176530
X249167Y176530
X252917Y176530
X256667Y176530
X266667Y161530
X262917Y159030
X207917Y282780
X197917Y282780
X187917Y282780
X177917Y282780
X167917Y282780
X157917Y282780
X157917Y272780
X167917Y272780
X177917Y272780
X187917Y272780
X197917Y272780
X184167Y254030
X181667Y247780
X176667Y245280
X175417Y249030
X170417Y249030
X179167Y226530
X148542Y249030
X144167Y249030
X140417Y239030
X136667Y239030
X136042Y234655
T02
X136667Y161530
X67396Y210772
X46293Y210772
X46293Y244787
X67396Y244787
T03
X271667Y162155
X174167Y239030
X54167Y234030
T04
X52917Y85280
T05
X202917Y94030
X160417Y126530
X152917Y132780
X121667Y160280
X106667Y166530
X95417Y176530
X114167Y189030
X135417Y186530
X150417Y176530
X150417Y169030
X167917Y169030
X174167Y176530
X152917Y97780
X57917Y146530
X67917Y155280
X62917Y186530
X132917Y264030
T06
X95717Y222858
X87917Y222858
X87917Y232701
X95717Y232701
T07
X287917Y277780
X277917Y277780
X267917Y277780
X257917Y277780
X247917Y277780
X237917Y277780
X227917Y277780
X217917Y277780
X202917Y277780
X192917Y277780
X182917Y277780
X172917Y277780
X162917Y277780
X152917Y277780
X142917Y277780
X132917Y277780
X122917Y277780
X112917Y277780
X109792Y254655
X119792Y254655
X119792Y244655
X119792Y234655
X109792Y234655
X109792Y244655
X287917Y87780
X277917Y87780
X267917Y87780
X257917Y87780
X247917Y87780
X237917Y87780
X217917Y87780
X207917Y87780
X197917Y87780
X187917Y87780
X177917Y87780
X167917Y87780
X157917Y87780
X147917Y87780
X137917Y87780
X127917Y87780
X117917Y87780
X107917Y87780
T08
X57917Y107780
X57917Y117780
X57917Y127780
X57917Y137780
T09
X77217Y204080
X77217Y251480
T10
X330240Y349925
X297917Y217780
X330240Y15280
X92917Y87780
X15280Y15280
X97917Y277780
X15280Y349925
M30
