G75*
%MOIN*%
%OFA0B0*%
%FSLAX25Y25*%
%IPPOS*%
%LPD*%
%AMOC8*
5,1,8,0,0,1.08239X$1,22.5*
%
%ADD10C,0.00000*%
%ADD11C,0.12598*%
%ADD12C,0.01000*%
%ADD13C,0.01969*%
%ADD14OC8,0.07400*%
%ADD15C,0.07400*%
%ADD16C,0.06600*%
%ADD17C,0.13000*%
%ADD18C,0.04331*%
%ADD19C,0.05118*%
%ADD20C,0.07400*%
%ADD21R,0.05118X0.05118*%
%ADD22C,0.03200*%
%ADD23C,0.05000*%
D10*
X0008981Y0015280D02*
X0008983Y0015438D01*
X0008989Y0015596D01*
X0008999Y0015754D01*
X0009013Y0015912D01*
X0009031Y0016069D01*
X0009052Y0016226D01*
X0009078Y0016382D01*
X0009108Y0016538D01*
X0009141Y0016693D01*
X0009179Y0016846D01*
X0009220Y0016999D01*
X0009265Y0017151D01*
X0009314Y0017302D01*
X0009367Y0017451D01*
X0009423Y0017599D01*
X0009483Y0017745D01*
X0009547Y0017890D01*
X0009615Y0018033D01*
X0009686Y0018175D01*
X0009760Y0018315D01*
X0009838Y0018452D01*
X0009920Y0018588D01*
X0010004Y0018722D01*
X0010093Y0018853D01*
X0010184Y0018982D01*
X0010279Y0019109D01*
X0010376Y0019234D01*
X0010477Y0019356D01*
X0010581Y0019475D01*
X0010688Y0019592D01*
X0010798Y0019706D01*
X0010911Y0019817D01*
X0011026Y0019926D01*
X0011144Y0020031D01*
X0011265Y0020133D01*
X0011388Y0020233D01*
X0011514Y0020329D01*
X0011642Y0020422D01*
X0011772Y0020512D01*
X0011905Y0020598D01*
X0012040Y0020682D01*
X0012176Y0020761D01*
X0012315Y0020838D01*
X0012456Y0020910D01*
X0012598Y0020980D01*
X0012742Y0021045D01*
X0012888Y0021107D01*
X0013035Y0021165D01*
X0013184Y0021220D01*
X0013334Y0021271D01*
X0013485Y0021318D01*
X0013637Y0021361D01*
X0013790Y0021400D01*
X0013945Y0021436D01*
X0014100Y0021467D01*
X0014256Y0021495D01*
X0014412Y0021519D01*
X0014569Y0021539D01*
X0014727Y0021555D01*
X0014884Y0021567D01*
X0015043Y0021575D01*
X0015201Y0021579D01*
X0015359Y0021579D01*
X0015517Y0021575D01*
X0015676Y0021567D01*
X0015833Y0021555D01*
X0015991Y0021539D01*
X0016148Y0021519D01*
X0016304Y0021495D01*
X0016460Y0021467D01*
X0016615Y0021436D01*
X0016770Y0021400D01*
X0016923Y0021361D01*
X0017075Y0021318D01*
X0017226Y0021271D01*
X0017376Y0021220D01*
X0017525Y0021165D01*
X0017672Y0021107D01*
X0017818Y0021045D01*
X0017962Y0020980D01*
X0018104Y0020910D01*
X0018245Y0020838D01*
X0018384Y0020761D01*
X0018520Y0020682D01*
X0018655Y0020598D01*
X0018788Y0020512D01*
X0018918Y0020422D01*
X0019046Y0020329D01*
X0019172Y0020233D01*
X0019295Y0020133D01*
X0019416Y0020031D01*
X0019534Y0019926D01*
X0019649Y0019817D01*
X0019762Y0019706D01*
X0019872Y0019592D01*
X0019979Y0019475D01*
X0020083Y0019356D01*
X0020184Y0019234D01*
X0020281Y0019109D01*
X0020376Y0018982D01*
X0020467Y0018853D01*
X0020556Y0018722D01*
X0020640Y0018588D01*
X0020722Y0018452D01*
X0020800Y0018315D01*
X0020874Y0018175D01*
X0020945Y0018033D01*
X0021013Y0017890D01*
X0021077Y0017745D01*
X0021137Y0017599D01*
X0021193Y0017451D01*
X0021246Y0017302D01*
X0021295Y0017151D01*
X0021340Y0016999D01*
X0021381Y0016846D01*
X0021419Y0016693D01*
X0021452Y0016538D01*
X0021482Y0016382D01*
X0021508Y0016226D01*
X0021529Y0016069D01*
X0021547Y0015912D01*
X0021561Y0015754D01*
X0021571Y0015596D01*
X0021577Y0015438D01*
X0021579Y0015280D01*
X0021577Y0015122D01*
X0021571Y0014964D01*
X0021561Y0014806D01*
X0021547Y0014648D01*
X0021529Y0014491D01*
X0021508Y0014334D01*
X0021482Y0014178D01*
X0021452Y0014022D01*
X0021419Y0013867D01*
X0021381Y0013714D01*
X0021340Y0013561D01*
X0021295Y0013409D01*
X0021246Y0013258D01*
X0021193Y0013109D01*
X0021137Y0012961D01*
X0021077Y0012815D01*
X0021013Y0012670D01*
X0020945Y0012527D01*
X0020874Y0012385D01*
X0020800Y0012245D01*
X0020722Y0012108D01*
X0020640Y0011972D01*
X0020556Y0011838D01*
X0020467Y0011707D01*
X0020376Y0011578D01*
X0020281Y0011451D01*
X0020184Y0011326D01*
X0020083Y0011204D01*
X0019979Y0011085D01*
X0019872Y0010968D01*
X0019762Y0010854D01*
X0019649Y0010743D01*
X0019534Y0010634D01*
X0019416Y0010529D01*
X0019295Y0010427D01*
X0019172Y0010327D01*
X0019046Y0010231D01*
X0018918Y0010138D01*
X0018788Y0010048D01*
X0018655Y0009962D01*
X0018520Y0009878D01*
X0018384Y0009799D01*
X0018245Y0009722D01*
X0018104Y0009650D01*
X0017962Y0009580D01*
X0017818Y0009515D01*
X0017672Y0009453D01*
X0017525Y0009395D01*
X0017376Y0009340D01*
X0017226Y0009289D01*
X0017075Y0009242D01*
X0016923Y0009199D01*
X0016770Y0009160D01*
X0016615Y0009124D01*
X0016460Y0009093D01*
X0016304Y0009065D01*
X0016148Y0009041D01*
X0015991Y0009021D01*
X0015833Y0009005D01*
X0015676Y0008993D01*
X0015517Y0008985D01*
X0015359Y0008981D01*
X0015201Y0008981D01*
X0015043Y0008985D01*
X0014884Y0008993D01*
X0014727Y0009005D01*
X0014569Y0009021D01*
X0014412Y0009041D01*
X0014256Y0009065D01*
X0014100Y0009093D01*
X0013945Y0009124D01*
X0013790Y0009160D01*
X0013637Y0009199D01*
X0013485Y0009242D01*
X0013334Y0009289D01*
X0013184Y0009340D01*
X0013035Y0009395D01*
X0012888Y0009453D01*
X0012742Y0009515D01*
X0012598Y0009580D01*
X0012456Y0009650D01*
X0012315Y0009722D01*
X0012176Y0009799D01*
X0012040Y0009878D01*
X0011905Y0009962D01*
X0011772Y0010048D01*
X0011642Y0010138D01*
X0011514Y0010231D01*
X0011388Y0010327D01*
X0011265Y0010427D01*
X0011144Y0010529D01*
X0011026Y0010634D01*
X0010911Y0010743D01*
X0010798Y0010854D01*
X0010688Y0010968D01*
X0010581Y0011085D01*
X0010477Y0011204D01*
X0010376Y0011326D01*
X0010279Y0011451D01*
X0010184Y0011578D01*
X0010093Y0011707D01*
X0010004Y0011838D01*
X0009920Y0011972D01*
X0009838Y0012108D01*
X0009760Y0012245D01*
X0009686Y0012385D01*
X0009615Y0012527D01*
X0009547Y0012670D01*
X0009483Y0012815D01*
X0009423Y0012961D01*
X0009367Y0013109D01*
X0009314Y0013258D01*
X0009265Y0013409D01*
X0009220Y0013561D01*
X0009179Y0013714D01*
X0009141Y0013867D01*
X0009108Y0014022D01*
X0009078Y0014178D01*
X0009052Y0014334D01*
X0009031Y0014491D01*
X0009013Y0014648D01*
X0008999Y0014806D01*
X0008989Y0014964D01*
X0008983Y0015122D01*
X0008981Y0015280D01*
X0055317Y0086530D02*
X0055319Y0086610D01*
X0055325Y0086689D01*
X0055335Y0086768D01*
X0055349Y0086847D01*
X0055366Y0086925D01*
X0055388Y0087002D01*
X0055413Y0087077D01*
X0055443Y0087151D01*
X0055475Y0087224D01*
X0055512Y0087295D01*
X0055552Y0087364D01*
X0055595Y0087431D01*
X0055642Y0087496D01*
X0055691Y0087558D01*
X0055744Y0087618D01*
X0055800Y0087675D01*
X0055858Y0087730D01*
X0055919Y0087781D01*
X0055983Y0087829D01*
X0056049Y0087874D01*
X0056117Y0087916D01*
X0056187Y0087954D01*
X0056259Y0087988D01*
X0056332Y0088019D01*
X0056407Y0088047D01*
X0056484Y0088070D01*
X0056561Y0088090D01*
X0056639Y0088106D01*
X0056718Y0088118D01*
X0056797Y0088126D01*
X0056877Y0088130D01*
X0056957Y0088130D01*
X0057037Y0088126D01*
X0057116Y0088118D01*
X0057195Y0088106D01*
X0057273Y0088090D01*
X0057350Y0088070D01*
X0057427Y0088047D01*
X0057502Y0088019D01*
X0057575Y0087988D01*
X0057647Y0087954D01*
X0057717Y0087916D01*
X0057785Y0087874D01*
X0057851Y0087829D01*
X0057915Y0087781D01*
X0057976Y0087730D01*
X0058034Y0087675D01*
X0058090Y0087618D01*
X0058143Y0087558D01*
X0058192Y0087496D01*
X0058239Y0087431D01*
X0058282Y0087364D01*
X0058322Y0087295D01*
X0058359Y0087224D01*
X0058391Y0087151D01*
X0058421Y0087077D01*
X0058446Y0087002D01*
X0058468Y0086925D01*
X0058485Y0086847D01*
X0058499Y0086768D01*
X0058509Y0086689D01*
X0058515Y0086610D01*
X0058517Y0086530D01*
X0058515Y0086450D01*
X0058509Y0086371D01*
X0058499Y0086292D01*
X0058485Y0086213D01*
X0058468Y0086135D01*
X0058446Y0086058D01*
X0058421Y0085983D01*
X0058391Y0085909D01*
X0058359Y0085836D01*
X0058322Y0085765D01*
X0058282Y0085696D01*
X0058239Y0085629D01*
X0058192Y0085564D01*
X0058143Y0085502D01*
X0058090Y0085442D01*
X0058034Y0085385D01*
X0057976Y0085330D01*
X0057915Y0085279D01*
X0057851Y0085231D01*
X0057785Y0085186D01*
X0057717Y0085144D01*
X0057647Y0085106D01*
X0057575Y0085072D01*
X0057502Y0085041D01*
X0057427Y0085013D01*
X0057350Y0084990D01*
X0057273Y0084970D01*
X0057195Y0084954D01*
X0057116Y0084942D01*
X0057037Y0084934D01*
X0056957Y0084930D01*
X0056877Y0084930D01*
X0056797Y0084934D01*
X0056718Y0084942D01*
X0056639Y0084954D01*
X0056561Y0084970D01*
X0056484Y0084990D01*
X0056407Y0085013D01*
X0056332Y0085041D01*
X0056259Y0085072D01*
X0056187Y0085106D01*
X0056117Y0085144D01*
X0056049Y0085186D01*
X0055983Y0085231D01*
X0055919Y0085279D01*
X0055858Y0085330D01*
X0055800Y0085385D01*
X0055744Y0085442D01*
X0055691Y0085502D01*
X0055642Y0085564D01*
X0055595Y0085629D01*
X0055552Y0085696D01*
X0055512Y0085765D01*
X0055475Y0085836D01*
X0055443Y0085909D01*
X0055413Y0085983D01*
X0055388Y0086058D01*
X0055366Y0086135D01*
X0055349Y0086213D01*
X0055335Y0086292D01*
X0055325Y0086371D01*
X0055319Y0086450D01*
X0055317Y0086530D01*
X0067317Y0086530D02*
X0067319Y0086610D01*
X0067325Y0086689D01*
X0067335Y0086768D01*
X0067349Y0086847D01*
X0067366Y0086925D01*
X0067388Y0087002D01*
X0067413Y0087077D01*
X0067443Y0087151D01*
X0067475Y0087224D01*
X0067512Y0087295D01*
X0067552Y0087364D01*
X0067595Y0087431D01*
X0067642Y0087496D01*
X0067691Y0087558D01*
X0067744Y0087618D01*
X0067800Y0087675D01*
X0067858Y0087730D01*
X0067919Y0087781D01*
X0067983Y0087829D01*
X0068049Y0087874D01*
X0068117Y0087916D01*
X0068187Y0087954D01*
X0068259Y0087988D01*
X0068332Y0088019D01*
X0068407Y0088047D01*
X0068484Y0088070D01*
X0068561Y0088090D01*
X0068639Y0088106D01*
X0068718Y0088118D01*
X0068797Y0088126D01*
X0068877Y0088130D01*
X0068957Y0088130D01*
X0069037Y0088126D01*
X0069116Y0088118D01*
X0069195Y0088106D01*
X0069273Y0088090D01*
X0069350Y0088070D01*
X0069427Y0088047D01*
X0069502Y0088019D01*
X0069575Y0087988D01*
X0069647Y0087954D01*
X0069717Y0087916D01*
X0069785Y0087874D01*
X0069851Y0087829D01*
X0069915Y0087781D01*
X0069976Y0087730D01*
X0070034Y0087675D01*
X0070090Y0087618D01*
X0070143Y0087558D01*
X0070192Y0087496D01*
X0070239Y0087431D01*
X0070282Y0087364D01*
X0070322Y0087295D01*
X0070359Y0087224D01*
X0070391Y0087151D01*
X0070421Y0087077D01*
X0070446Y0087002D01*
X0070468Y0086925D01*
X0070485Y0086847D01*
X0070499Y0086768D01*
X0070509Y0086689D01*
X0070515Y0086610D01*
X0070517Y0086530D01*
X0070515Y0086450D01*
X0070509Y0086371D01*
X0070499Y0086292D01*
X0070485Y0086213D01*
X0070468Y0086135D01*
X0070446Y0086058D01*
X0070421Y0085983D01*
X0070391Y0085909D01*
X0070359Y0085836D01*
X0070322Y0085765D01*
X0070282Y0085696D01*
X0070239Y0085629D01*
X0070192Y0085564D01*
X0070143Y0085502D01*
X0070090Y0085442D01*
X0070034Y0085385D01*
X0069976Y0085330D01*
X0069915Y0085279D01*
X0069851Y0085231D01*
X0069785Y0085186D01*
X0069717Y0085144D01*
X0069647Y0085106D01*
X0069575Y0085072D01*
X0069502Y0085041D01*
X0069427Y0085013D01*
X0069350Y0084990D01*
X0069273Y0084970D01*
X0069195Y0084954D01*
X0069116Y0084942D01*
X0069037Y0084934D01*
X0068957Y0084930D01*
X0068877Y0084930D01*
X0068797Y0084934D01*
X0068718Y0084942D01*
X0068639Y0084954D01*
X0068561Y0084970D01*
X0068484Y0084990D01*
X0068407Y0085013D01*
X0068332Y0085041D01*
X0068259Y0085072D01*
X0068187Y0085106D01*
X0068117Y0085144D01*
X0068049Y0085186D01*
X0067983Y0085231D01*
X0067919Y0085279D01*
X0067858Y0085330D01*
X0067800Y0085385D01*
X0067744Y0085442D01*
X0067691Y0085502D01*
X0067642Y0085564D01*
X0067595Y0085629D01*
X0067552Y0085696D01*
X0067512Y0085765D01*
X0067475Y0085836D01*
X0067443Y0085909D01*
X0067413Y0085983D01*
X0067388Y0086058D01*
X0067366Y0086135D01*
X0067349Y0086213D01*
X0067335Y0086292D01*
X0067325Y0086371D01*
X0067319Y0086450D01*
X0067317Y0086530D01*
X0086618Y0087780D02*
X0086620Y0087938D01*
X0086626Y0088096D01*
X0086636Y0088254D01*
X0086650Y0088412D01*
X0086668Y0088569D01*
X0086689Y0088726D01*
X0086715Y0088882D01*
X0086745Y0089038D01*
X0086778Y0089193D01*
X0086816Y0089346D01*
X0086857Y0089499D01*
X0086902Y0089651D01*
X0086951Y0089802D01*
X0087004Y0089951D01*
X0087060Y0090099D01*
X0087120Y0090245D01*
X0087184Y0090390D01*
X0087252Y0090533D01*
X0087323Y0090675D01*
X0087397Y0090815D01*
X0087475Y0090952D01*
X0087557Y0091088D01*
X0087641Y0091222D01*
X0087730Y0091353D01*
X0087821Y0091482D01*
X0087916Y0091609D01*
X0088013Y0091734D01*
X0088114Y0091856D01*
X0088218Y0091975D01*
X0088325Y0092092D01*
X0088435Y0092206D01*
X0088548Y0092317D01*
X0088663Y0092426D01*
X0088781Y0092531D01*
X0088902Y0092633D01*
X0089025Y0092733D01*
X0089151Y0092829D01*
X0089279Y0092922D01*
X0089409Y0093012D01*
X0089542Y0093098D01*
X0089677Y0093182D01*
X0089813Y0093261D01*
X0089952Y0093338D01*
X0090093Y0093410D01*
X0090235Y0093480D01*
X0090379Y0093545D01*
X0090525Y0093607D01*
X0090672Y0093665D01*
X0090821Y0093720D01*
X0090971Y0093771D01*
X0091122Y0093818D01*
X0091274Y0093861D01*
X0091427Y0093900D01*
X0091582Y0093936D01*
X0091737Y0093967D01*
X0091893Y0093995D01*
X0092049Y0094019D01*
X0092206Y0094039D01*
X0092364Y0094055D01*
X0092521Y0094067D01*
X0092680Y0094075D01*
X0092838Y0094079D01*
X0092996Y0094079D01*
X0093154Y0094075D01*
X0093313Y0094067D01*
X0093470Y0094055D01*
X0093628Y0094039D01*
X0093785Y0094019D01*
X0093941Y0093995D01*
X0094097Y0093967D01*
X0094252Y0093936D01*
X0094407Y0093900D01*
X0094560Y0093861D01*
X0094712Y0093818D01*
X0094863Y0093771D01*
X0095013Y0093720D01*
X0095162Y0093665D01*
X0095309Y0093607D01*
X0095455Y0093545D01*
X0095599Y0093480D01*
X0095741Y0093410D01*
X0095882Y0093338D01*
X0096021Y0093261D01*
X0096157Y0093182D01*
X0096292Y0093098D01*
X0096425Y0093012D01*
X0096555Y0092922D01*
X0096683Y0092829D01*
X0096809Y0092733D01*
X0096932Y0092633D01*
X0097053Y0092531D01*
X0097171Y0092426D01*
X0097286Y0092317D01*
X0097399Y0092206D01*
X0097509Y0092092D01*
X0097616Y0091975D01*
X0097720Y0091856D01*
X0097821Y0091734D01*
X0097918Y0091609D01*
X0098013Y0091482D01*
X0098104Y0091353D01*
X0098193Y0091222D01*
X0098277Y0091088D01*
X0098359Y0090952D01*
X0098437Y0090815D01*
X0098511Y0090675D01*
X0098582Y0090533D01*
X0098650Y0090390D01*
X0098714Y0090245D01*
X0098774Y0090099D01*
X0098830Y0089951D01*
X0098883Y0089802D01*
X0098932Y0089651D01*
X0098977Y0089499D01*
X0099018Y0089346D01*
X0099056Y0089193D01*
X0099089Y0089038D01*
X0099119Y0088882D01*
X0099145Y0088726D01*
X0099166Y0088569D01*
X0099184Y0088412D01*
X0099198Y0088254D01*
X0099208Y0088096D01*
X0099214Y0087938D01*
X0099216Y0087780D01*
X0099214Y0087622D01*
X0099208Y0087464D01*
X0099198Y0087306D01*
X0099184Y0087148D01*
X0099166Y0086991D01*
X0099145Y0086834D01*
X0099119Y0086678D01*
X0099089Y0086522D01*
X0099056Y0086367D01*
X0099018Y0086214D01*
X0098977Y0086061D01*
X0098932Y0085909D01*
X0098883Y0085758D01*
X0098830Y0085609D01*
X0098774Y0085461D01*
X0098714Y0085315D01*
X0098650Y0085170D01*
X0098582Y0085027D01*
X0098511Y0084885D01*
X0098437Y0084745D01*
X0098359Y0084608D01*
X0098277Y0084472D01*
X0098193Y0084338D01*
X0098104Y0084207D01*
X0098013Y0084078D01*
X0097918Y0083951D01*
X0097821Y0083826D01*
X0097720Y0083704D01*
X0097616Y0083585D01*
X0097509Y0083468D01*
X0097399Y0083354D01*
X0097286Y0083243D01*
X0097171Y0083134D01*
X0097053Y0083029D01*
X0096932Y0082927D01*
X0096809Y0082827D01*
X0096683Y0082731D01*
X0096555Y0082638D01*
X0096425Y0082548D01*
X0096292Y0082462D01*
X0096157Y0082378D01*
X0096021Y0082299D01*
X0095882Y0082222D01*
X0095741Y0082150D01*
X0095599Y0082080D01*
X0095455Y0082015D01*
X0095309Y0081953D01*
X0095162Y0081895D01*
X0095013Y0081840D01*
X0094863Y0081789D01*
X0094712Y0081742D01*
X0094560Y0081699D01*
X0094407Y0081660D01*
X0094252Y0081624D01*
X0094097Y0081593D01*
X0093941Y0081565D01*
X0093785Y0081541D01*
X0093628Y0081521D01*
X0093470Y0081505D01*
X0093313Y0081493D01*
X0093154Y0081485D01*
X0092996Y0081481D01*
X0092838Y0081481D01*
X0092680Y0081485D01*
X0092521Y0081493D01*
X0092364Y0081505D01*
X0092206Y0081521D01*
X0092049Y0081541D01*
X0091893Y0081565D01*
X0091737Y0081593D01*
X0091582Y0081624D01*
X0091427Y0081660D01*
X0091274Y0081699D01*
X0091122Y0081742D01*
X0090971Y0081789D01*
X0090821Y0081840D01*
X0090672Y0081895D01*
X0090525Y0081953D01*
X0090379Y0082015D01*
X0090235Y0082080D01*
X0090093Y0082150D01*
X0089952Y0082222D01*
X0089813Y0082299D01*
X0089677Y0082378D01*
X0089542Y0082462D01*
X0089409Y0082548D01*
X0089279Y0082638D01*
X0089151Y0082731D01*
X0089025Y0082827D01*
X0088902Y0082927D01*
X0088781Y0083029D01*
X0088663Y0083134D01*
X0088548Y0083243D01*
X0088435Y0083354D01*
X0088325Y0083468D01*
X0088218Y0083585D01*
X0088114Y0083704D01*
X0088013Y0083826D01*
X0087916Y0083951D01*
X0087821Y0084078D01*
X0087730Y0084207D01*
X0087641Y0084338D01*
X0087557Y0084472D01*
X0087475Y0084608D01*
X0087397Y0084745D01*
X0087323Y0084885D01*
X0087252Y0085027D01*
X0087184Y0085170D01*
X0087120Y0085315D01*
X0087060Y0085461D01*
X0087004Y0085609D01*
X0086951Y0085758D01*
X0086902Y0085909D01*
X0086857Y0086061D01*
X0086816Y0086214D01*
X0086778Y0086367D01*
X0086745Y0086522D01*
X0086715Y0086678D01*
X0086689Y0086834D01*
X0086668Y0086991D01*
X0086650Y0087148D01*
X0086636Y0087306D01*
X0086626Y0087464D01*
X0086620Y0087622D01*
X0086618Y0087780D01*
X0089837Y0076303D02*
X0089839Y0076365D01*
X0089845Y0076428D01*
X0089855Y0076489D01*
X0089869Y0076550D01*
X0089886Y0076610D01*
X0089907Y0076669D01*
X0089933Y0076726D01*
X0089961Y0076781D01*
X0089993Y0076835D01*
X0090029Y0076886D01*
X0090067Y0076936D01*
X0090109Y0076982D01*
X0090153Y0077026D01*
X0090201Y0077067D01*
X0090250Y0077105D01*
X0090302Y0077139D01*
X0090356Y0077170D01*
X0090412Y0077198D01*
X0090470Y0077222D01*
X0090529Y0077243D01*
X0090589Y0077259D01*
X0090650Y0077272D01*
X0090712Y0077281D01*
X0090774Y0077286D01*
X0090837Y0077287D01*
X0090899Y0077284D01*
X0090961Y0077277D01*
X0091023Y0077266D01*
X0091083Y0077251D01*
X0091143Y0077233D01*
X0091201Y0077211D01*
X0091258Y0077185D01*
X0091313Y0077155D01*
X0091366Y0077122D01*
X0091417Y0077086D01*
X0091465Y0077047D01*
X0091511Y0077004D01*
X0091554Y0076959D01*
X0091594Y0076911D01*
X0091631Y0076861D01*
X0091665Y0076808D01*
X0091696Y0076754D01*
X0091722Y0076698D01*
X0091746Y0076640D01*
X0091765Y0076580D01*
X0091781Y0076520D01*
X0091793Y0076458D01*
X0091801Y0076397D01*
X0091805Y0076334D01*
X0091805Y0076272D01*
X0091801Y0076209D01*
X0091793Y0076148D01*
X0091781Y0076086D01*
X0091765Y0076026D01*
X0091746Y0075966D01*
X0091722Y0075908D01*
X0091696Y0075852D01*
X0091665Y0075798D01*
X0091631Y0075745D01*
X0091594Y0075695D01*
X0091554Y0075647D01*
X0091511Y0075602D01*
X0091465Y0075559D01*
X0091417Y0075520D01*
X0091366Y0075484D01*
X0091313Y0075451D01*
X0091258Y0075421D01*
X0091201Y0075395D01*
X0091143Y0075373D01*
X0091083Y0075355D01*
X0091023Y0075340D01*
X0090961Y0075329D01*
X0090899Y0075322D01*
X0090837Y0075319D01*
X0090774Y0075320D01*
X0090712Y0075325D01*
X0090650Y0075334D01*
X0090589Y0075347D01*
X0090529Y0075363D01*
X0090470Y0075384D01*
X0090412Y0075408D01*
X0090356Y0075436D01*
X0090302Y0075467D01*
X0090250Y0075501D01*
X0090201Y0075539D01*
X0090153Y0075580D01*
X0090109Y0075624D01*
X0090067Y0075670D01*
X0090029Y0075720D01*
X0089993Y0075771D01*
X0089961Y0075825D01*
X0089933Y0075880D01*
X0089907Y0075937D01*
X0089886Y0075996D01*
X0089869Y0076056D01*
X0089855Y0076117D01*
X0089845Y0076178D01*
X0089839Y0076241D01*
X0089837Y0076303D01*
X0089837Y0073104D02*
X0089839Y0073166D01*
X0089845Y0073229D01*
X0089855Y0073290D01*
X0089869Y0073351D01*
X0089886Y0073411D01*
X0089907Y0073470D01*
X0089933Y0073527D01*
X0089961Y0073582D01*
X0089993Y0073636D01*
X0090029Y0073687D01*
X0090067Y0073737D01*
X0090109Y0073783D01*
X0090153Y0073827D01*
X0090201Y0073868D01*
X0090250Y0073906D01*
X0090302Y0073940D01*
X0090356Y0073971D01*
X0090412Y0073999D01*
X0090470Y0074023D01*
X0090529Y0074044D01*
X0090589Y0074060D01*
X0090650Y0074073D01*
X0090712Y0074082D01*
X0090774Y0074087D01*
X0090837Y0074088D01*
X0090899Y0074085D01*
X0090961Y0074078D01*
X0091023Y0074067D01*
X0091083Y0074052D01*
X0091143Y0074034D01*
X0091201Y0074012D01*
X0091258Y0073986D01*
X0091313Y0073956D01*
X0091366Y0073923D01*
X0091417Y0073887D01*
X0091465Y0073848D01*
X0091511Y0073805D01*
X0091554Y0073760D01*
X0091594Y0073712D01*
X0091631Y0073662D01*
X0091665Y0073609D01*
X0091696Y0073555D01*
X0091722Y0073499D01*
X0091746Y0073441D01*
X0091765Y0073381D01*
X0091781Y0073321D01*
X0091793Y0073259D01*
X0091801Y0073198D01*
X0091805Y0073135D01*
X0091805Y0073073D01*
X0091801Y0073010D01*
X0091793Y0072949D01*
X0091781Y0072887D01*
X0091765Y0072827D01*
X0091746Y0072767D01*
X0091722Y0072709D01*
X0091696Y0072653D01*
X0091665Y0072599D01*
X0091631Y0072546D01*
X0091594Y0072496D01*
X0091554Y0072448D01*
X0091511Y0072403D01*
X0091465Y0072360D01*
X0091417Y0072321D01*
X0091366Y0072285D01*
X0091313Y0072252D01*
X0091258Y0072222D01*
X0091201Y0072196D01*
X0091143Y0072174D01*
X0091083Y0072156D01*
X0091023Y0072141D01*
X0090961Y0072130D01*
X0090899Y0072123D01*
X0090837Y0072120D01*
X0090774Y0072121D01*
X0090712Y0072126D01*
X0090650Y0072135D01*
X0090589Y0072148D01*
X0090529Y0072164D01*
X0090470Y0072185D01*
X0090412Y0072209D01*
X0090356Y0072237D01*
X0090302Y0072268D01*
X0090250Y0072302D01*
X0090201Y0072340D01*
X0090153Y0072381D01*
X0090109Y0072425D01*
X0090067Y0072471D01*
X0090029Y0072521D01*
X0089993Y0072572D01*
X0089961Y0072626D01*
X0089933Y0072681D01*
X0089907Y0072738D01*
X0089886Y0072797D01*
X0089869Y0072857D01*
X0089855Y0072918D01*
X0089845Y0072979D01*
X0089839Y0073042D01*
X0089837Y0073104D01*
X0089837Y0069906D02*
X0089839Y0069968D01*
X0089845Y0070031D01*
X0089855Y0070092D01*
X0089869Y0070153D01*
X0089886Y0070213D01*
X0089907Y0070272D01*
X0089933Y0070329D01*
X0089961Y0070384D01*
X0089993Y0070438D01*
X0090029Y0070489D01*
X0090067Y0070539D01*
X0090109Y0070585D01*
X0090153Y0070629D01*
X0090201Y0070670D01*
X0090250Y0070708D01*
X0090302Y0070742D01*
X0090356Y0070773D01*
X0090412Y0070801D01*
X0090470Y0070825D01*
X0090529Y0070846D01*
X0090589Y0070862D01*
X0090650Y0070875D01*
X0090712Y0070884D01*
X0090774Y0070889D01*
X0090837Y0070890D01*
X0090899Y0070887D01*
X0090961Y0070880D01*
X0091023Y0070869D01*
X0091083Y0070854D01*
X0091143Y0070836D01*
X0091201Y0070814D01*
X0091258Y0070788D01*
X0091313Y0070758D01*
X0091366Y0070725D01*
X0091417Y0070689D01*
X0091465Y0070650D01*
X0091511Y0070607D01*
X0091554Y0070562D01*
X0091594Y0070514D01*
X0091631Y0070464D01*
X0091665Y0070411D01*
X0091696Y0070357D01*
X0091722Y0070301D01*
X0091746Y0070243D01*
X0091765Y0070183D01*
X0091781Y0070123D01*
X0091793Y0070061D01*
X0091801Y0070000D01*
X0091805Y0069937D01*
X0091805Y0069875D01*
X0091801Y0069812D01*
X0091793Y0069751D01*
X0091781Y0069689D01*
X0091765Y0069629D01*
X0091746Y0069569D01*
X0091722Y0069511D01*
X0091696Y0069455D01*
X0091665Y0069401D01*
X0091631Y0069348D01*
X0091594Y0069298D01*
X0091554Y0069250D01*
X0091511Y0069205D01*
X0091465Y0069162D01*
X0091417Y0069123D01*
X0091366Y0069087D01*
X0091313Y0069054D01*
X0091258Y0069024D01*
X0091201Y0068998D01*
X0091143Y0068976D01*
X0091083Y0068958D01*
X0091023Y0068943D01*
X0090961Y0068932D01*
X0090899Y0068925D01*
X0090837Y0068922D01*
X0090774Y0068923D01*
X0090712Y0068928D01*
X0090650Y0068937D01*
X0090589Y0068950D01*
X0090529Y0068966D01*
X0090470Y0068987D01*
X0090412Y0069011D01*
X0090356Y0069039D01*
X0090302Y0069070D01*
X0090250Y0069104D01*
X0090201Y0069142D01*
X0090153Y0069183D01*
X0090109Y0069227D01*
X0090067Y0069273D01*
X0090029Y0069323D01*
X0089993Y0069374D01*
X0089961Y0069428D01*
X0089933Y0069483D01*
X0089907Y0069540D01*
X0089886Y0069599D01*
X0089869Y0069659D01*
X0089855Y0069720D01*
X0089845Y0069781D01*
X0089839Y0069844D01*
X0089837Y0069906D01*
X0093036Y0069906D02*
X0093038Y0069968D01*
X0093044Y0070031D01*
X0093054Y0070092D01*
X0093068Y0070153D01*
X0093085Y0070213D01*
X0093106Y0070272D01*
X0093132Y0070329D01*
X0093160Y0070384D01*
X0093192Y0070438D01*
X0093228Y0070489D01*
X0093266Y0070539D01*
X0093308Y0070585D01*
X0093352Y0070629D01*
X0093400Y0070670D01*
X0093449Y0070708D01*
X0093501Y0070742D01*
X0093555Y0070773D01*
X0093611Y0070801D01*
X0093669Y0070825D01*
X0093728Y0070846D01*
X0093788Y0070862D01*
X0093849Y0070875D01*
X0093911Y0070884D01*
X0093973Y0070889D01*
X0094036Y0070890D01*
X0094098Y0070887D01*
X0094160Y0070880D01*
X0094222Y0070869D01*
X0094282Y0070854D01*
X0094342Y0070836D01*
X0094400Y0070814D01*
X0094457Y0070788D01*
X0094512Y0070758D01*
X0094565Y0070725D01*
X0094616Y0070689D01*
X0094664Y0070650D01*
X0094710Y0070607D01*
X0094753Y0070562D01*
X0094793Y0070514D01*
X0094830Y0070464D01*
X0094864Y0070411D01*
X0094895Y0070357D01*
X0094921Y0070301D01*
X0094945Y0070243D01*
X0094964Y0070183D01*
X0094980Y0070123D01*
X0094992Y0070061D01*
X0095000Y0070000D01*
X0095004Y0069937D01*
X0095004Y0069875D01*
X0095000Y0069812D01*
X0094992Y0069751D01*
X0094980Y0069689D01*
X0094964Y0069629D01*
X0094945Y0069569D01*
X0094921Y0069511D01*
X0094895Y0069455D01*
X0094864Y0069401D01*
X0094830Y0069348D01*
X0094793Y0069298D01*
X0094753Y0069250D01*
X0094710Y0069205D01*
X0094664Y0069162D01*
X0094616Y0069123D01*
X0094565Y0069087D01*
X0094512Y0069054D01*
X0094457Y0069024D01*
X0094400Y0068998D01*
X0094342Y0068976D01*
X0094282Y0068958D01*
X0094222Y0068943D01*
X0094160Y0068932D01*
X0094098Y0068925D01*
X0094036Y0068922D01*
X0093973Y0068923D01*
X0093911Y0068928D01*
X0093849Y0068937D01*
X0093788Y0068950D01*
X0093728Y0068966D01*
X0093669Y0068987D01*
X0093611Y0069011D01*
X0093555Y0069039D01*
X0093501Y0069070D01*
X0093449Y0069104D01*
X0093400Y0069142D01*
X0093352Y0069183D01*
X0093308Y0069227D01*
X0093266Y0069273D01*
X0093228Y0069323D01*
X0093192Y0069374D01*
X0093160Y0069428D01*
X0093132Y0069483D01*
X0093106Y0069540D01*
X0093085Y0069599D01*
X0093068Y0069659D01*
X0093054Y0069720D01*
X0093044Y0069781D01*
X0093038Y0069844D01*
X0093036Y0069906D01*
X0093036Y0073104D02*
X0093038Y0073166D01*
X0093044Y0073229D01*
X0093054Y0073290D01*
X0093068Y0073351D01*
X0093085Y0073411D01*
X0093106Y0073470D01*
X0093132Y0073527D01*
X0093160Y0073582D01*
X0093192Y0073636D01*
X0093228Y0073687D01*
X0093266Y0073737D01*
X0093308Y0073783D01*
X0093352Y0073827D01*
X0093400Y0073868D01*
X0093449Y0073906D01*
X0093501Y0073940D01*
X0093555Y0073971D01*
X0093611Y0073999D01*
X0093669Y0074023D01*
X0093728Y0074044D01*
X0093788Y0074060D01*
X0093849Y0074073D01*
X0093911Y0074082D01*
X0093973Y0074087D01*
X0094036Y0074088D01*
X0094098Y0074085D01*
X0094160Y0074078D01*
X0094222Y0074067D01*
X0094282Y0074052D01*
X0094342Y0074034D01*
X0094400Y0074012D01*
X0094457Y0073986D01*
X0094512Y0073956D01*
X0094565Y0073923D01*
X0094616Y0073887D01*
X0094664Y0073848D01*
X0094710Y0073805D01*
X0094753Y0073760D01*
X0094793Y0073712D01*
X0094830Y0073662D01*
X0094864Y0073609D01*
X0094895Y0073555D01*
X0094921Y0073499D01*
X0094945Y0073441D01*
X0094964Y0073381D01*
X0094980Y0073321D01*
X0094992Y0073259D01*
X0095000Y0073198D01*
X0095004Y0073135D01*
X0095004Y0073073D01*
X0095000Y0073010D01*
X0094992Y0072949D01*
X0094980Y0072887D01*
X0094964Y0072827D01*
X0094945Y0072767D01*
X0094921Y0072709D01*
X0094895Y0072653D01*
X0094864Y0072599D01*
X0094830Y0072546D01*
X0094793Y0072496D01*
X0094753Y0072448D01*
X0094710Y0072403D01*
X0094664Y0072360D01*
X0094616Y0072321D01*
X0094565Y0072285D01*
X0094512Y0072252D01*
X0094457Y0072222D01*
X0094400Y0072196D01*
X0094342Y0072174D01*
X0094282Y0072156D01*
X0094222Y0072141D01*
X0094160Y0072130D01*
X0094098Y0072123D01*
X0094036Y0072120D01*
X0093973Y0072121D01*
X0093911Y0072126D01*
X0093849Y0072135D01*
X0093788Y0072148D01*
X0093728Y0072164D01*
X0093669Y0072185D01*
X0093611Y0072209D01*
X0093555Y0072237D01*
X0093501Y0072268D01*
X0093449Y0072302D01*
X0093400Y0072340D01*
X0093352Y0072381D01*
X0093308Y0072425D01*
X0093266Y0072471D01*
X0093228Y0072521D01*
X0093192Y0072572D01*
X0093160Y0072626D01*
X0093132Y0072681D01*
X0093106Y0072738D01*
X0093085Y0072797D01*
X0093068Y0072857D01*
X0093054Y0072918D01*
X0093044Y0072979D01*
X0093038Y0073042D01*
X0093036Y0073104D01*
X0093036Y0076303D02*
X0093038Y0076365D01*
X0093044Y0076428D01*
X0093054Y0076489D01*
X0093068Y0076550D01*
X0093085Y0076610D01*
X0093106Y0076669D01*
X0093132Y0076726D01*
X0093160Y0076781D01*
X0093192Y0076835D01*
X0093228Y0076886D01*
X0093266Y0076936D01*
X0093308Y0076982D01*
X0093352Y0077026D01*
X0093400Y0077067D01*
X0093449Y0077105D01*
X0093501Y0077139D01*
X0093555Y0077170D01*
X0093611Y0077198D01*
X0093669Y0077222D01*
X0093728Y0077243D01*
X0093788Y0077259D01*
X0093849Y0077272D01*
X0093911Y0077281D01*
X0093973Y0077286D01*
X0094036Y0077287D01*
X0094098Y0077284D01*
X0094160Y0077277D01*
X0094222Y0077266D01*
X0094282Y0077251D01*
X0094342Y0077233D01*
X0094400Y0077211D01*
X0094457Y0077185D01*
X0094512Y0077155D01*
X0094565Y0077122D01*
X0094616Y0077086D01*
X0094664Y0077047D01*
X0094710Y0077004D01*
X0094753Y0076959D01*
X0094793Y0076911D01*
X0094830Y0076861D01*
X0094864Y0076808D01*
X0094895Y0076754D01*
X0094921Y0076698D01*
X0094945Y0076640D01*
X0094964Y0076580D01*
X0094980Y0076520D01*
X0094992Y0076458D01*
X0095000Y0076397D01*
X0095004Y0076334D01*
X0095004Y0076272D01*
X0095000Y0076209D01*
X0094992Y0076148D01*
X0094980Y0076086D01*
X0094964Y0076026D01*
X0094945Y0075966D01*
X0094921Y0075908D01*
X0094895Y0075852D01*
X0094864Y0075798D01*
X0094830Y0075745D01*
X0094793Y0075695D01*
X0094753Y0075647D01*
X0094710Y0075602D01*
X0094664Y0075559D01*
X0094616Y0075520D01*
X0094565Y0075484D01*
X0094512Y0075451D01*
X0094457Y0075421D01*
X0094400Y0075395D01*
X0094342Y0075373D01*
X0094282Y0075355D01*
X0094222Y0075340D01*
X0094160Y0075329D01*
X0094098Y0075322D01*
X0094036Y0075319D01*
X0093973Y0075320D01*
X0093911Y0075325D01*
X0093849Y0075334D01*
X0093788Y0075347D01*
X0093728Y0075363D01*
X0093669Y0075384D01*
X0093611Y0075408D01*
X0093555Y0075436D01*
X0093501Y0075467D01*
X0093449Y0075501D01*
X0093400Y0075539D01*
X0093352Y0075580D01*
X0093308Y0075624D01*
X0093266Y0075670D01*
X0093228Y0075720D01*
X0093192Y0075771D01*
X0093160Y0075825D01*
X0093132Y0075880D01*
X0093106Y0075937D01*
X0093085Y0075996D01*
X0093068Y0076056D01*
X0093054Y0076117D01*
X0093044Y0076178D01*
X0093038Y0076241D01*
X0093036Y0076303D01*
X0096235Y0076303D02*
X0096237Y0076365D01*
X0096243Y0076428D01*
X0096253Y0076489D01*
X0096267Y0076550D01*
X0096284Y0076610D01*
X0096305Y0076669D01*
X0096331Y0076726D01*
X0096359Y0076781D01*
X0096391Y0076835D01*
X0096427Y0076886D01*
X0096465Y0076936D01*
X0096507Y0076982D01*
X0096551Y0077026D01*
X0096599Y0077067D01*
X0096648Y0077105D01*
X0096700Y0077139D01*
X0096754Y0077170D01*
X0096810Y0077198D01*
X0096868Y0077222D01*
X0096927Y0077243D01*
X0096987Y0077259D01*
X0097048Y0077272D01*
X0097110Y0077281D01*
X0097172Y0077286D01*
X0097235Y0077287D01*
X0097297Y0077284D01*
X0097359Y0077277D01*
X0097421Y0077266D01*
X0097481Y0077251D01*
X0097541Y0077233D01*
X0097599Y0077211D01*
X0097656Y0077185D01*
X0097711Y0077155D01*
X0097764Y0077122D01*
X0097815Y0077086D01*
X0097863Y0077047D01*
X0097909Y0077004D01*
X0097952Y0076959D01*
X0097992Y0076911D01*
X0098029Y0076861D01*
X0098063Y0076808D01*
X0098094Y0076754D01*
X0098120Y0076698D01*
X0098144Y0076640D01*
X0098163Y0076580D01*
X0098179Y0076520D01*
X0098191Y0076458D01*
X0098199Y0076397D01*
X0098203Y0076334D01*
X0098203Y0076272D01*
X0098199Y0076209D01*
X0098191Y0076148D01*
X0098179Y0076086D01*
X0098163Y0076026D01*
X0098144Y0075966D01*
X0098120Y0075908D01*
X0098094Y0075852D01*
X0098063Y0075798D01*
X0098029Y0075745D01*
X0097992Y0075695D01*
X0097952Y0075647D01*
X0097909Y0075602D01*
X0097863Y0075559D01*
X0097815Y0075520D01*
X0097764Y0075484D01*
X0097711Y0075451D01*
X0097656Y0075421D01*
X0097599Y0075395D01*
X0097541Y0075373D01*
X0097481Y0075355D01*
X0097421Y0075340D01*
X0097359Y0075329D01*
X0097297Y0075322D01*
X0097235Y0075319D01*
X0097172Y0075320D01*
X0097110Y0075325D01*
X0097048Y0075334D01*
X0096987Y0075347D01*
X0096927Y0075363D01*
X0096868Y0075384D01*
X0096810Y0075408D01*
X0096754Y0075436D01*
X0096700Y0075467D01*
X0096648Y0075501D01*
X0096599Y0075539D01*
X0096551Y0075580D01*
X0096507Y0075624D01*
X0096465Y0075670D01*
X0096427Y0075720D01*
X0096391Y0075771D01*
X0096359Y0075825D01*
X0096331Y0075880D01*
X0096305Y0075937D01*
X0096284Y0075996D01*
X0096267Y0076056D01*
X0096253Y0076117D01*
X0096243Y0076178D01*
X0096237Y0076241D01*
X0096235Y0076303D01*
X0096235Y0073104D02*
X0096237Y0073166D01*
X0096243Y0073229D01*
X0096253Y0073290D01*
X0096267Y0073351D01*
X0096284Y0073411D01*
X0096305Y0073470D01*
X0096331Y0073527D01*
X0096359Y0073582D01*
X0096391Y0073636D01*
X0096427Y0073687D01*
X0096465Y0073737D01*
X0096507Y0073783D01*
X0096551Y0073827D01*
X0096599Y0073868D01*
X0096648Y0073906D01*
X0096700Y0073940D01*
X0096754Y0073971D01*
X0096810Y0073999D01*
X0096868Y0074023D01*
X0096927Y0074044D01*
X0096987Y0074060D01*
X0097048Y0074073D01*
X0097110Y0074082D01*
X0097172Y0074087D01*
X0097235Y0074088D01*
X0097297Y0074085D01*
X0097359Y0074078D01*
X0097421Y0074067D01*
X0097481Y0074052D01*
X0097541Y0074034D01*
X0097599Y0074012D01*
X0097656Y0073986D01*
X0097711Y0073956D01*
X0097764Y0073923D01*
X0097815Y0073887D01*
X0097863Y0073848D01*
X0097909Y0073805D01*
X0097952Y0073760D01*
X0097992Y0073712D01*
X0098029Y0073662D01*
X0098063Y0073609D01*
X0098094Y0073555D01*
X0098120Y0073499D01*
X0098144Y0073441D01*
X0098163Y0073381D01*
X0098179Y0073321D01*
X0098191Y0073259D01*
X0098199Y0073198D01*
X0098203Y0073135D01*
X0098203Y0073073D01*
X0098199Y0073010D01*
X0098191Y0072949D01*
X0098179Y0072887D01*
X0098163Y0072827D01*
X0098144Y0072767D01*
X0098120Y0072709D01*
X0098094Y0072653D01*
X0098063Y0072599D01*
X0098029Y0072546D01*
X0097992Y0072496D01*
X0097952Y0072448D01*
X0097909Y0072403D01*
X0097863Y0072360D01*
X0097815Y0072321D01*
X0097764Y0072285D01*
X0097711Y0072252D01*
X0097656Y0072222D01*
X0097599Y0072196D01*
X0097541Y0072174D01*
X0097481Y0072156D01*
X0097421Y0072141D01*
X0097359Y0072130D01*
X0097297Y0072123D01*
X0097235Y0072120D01*
X0097172Y0072121D01*
X0097110Y0072126D01*
X0097048Y0072135D01*
X0096987Y0072148D01*
X0096927Y0072164D01*
X0096868Y0072185D01*
X0096810Y0072209D01*
X0096754Y0072237D01*
X0096700Y0072268D01*
X0096648Y0072302D01*
X0096599Y0072340D01*
X0096551Y0072381D01*
X0096507Y0072425D01*
X0096465Y0072471D01*
X0096427Y0072521D01*
X0096391Y0072572D01*
X0096359Y0072626D01*
X0096331Y0072681D01*
X0096305Y0072738D01*
X0096284Y0072797D01*
X0096267Y0072857D01*
X0096253Y0072918D01*
X0096243Y0072979D01*
X0096237Y0073042D01*
X0096235Y0073104D01*
X0096235Y0069906D02*
X0096237Y0069968D01*
X0096243Y0070031D01*
X0096253Y0070092D01*
X0096267Y0070153D01*
X0096284Y0070213D01*
X0096305Y0070272D01*
X0096331Y0070329D01*
X0096359Y0070384D01*
X0096391Y0070438D01*
X0096427Y0070489D01*
X0096465Y0070539D01*
X0096507Y0070585D01*
X0096551Y0070629D01*
X0096599Y0070670D01*
X0096648Y0070708D01*
X0096700Y0070742D01*
X0096754Y0070773D01*
X0096810Y0070801D01*
X0096868Y0070825D01*
X0096927Y0070846D01*
X0096987Y0070862D01*
X0097048Y0070875D01*
X0097110Y0070884D01*
X0097172Y0070889D01*
X0097235Y0070890D01*
X0097297Y0070887D01*
X0097359Y0070880D01*
X0097421Y0070869D01*
X0097481Y0070854D01*
X0097541Y0070836D01*
X0097599Y0070814D01*
X0097656Y0070788D01*
X0097711Y0070758D01*
X0097764Y0070725D01*
X0097815Y0070689D01*
X0097863Y0070650D01*
X0097909Y0070607D01*
X0097952Y0070562D01*
X0097992Y0070514D01*
X0098029Y0070464D01*
X0098063Y0070411D01*
X0098094Y0070357D01*
X0098120Y0070301D01*
X0098144Y0070243D01*
X0098163Y0070183D01*
X0098179Y0070123D01*
X0098191Y0070061D01*
X0098199Y0070000D01*
X0098203Y0069937D01*
X0098203Y0069875D01*
X0098199Y0069812D01*
X0098191Y0069751D01*
X0098179Y0069689D01*
X0098163Y0069629D01*
X0098144Y0069569D01*
X0098120Y0069511D01*
X0098094Y0069455D01*
X0098063Y0069401D01*
X0098029Y0069348D01*
X0097992Y0069298D01*
X0097952Y0069250D01*
X0097909Y0069205D01*
X0097863Y0069162D01*
X0097815Y0069123D01*
X0097764Y0069087D01*
X0097711Y0069054D01*
X0097656Y0069024D01*
X0097599Y0068998D01*
X0097541Y0068976D01*
X0097481Y0068958D01*
X0097421Y0068943D01*
X0097359Y0068932D01*
X0097297Y0068925D01*
X0097235Y0068922D01*
X0097172Y0068923D01*
X0097110Y0068928D01*
X0097048Y0068937D01*
X0096987Y0068950D01*
X0096927Y0068966D01*
X0096868Y0068987D01*
X0096810Y0069011D01*
X0096754Y0069039D01*
X0096700Y0069070D01*
X0096648Y0069104D01*
X0096599Y0069142D01*
X0096551Y0069183D01*
X0096507Y0069227D01*
X0096465Y0069273D01*
X0096427Y0069323D01*
X0096391Y0069374D01*
X0096359Y0069428D01*
X0096331Y0069483D01*
X0096305Y0069540D01*
X0096284Y0069599D01*
X0096267Y0069659D01*
X0096253Y0069720D01*
X0096243Y0069781D01*
X0096237Y0069844D01*
X0096235Y0069906D01*
X0247317Y0069906D02*
X0247319Y0069968D01*
X0247325Y0070031D01*
X0247335Y0070092D01*
X0247349Y0070153D01*
X0247366Y0070213D01*
X0247387Y0070272D01*
X0247413Y0070329D01*
X0247441Y0070384D01*
X0247473Y0070438D01*
X0247509Y0070489D01*
X0247547Y0070539D01*
X0247589Y0070585D01*
X0247633Y0070629D01*
X0247681Y0070670D01*
X0247730Y0070708D01*
X0247782Y0070742D01*
X0247836Y0070773D01*
X0247892Y0070801D01*
X0247950Y0070825D01*
X0248009Y0070846D01*
X0248069Y0070862D01*
X0248130Y0070875D01*
X0248192Y0070884D01*
X0248254Y0070889D01*
X0248317Y0070890D01*
X0248379Y0070887D01*
X0248441Y0070880D01*
X0248503Y0070869D01*
X0248563Y0070854D01*
X0248623Y0070836D01*
X0248681Y0070814D01*
X0248738Y0070788D01*
X0248793Y0070758D01*
X0248846Y0070725D01*
X0248897Y0070689D01*
X0248945Y0070650D01*
X0248991Y0070607D01*
X0249034Y0070562D01*
X0249074Y0070514D01*
X0249111Y0070464D01*
X0249145Y0070411D01*
X0249176Y0070357D01*
X0249202Y0070301D01*
X0249226Y0070243D01*
X0249245Y0070183D01*
X0249261Y0070123D01*
X0249273Y0070061D01*
X0249281Y0070000D01*
X0249285Y0069937D01*
X0249285Y0069875D01*
X0249281Y0069812D01*
X0249273Y0069751D01*
X0249261Y0069689D01*
X0249245Y0069629D01*
X0249226Y0069569D01*
X0249202Y0069511D01*
X0249176Y0069455D01*
X0249145Y0069401D01*
X0249111Y0069348D01*
X0249074Y0069298D01*
X0249034Y0069250D01*
X0248991Y0069205D01*
X0248945Y0069162D01*
X0248897Y0069123D01*
X0248846Y0069087D01*
X0248793Y0069054D01*
X0248738Y0069024D01*
X0248681Y0068998D01*
X0248623Y0068976D01*
X0248563Y0068958D01*
X0248503Y0068943D01*
X0248441Y0068932D01*
X0248379Y0068925D01*
X0248317Y0068922D01*
X0248254Y0068923D01*
X0248192Y0068928D01*
X0248130Y0068937D01*
X0248069Y0068950D01*
X0248009Y0068966D01*
X0247950Y0068987D01*
X0247892Y0069011D01*
X0247836Y0069039D01*
X0247782Y0069070D01*
X0247730Y0069104D01*
X0247681Y0069142D01*
X0247633Y0069183D01*
X0247589Y0069227D01*
X0247547Y0069273D01*
X0247509Y0069323D01*
X0247473Y0069374D01*
X0247441Y0069428D01*
X0247413Y0069483D01*
X0247387Y0069540D01*
X0247366Y0069599D01*
X0247349Y0069659D01*
X0247335Y0069720D01*
X0247325Y0069781D01*
X0247319Y0069844D01*
X0247317Y0069906D01*
X0247317Y0073104D02*
X0247319Y0073166D01*
X0247325Y0073229D01*
X0247335Y0073290D01*
X0247349Y0073351D01*
X0247366Y0073411D01*
X0247387Y0073470D01*
X0247413Y0073527D01*
X0247441Y0073582D01*
X0247473Y0073636D01*
X0247509Y0073687D01*
X0247547Y0073737D01*
X0247589Y0073783D01*
X0247633Y0073827D01*
X0247681Y0073868D01*
X0247730Y0073906D01*
X0247782Y0073940D01*
X0247836Y0073971D01*
X0247892Y0073999D01*
X0247950Y0074023D01*
X0248009Y0074044D01*
X0248069Y0074060D01*
X0248130Y0074073D01*
X0248192Y0074082D01*
X0248254Y0074087D01*
X0248317Y0074088D01*
X0248379Y0074085D01*
X0248441Y0074078D01*
X0248503Y0074067D01*
X0248563Y0074052D01*
X0248623Y0074034D01*
X0248681Y0074012D01*
X0248738Y0073986D01*
X0248793Y0073956D01*
X0248846Y0073923D01*
X0248897Y0073887D01*
X0248945Y0073848D01*
X0248991Y0073805D01*
X0249034Y0073760D01*
X0249074Y0073712D01*
X0249111Y0073662D01*
X0249145Y0073609D01*
X0249176Y0073555D01*
X0249202Y0073499D01*
X0249226Y0073441D01*
X0249245Y0073381D01*
X0249261Y0073321D01*
X0249273Y0073259D01*
X0249281Y0073198D01*
X0249285Y0073135D01*
X0249285Y0073073D01*
X0249281Y0073010D01*
X0249273Y0072949D01*
X0249261Y0072887D01*
X0249245Y0072827D01*
X0249226Y0072767D01*
X0249202Y0072709D01*
X0249176Y0072653D01*
X0249145Y0072599D01*
X0249111Y0072546D01*
X0249074Y0072496D01*
X0249034Y0072448D01*
X0248991Y0072403D01*
X0248945Y0072360D01*
X0248897Y0072321D01*
X0248846Y0072285D01*
X0248793Y0072252D01*
X0248738Y0072222D01*
X0248681Y0072196D01*
X0248623Y0072174D01*
X0248563Y0072156D01*
X0248503Y0072141D01*
X0248441Y0072130D01*
X0248379Y0072123D01*
X0248317Y0072120D01*
X0248254Y0072121D01*
X0248192Y0072126D01*
X0248130Y0072135D01*
X0248069Y0072148D01*
X0248009Y0072164D01*
X0247950Y0072185D01*
X0247892Y0072209D01*
X0247836Y0072237D01*
X0247782Y0072268D01*
X0247730Y0072302D01*
X0247681Y0072340D01*
X0247633Y0072381D01*
X0247589Y0072425D01*
X0247547Y0072471D01*
X0247509Y0072521D01*
X0247473Y0072572D01*
X0247441Y0072626D01*
X0247413Y0072681D01*
X0247387Y0072738D01*
X0247366Y0072797D01*
X0247349Y0072857D01*
X0247335Y0072918D01*
X0247325Y0072979D01*
X0247319Y0073042D01*
X0247317Y0073104D01*
X0247317Y0076303D02*
X0247319Y0076365D01*
X0247325Y0076428D01*
X0247335Y0076489D01*
X0247349Y0076550D01*
X0247366Y0076610D01*
X0247387Y0076669D01*
X0247413Y0076726D01*
X0247441Y0076781D01*
X0247473Y0076835D01*
X0247509Y0076886D01*
X0247547Y0076936D01*
X0247589Y0076982D01*
X0247633Y0077026D01*
X0247681Y0077067D01*
X0247730Y0077105D01*
X0247782Y0077139D01*
X0247836Y0077170D01*
X0247892Y0077198D01*
X0247950Y0077222D01*
X0248009Y0077243D01*
X0248069Y0077259D01*
X0248130Y0077272D01*
X0248192Y0077281D01*
X0248254Y0077286D01*
X0248317Y0077287D01*
X0248379Y0077284D01*
X0248441Y0077277D01*
X0248503Y0077266D01*
X0248563Y0077251D01*
X0248623Y0077233D01*
X0248681Y0077211D01*
X0248738Y0077185D01*
X0248793Y0077155D01*
X0248846Y0077122D01*
X0248897Y0077086D01*
X0248945Y0077047D01*
X0248991Y0077004D01*
X0249034Y0076959D01*
X0249074Y0076911D01*
X0249111Y0076861D01*
X0249145Y0076808D01*
X0249176Y0076754D01*
X0249202Y0076698D01*
X0249226Y0076640D01*
X0249245Y0076580D01*
X0249261Y0076520D01*
X0249273Y0076458D01*
X0249281Y0076397D01*
X0249285Y0076334D01*
X0249285Y0076272D01*
X0249281Y0076209D01*
X0249273Y0076148D01*
X0249261Y0076086D01*
X0249245Y0076026D01*
X0249226Y0075966D01*
X0249202Y0075908D01*
X0249176Y0075852D01*
X0249145Y0075798D01*
X0249111Y0075745D01*
X0249074Y0075695D01*
X0249034Y0075647D01*
X0248991Y0075602D01*
X0248945Y0075559D01*
X0248897Y0075520D01*
X0248846Y0075484D01*
X0248793Y0075451D01*
X0248738Y0075421D01*
X0248681Y0075395D01*
X0248623Y0075373D01*
X0248563Y0075355D01*
X0248503Y0075340D01*
X0248441Y0075329D01*
X0248379Y0075322D01*
X0248317Y0075319D01*
X0248254Y0075320D01*
X0248192Y0075325D01*
X0248130Y0075334D01*
X0248069Y0075347D01*
X0248009Y0075363D01*
X0247950Y0075384D01*
X0247892Y0075408D01*
X0247836Y0075436D01*
X0247782Y0075467D01*
X0247730Y0075501D01*
X0247681Y0075539D01*
X0247633Y0075580D01*
X0247589Y0075624D01*
X0247547Y0075670D01*
X0247509Y0075720D01*
X0247473Y0075771D01*
X0247441Y0075825D01*
X0247413Y0075880D01*
X0247387Y0075937D01*
X0247366Y0075996D01*
X0247349Y0076056D01*
X0247335Y0076117D01*
X0247325Y0076178D01*
X0247319Y0076241D01*
X0247317Y0076303D01*
X0250516Y0076303D02*
X0250518Y0076365D01*
X0250524Y0076428D01*
X0250534Y0076489D01*
X0250548Y0076550D01*
X0250565Y0076610D01*
X0250586Y0076669D01*
X0250612Y0076726D01*
X0250640Y0076781D01*
X0250672Y0076835D01*
X0250708Y0076886D01*
X0250746Y0076936D01*
X0250788Y0076982D01*
X0250832Y0077026D01*
X0250880Y0077067D01*
X0250929Y0077105D01*
X0250981Y0077139D01*
X0251035Y0077170D01*
X0251091Y0077198D01*
X0251149Y0077222D01*
X0251208Y0077243D01*
X0251268Y0077259D01*
X0251329Y0077272D01*
X0251391Y0077281D01*
X0251453Y0077286D01*
X0251516Y0077287D01*
X0251578Y0077284D01*
X0251640Y0077277D01*
X0251702Y0077266D01*
X0251762Y0077251D01*
X0251822Y0077233D01*
X0251880Y0077211D01*
X0251937Y0077185D01*
X0251992Y0077155D01*
X0252045Y0077122D01*
X0252096Y0077086D01*
X0252144Y0077047D01*
X0252190Y0077004D01*
X0252233Y0076959D01*
X0252273Y0076911D01*
X0252310Y0076861D01*
X0252344Y0076808D01*
X0252375Y0076754D01*
X0252401Y0076698D01*
X0252425Y0076640D01*
X0252444Y0076580D01*
X0252460Y0076520D01*
X0252472Y0076458D01*
X0252480Y0076397D01*
X0252484Y0076334D01*
X0252484Y0076272D01*
X0252480Y0076209D01*
X0252472Y0076148D01*
X0252460Y0076086D01*
X0252444Y0076026D01*
X0252425Y0075966D01*
X0252401Y0075908D01*
X0252375Y0075852D01*
X0252344Y0075798D01*
X0252310Y0075745D01*
X0252273Y0075695D01*
X0252233Y0075647D01*
X0252190Y0075602D01*
X0252144Y0075559D01*
X0252096Y0075520D01*
X0252045Y0075484D01*
X0251992Y0075451D01*
X0251937Y0075421D01*
X0251880Y0075395D01*
X0251822Y0075373D01*
X0251762Y0075355D01*
X0251702Y0075340D01*
X0251640Y0075329D01*
X0251578Y0075322D01*
X0251516Y0075319D01*
X0251453Y0075320D01*
X0251391Y0075325D01*
X0251329Y0075334D01*
X0251268Y0075347D01*
X0251208Y0075363D01*
X0251149Y0075384D01*
X0251091Y0075408D01*
X0251035Y0075436D01*
X0250981Y0075467D01*
X0250929Y0075501D01*
X0250880Y0075539D01*
X0250832Y0075580D01*
X0250788Y0075624D01*
X0250746Y0075670D01*
X0250708Y0075720D01*
X0250672Y0075771D01*
X0250640Y0075825D01*
X0250612Y0075880D01*
X0250586Y0075937D01*
X0250565Y0075996D01*
X0250548Y0076056D01*
X0250534Y0076117D01*
X0250524Y0076178D01*
X0250518Y0076241D01*
X0250516Y0076303D01*
X0250516Y0073104D02*
X0250518Y0073166D01*
X0250524Y0073229D01*
X0250534Y0073290D01*
X0250548Y0073351D01*
X0250565Y0073411D01*
X0250586Y0073470D01*
X0250612Y0073527D01*
X0250640Y0073582D01*
X0250672Y0073636D01*
X0250708Y0073687D01*
X0250746Y0073737D01*
X0250788Y0073783D01*
X0250832Y0073827D01*
X0250880Y0073868D01*
X0250929Y0073906D01*
X0250981Y0073940D01*
X0251035Y0073971D01*
X0251091Y0073999D01*
X0251149Y0074023D01*
X0251208Y0074044D01*
X0251268Y0074060D01*
X0251329Y0074073D01*
X0251391Y0074082D01*
X0251453Y0074087D01*
X0251516Y0074088D01*
X0251578Y0074085D01*
X0251640Y0074078D01*
X0251702Y0074067D01*
X0251762Y0074052D01*
X0251822Y0074034D01*
X0251880Y0074012D01*
X0251937Y0073986D01*
X0251992Y0073956D01*
X0252045Y0073923D01*
X0252096Y0073887D01*
X0252144Y0073848D01*
X0252190Y0073805D01*
X0252233Y0073760D01*
X0252273Y0073712D01*
X0252310Y0073662D01*
X0252344Y0073609D01*
X0252375Y0073555D01*
X0252401Y0073499D01*
X0252425Y0073441D01*
X0252444Y0073381D01*
X0252460Y0073321D01*
X0252472Y0073259D01*
X0252480Y0073198D01*
X0252484Y0073135D01*
X0252484Y0073073D01*
X0252480Y0073010D01*
X0252472Y0072949D01*
X0252460Y0072887D01*
X0252444Y0072827D01*
X0252425Y0072767D01*
X0252401Y0072709D01*
X0252375Y0072653D01*
X0252344Y0072599D01*
X0252310Y0072546D01*
X0252273Y0072496D01*
X0252233Y0072448D01*
X0252190Y0072403D01*
X0252144Y0072360D01*
X0252096Y0072321D01*
X0252045Y0072285D01*
X0251992Y0072252D01*
X0251937Y0072222D01*
X0251880Y0072196D01*
X0251822Y0072174D01*
X0251762Y0072156D01*
X0251702Y0072141D01*
X0251640Y0072130D01*
X0251578Y0072123D01*
X0251516Y0072120D01*
X0251453Y0072121D01*
X0251391Y0072126D01*
X0251329Y0072135D01*
X0251268Y0072148D01*
X0251208Y0072164D01*
X0251149Y0072185D01*
X0251091Y0072209D01*
X0251035Y0072237D01*
X0250981Y0072268D01*
X0250929Y0072302D01*
X0250880Y0072340D01*
X0250832Y0072381D01*
X0250788Y0072425D01*
X0250746Y0072471D01*
X0250708Y0072521D01*
X0250672Y0072572D01*
X0250640Y0072626D01*
X0250612Y0072681D01*
X0250586Y0072738D01*
X0250565Y0072797D01*
X0250548Y0072857D01*
X0250534Y0072918D01*
X0250524Y0072979D01*
X0250518Y0073042D01*
X0250516Y0073104D01*
X0250516Y0069906D02*
X0250518Y0069968D01*
X0250524Y0070031D01*
X0250534Y0070092D01*
X0250548Y0070153D01*
X0250565Y0070213D01*
X0250586Y0070272D01*
X0250612Y0070329D01*
X0250640Y0070384D01*
X0250672Y0070438D01*
X0250708Y0070489D01*
X0250746Y0070539D01*
X0250788Y0070585D01*
X0250832Y0070629D01*
X0250880Y0070670D01*
X0250929Y0070708D01*
X0250981Y0070742D01*
X0251035Y0070773D01*
X0251091Y0070801D01*
X0251149Y0070825D01*
X0251208Y0070846D01*
X0251268Y0070862D01*
X0251329Y0070875D01*
X0251391Y0070884D01*
X0251453Y0070889D01*
X0251516Y0070890D01*
X0251578Y0070887D01*
X0251640Y0070880D01*
X0251702Y0070869D01*
X0251762Y0070854D01*
X0251822Y0070836D01*
X0251880Y0070814D01*
X0251937Y0070788D01*
X0251992Y0070758D01*
X0252045Y0070725D01*
X0252096Y0070689D01*
X0252144Y0070650D01*
X0252190Y0070607D01*
X0252233Y0070562D01*
X0252273Y0070514D01*
X0252310Y0070464D01*
X0252344Y0070411D01*
X0252375Y0070357D01*
X0252401Y0070301D01*
X0252425Y0070243D01*
X0252444Y0070183D01*
X0252460Y0070123D01*
X0252472Y0070061D01*
X0252480Y0070000D01*
X0252484Y0069937D01*
X0252484Y0069875D01*
X0252480Y0069812D01*
X0252472Y0069751D01*
X0252460Y0069689D01*
X0252444Y0069629D01*
X0252425Y0069569D01*
X0252401Y0069511D01*
X0252375Y0069455D01*
X0252344Y0069401D01*
X0252310Y0069348D01*
X0252273Y0069298D01*
X0252233Y0069250D01*
X0252190Y0069205D01*
X0252144Y0069162D01*
X0252096Y0069123D01*
X0252045Y0069087D01*
X0251992Y0069054D01*
X0251937Y0069024D01*
X0251880Y0068998D01*
X0251822Y0068976D01*
X0251762Y0068958D01*
X0251702Y0068943D01*
X0251640Y0068932D01*
X0251578Y0068925D01*
X0251516Y0068922D01*
X0251453Y0068923D01*
X0251391Y0068928D01*
X0251329Y0068937D01*
X0251268Y0068950D01*
X0251208Y0068966D01*
X0251149Y0068987D01*
X0251091Y0069011D01*
X0251035Y0069039D01*
X0250981Y0069070D01*
X0250929Y0069104D01*
X0250880Y0069142D01*
X0250832Y0069183D01*
X0250788Y0069227D01*
X0250746Y0069273D01*
X0250708Y0069323D01*
X0250672Y0069374D01*
X0250640Y0069428D01*
X0250612Y0069483D01*
X0250586Y0069540D01*
X0250565Y0069599D01*
X0250548Y0069659D01*
X0250534Y0069720D01*
X0250524Y0069781D01*
X0250518Y0069844D01*
X0250516Y0069906D01*
X0253715Y0069906D02*
X0253717Y0069968D01*
X0253723Y0070031D01*
X0253733Y0070092D01*
X0253747Y0070153D01*
X0253764Y0070213D01*
X0253785Y0070272D01*
X0253811Y0070329D01*
X0253839Y0070384D01*
X0253871Y0070438D01*
X0253907Y0070489D01*
X0253945Y0070539D01*
X0253987Y0070585D01*
X0254031Y0070629D01*
X0254079Y0070670D01*
X0254128Y0070708D01*
X0254180Y0070742D01*
X0254234Y0070773D01*
X0254290Y0070801D01*
X0254348Y0070825D01*
X0254407Y0070846D01*
X0254467Y0070862D01*
X0254528Y0070875D01*
X0254590Y0070884D01*
X0254652Y0070889D01*
X0254715Y0070890D01*
X0254777Y0070887D01*
X0254839Y0070880D01*
X0254901Y0070869D01*
X0254961Y0070854D01*
X0255021Y0070836D01*
X0255079Y0070814D01*
X0255136Y0070788D01*
X0255191Y0070758D01*
X0255244Y0070725D01*
X0255295Y0070689D01*
X0255343Y0070650D01*
X0255389Y0070607D01*
X0255432Y0070562D01*
X0255472Y0070514D01*
X0255509Y0070464D01*
X0255543Y0070411D01*
X0255574Y0070357D01*
X0255600Y0070301D01*
X0255624Y0070243D01*
X0255643Y0070183D01*
X0255659Y0070123D01*
X0255671Y0070061D01*
X0255679Y0070000D01*
X0255683Y0069937D01*
X0255683Y0069875D01*
X0255679Y0069812D01*
X0255671Y0069751D01*
X0255659Y0069689D01*
X0255643Y0069629D01*
X0255624Y0069569D01*
X0255600Y0069511D01*
X0255574Y0069455D01*
X0255543Y0069401D01*
X0255509Y0069348D01*
X0255472Y0069298D01*
X0255432Y0069250D01*
X0255389Y0069205D01*
X0255343Y0069162D01*
X0255295Y0069123D01*
X0255244Y0069087D01*
X0255191Y0069054D01*
X0255136Y0069024D01*
X0255079Y0068998D01*
X0255021Y0068976D01*
X0254961Y0068958D01*
X0254901Y0068943D01*
X0254839Y0068932D01*
X0254777Y0068925D01*
X0254715Y0068922D01*
X0254652Y0068923D01*
X0254590Y0068928D01*
X0254528Y0068937D01*
X0254467Y0068950D01*
X0254407Y0068966D01*
X0254348Y0068987D01*
X0254290Y0069011D01*
X0254234Y0069039D01*
X0254180Y0069070D01*
X0254128Y0069104D01*
X0254079Y0069142D01*
X0254031Y0069183D01*
X0253987Y0069227D01*
X0253945Y0069273D01*
X0253907Y0069323D01*
X0253871Y0069374D01*
X0253839Y0069428D01*
X0253811Y0069483D01*
X0253785Y0069540D01*
X0253764Y0069599D01*
X0253747Y0069659D01*
X0253733Y0069720D01*
X0253723Y0069781D01*
X0253717Y0069844D01*
X0253715Y0069906D01*
X0253715Y0073104D02*
X0253717Y0073166D01*
X0253723Y0073229D01*
X0253733Y0073290D01*
X0253747Y0073351D01*
X0253764Y0073411D01*
X0253785Y0073470D01*
X0253811Y0073527D01*
X0253839Y0073582D01*
X0253871Y0073636D01*
X0253907Y0073687D01*
X0253945Y0073737D01*
X0253987Y0073783D01*
X0254031Y0073827D01*
X0254079Y0073868D01*
X0254128Y0073906D01*
X0254180Y0073940D01*
X0254234Y0073971D01*
X0254290Y0073999D01*
X0254348Y0074023D01*
X0254407Y0074044D01*
X0254467Y0074060D01*
X0254528Y0074073D01*
X0254590Y0074082D01*
X0254652Y0074087D01*
X0254715Y0074088D01*
X0254777Y0074085D01*
X0254839Y0074078D01*
X0254901Y0074067D01*
X0254961Y0074052D01*
X0255021Y0074034D01*
X0255079Y0074012D01*
X0255136Y0073986D01*
X0255191Y0073956D01*
X0255244Y0073923D01*
X0255295Y0073887D01*
X0255343Y0073848D01*
X0255389Y0073805D01*
X0255432Y0073760D01*
X0255472Y0073712D01*
X0255509Y0073662D01*
X0255543Y0073609D01*
X0255574Y0073555D01*
X0255600Y0073499D01*
X0255624Y0073441D01*
X0255643Y0073381D01*
X0255659Y0073321D01*
X0255671Y0073259D01*
X0255679Y0073198D01*
X0255683Y0073135D01*
X0255683Y0073073D01*
X0255679Y0073010D01*
X0255671Y0072949D01*
X0255659Y0072887D01*
X0255643Y0072827D01*
X0255624Y0072767D01*
X0255600Y0072709D01*
X0255574Y0072653D01*
X0255543Y0072599D01*
X0255509Y0072546D01*
X0255472Y0072496D01*
X0255432Y0072448D01*
X0255389Y0072403D01*
X0255343Y0072360D01*
X0255295Y0072321D01*
X0255244Y0072285D01*
X0255191Y0072252D01*
X0255136Y0072222D01*
X0255079Y0072196D01*
X0255021Y0072174D01*
X0254961Y0072156D01*
X0254901Y0072141D01*
X0254839Y0072130D01*
X0254777Y0072123D01*
X0254715Y0072120D01*
X0254652Y0072121D01*
X0254590Y0072126D01*
X0254528Y0072135D01*
X0254467Y0072148D01*
X0254407Y0072164D01*
X0254348Y0072185D01*
X0254290Y0072209D01*
X0254234Y0072237D01*
X0254180Y0072268D01*
X0254128Y0072302D01*
X0254079Y0072340D01*
X0254031Y0072381D01*
X0253987Y0072425D01*
X0253945Y0072471D01*
X0253907Y0072521D01*
X0253871Y0072572D01*
X0253839Y0072626D01*
X0253811Y0072681D01*
X0253785Y0072738D01*
X0253764Y0072797D01*
X0253747Y0072857D01*
X0253733Y0072918D01*
X0253723Y0072979D01*
X0253717Y0073042D01*
X0253715Y0073104D01*
X0253715Y0076303D02*
X0253717Y0076365D01*
X0253723Y0076428D01*
X0253733Y0076489D01*
X0253747Y0076550D01*
X0253764Y0076610D01*
X0253785Y0076669D01*
X0253811Y0076726D01*
X0253839Y0076781D01*
X0253871Y0076835D01*
X0253907Y0076886D01*
X0253945Y0076936D01*
X0253987Y0076982D01*
X0254031Y0077026D01*
X0254079Y0077067D01*
X0254128Y0077105D01*
X0254180Y0077139D01*
X0254234Y0077170D01*
X0254290Y0077198D01*
X0254348Y0077222D01*
X0254407Y0077243D01*
X0254467Y0077259D01*
X0254528Y0077272D01*
X0254590Y0077281D01*
X0254652Y0077286D01*
X0254715Y0077287D01*
X0254777Y0077284D01*
X0254839Y0077277D01*
X0254901Y0077266D01*
X0254961Y0077251D01*
X0255021Y0077233D01*
X0255079Y0077211D01*
X0255136Y0077185D01*
X0255191Y0077155D01*
X0255244Y0077122D01*
X0255295Y0077086D01*
X0255343Y0077047D01*
X0255389Y0077004D01*
X0255432Y0076959D01*
X0255472Y0076911D01*
X0255509Y0076861D01*
X0255543Y0076808D01*
X0255574Y0076754D01*
X0255600Y0076698D01*
X0255624Y0076640D01*
X0255643Y0076580D01*
X0255659Y0076520D01*
X0255671Y0076458D01*
X0255679Y0076397D01*
X0255683Y0076334D01*
X0255683Y0076272D01*
X0255679Y0076209D01*
X0255671Y0076148D01*
X0255659Y0076086D01*
X0255643Y0076026D01*
X0255624Y0075966D01*
X0255600Y0075908D01*
X0255574Y0075852D01*
X0255543Y0075798D01*
X0255509Y0075745D01*
X0255472Y0075695D01*
X0255432Y0075647D01*
X0255389Y0075602D01*
X0255343Y0075559D01*
X0255295Y0075520D01*
X0255244Y0075484D01*
X0255191Y0075451D01*
X0255136Y0075421D01*
X0255079Y0075395D01*
X0255021Y0075373D01*
X0254961Y0075355D01*
X0254901Y0075340D01*
X0254839Y0075329D01*
X0254777Y0075322D01*
X0254715Y0075319D01*
X0254652Y0075320D01*
X0254590Y0075325D01*
X0254528Y0075334D01*
X0254467Y0075347D01*
X0254407Y0075363D01*
X0254348Y0075384D01*
X0254290Y0075408D01*
X0254234Y0075436D01*
X0254180Y0075467D01*
X0254128Y0075501D01*
X0254079Y0075539D01*
X0254031Y0075580D01*
X0253987Y0075624D01*
X0253945Y0075670D01*
X0253907Y0075720D01*
X0253871Y0075771D01*
X0253839Y0075825D01*
X0253811Y0075880D01*
X0253785Y0075937D01*
X0253764Y0075996D01*
X0253747Y0076056D01*
X0253733Y0076117D01*
X0253723Y0076178D01*
X0253717Y0076241D01*
X0253715Y0076303D01*
X0323941Y0015280D02*
X0323943Y0015438D01*
X0323949Y0015596D01*
X0323959Y0015754D01*
X0323973Y0015912D01*
X0323991Y0016069D01*
X0324012Y0016226D01*
X0324038Y0016382D01*
X0324068Y0016538D01*
X0324101Y0016693D01*
X0324139Y0016846D01*
X0324180Y0016999D01*
X0324225Y0017151D01*
X0324274Y0017302D01*
X0324327Y0017451D01*
X0324383Y0017599D01*
X0324443Y0017745D01*
X0324507Y0017890D01*
X0324575Y0018033D01*
X0324646Y0018175D01*
X0324720Y0018315D01*
X0324798Y0018452D01*
X0324880Y0018588D01*
X0324964Y0018722D01*
X0325053Y0018853D01*
X0325144Y0018982D01*
X0325239Y0019109D01*
X0325336Y0019234D01*
X0325437Y0019356D01*
X0325541Y0019475D01*
X0325648Y0019592D01*
X0325758Y0019706D01*
X0325871Y0019817D01*
X0325986Y0019926D01*
X0326104Y0020031D01*
X0326225Y0020133D01*
X0326348Y0020233D01*
X0326474Y0020329D01*
X0326602Y0020422D01*
X0326732Y0020512D01*
X0326865Y0020598D01*
X0327000Y0020682D01*
X0327136Y0020761D01*
X0327275Y0020838D01*
X0327416Y0020910D01*
X0327558Y0020980D01*
X0327702Y0021045D01*
X0327848Y0021107D01*
X0327995Y0021165D01*
X0328144Y0021220D01*
X0328294Y0021271D01*
X0328445Y0021318D01*
X0328597Y0021361D01*
X0328750Y0021400D01*
X0328905Y0021436D01*
X0329060Y0021467D01*
X0329216Y0021495D01*
X0329372Y0021519D01*
X0329529Y0021539D01*
X0329687Y0021555D01*
X0329844Y0021567D01*
X0330003Y0021575D01*
X0330161Y0021579D01*
X0330319Y0021579D01*
X0330477Y0021575D01*
X0330636Y0021567D01*
X0330793Y0021555D01*
X0330951Y0021539D01*
X0331108Y0021519D01*
X0331264Y0021495D01*
X0331420Y0021467D01*
X0331575Y0021436D01*
X0331730Y0021400D01*
X0331883Y0021361D01*
X0332035Y0021318D01*
X0332186Y0021271D01*
X0332336Y0021220D01*
X0332485Y0021165D01*
X0332632Y0021107D01*
X0332778Y0021045D01*
X0332922Y0020980D01*
X0333064Y0020910D01*
X0333205Y0020838D01*
X0333344Y0020761D01*
X0333480Y0020682D01*
X0333615Y0020598D01*
X0333748Y0020512D01*
X0333878Y0020422D01*
X0334006Y0020329D01*
X0334132Y0020233D01*
X0334255Y0020133D01*
X0334376Y0020031D01*
X0334494Y0019926D01*
X0334609Y0019817D01*
X0334722Y0019706D01*
X0334832Y0019592D01*
X0334939Y0019475D01*
X0335043Y0019356D01*
X0335144Y0019234D01*
X0335241Y0019109D01*
X0335336Y0018982D01*
X0335427Y0018853D01*
X0335516Y0018722D01*
X0335600Y0018588D01*
X0335682Y0018452D01*
X0335760Y0018315D01*
X0335834Y0018175D01*
X0335905Y0018033D01*
X0335973Y0017890D01*
X0336037Y0017745D01*
X0336097Y0017599D01*
X0336153Y0017451D01*
X0336206Y0017302D01*
X0336255Y0017151D01*
X0336300Y0016999D01*
X0336341Y0016846D01*
X0336379Y0016693D01*
X0336412Y0016538D01*
X0336442Y0016382D01*
X0336468Y0016226D01*
X0336489Y0016069D01*
X0336507Y0015912D01*
X0336521Y0015754D01*
X0336531Y0015596D01*
X0336537Y0015438D01*
X0336539Y0015280D01*
X0336537Y0015122D01*
X0336531Y0014964D01*
X0336521Y0014806D01*
X0336507Y0014648D01*
X0336489Y0014491D01*
X0336468Y0014334D01*
X0336442Y0014178D01*
X0336412Y0014022D01*
X0336379Y0013867D01*
X0336341Y0013714D01*
X0336300Y0013561D01*
X0336255Y0013409D01*
X0336206Y0013258D01*
X0336153Y0013109D01*
X0336097Y0012961D01*
X0336037Y0012815D01*
X0335973Y0012670D01*
X0335905Y0012527D01*
X0335834Y0012385D01*
X0335760Y0012245D01*
X0335682Y0012108D01*
X0335600Y0011972D01*
X0335516Y0011838D01*
X0335427Y0011707D01*
X0335336Y0011578D01*
X0335241Y0011451D01*
X0335144Y0011326D01*
X0335043Y0011204D01*
X0334939Y0011085D01*
X0334832Y0010968D01*
X0334722Y0010854D01*
X0334609Y0010743D01*
X0334494Y0010634D01*
X0334376Y0010529D01*
X0334255Y0010427D01*
X0334132Y0010327D01*
X0334006Y0010231D01*
X0333878Y0010138D01*
X0333748Y0010048D01*
X0333615Y0009962D01*
X0333480Y0009878D01*
X0333344Y0009799D01*
X0333205Y0009722D01*
X0333064Y0009650D01*
X0332922Y0009580D01*
X0332778Y0009515D01*
X0332632Y0009453D01*
X0332485Y0009395D01*
X0332336Y0009340D01*
X0332186Y0009289D01*
X0332035Y0009242D01*
X0331883Y0009199D01*
X0331730Y0009160D01*
X0331575Y0009124D01*
X0331420Y0009093D01*
X0331264Y0009065D01*
X0331108Y0009041D01*
X0330951Y0009021D01*
X0330793Y0009005D01*
X0330636Y0008993D01*
X0330477Y0008985D01*
X0330319Y0008981D01*
X0330161Y0008981D01*
X0330003Y0008985D01*
X0329844Y0008993D01*
X0329687Y0009005D01*
X0329529Y0009021D01*
X0329372Y0009041D01*
X0329216Y0009065D01*
X0329060Y0009093D01*
X0328905Y0009124D01*
X0328750Y0009160D01*
X0328597Y0009199D01*
X0328445Y0009242D01*
X0328294Y0009289D01*
X0328144Y0009340D01*
X0327995Y0009395D01*
X0327848Y0009453D01*
X0327702Y0009515D01*
X0327558Y0009580D01*
X0327416Y0009650D01*
X0327275Y0009722D01*
X0327136Y0009799D01*
X0327000Y0009878D01*
X0326865Y0009962D01*
X0326732Y0010048D01*
X0326602Y0010138D01*
X0326474Y0010231D01*
X0326348Y0010327D01*
X0326225Y0010427D01*
X0326104Y0010529D01*
X0325986Y0010634D01*
X0325871Y0010743D01*
X0325758Y0010854D01*
X0325648Y0010968D01*
X0325541Y0011085D01*
X0325437Y0011204D01*
X0325336Y0011326D01*
X0325239Y0011451D01*
X0325144Y0011578D01*
X0325053Y0011707D01*
X0324964Y0011838D01*
X0324880Y0011972D01*
X0324798Y0012108D01*
X0324720Y0012245D01*
X0324646Y0012385D01*
X0324575Y0012527D01*
X0324507Y0012670D01*
X0324443Y0012815D01*
X0324383Y0012961D01*
X0324327Y0013109D01*
X0324274Y0013258D01*
X0324225Y0013409D01*
X0324180Y0013561D01*
X0324139Y0013714D01*
X0324101Y0013867D01*
X0324068Y0014022D01*
X0324038Y0014178D01*
X0324012Y0014334D01*
X0323991Y0014491D01*
X0323973Y0014648D01*
X0323959Y0014806D01*
X0323949Y0014964D01*
X0323943Y0015122D01*
X0323941Y0015280D01*
X0298183Y0173405D02*
X0298185Y0173467D01*
X0298191Y0173530D01*
X0298201Y0173591D01*
X0298215Y0173652D01*
X0298232Y0173712D01*
X0298253Y0173771D01*
X0298279Y0173828D01*
X0298307Y0173883D01*
X0298339Y0173937D01*
X0298375Y0173988D01*
X0298413Y0174038D01*
X0298455Y0174084D01*
X0298499Y0174128D01*
X0298547Y0174169D01*
X0298596Y0174207D01*
X0298648Y0174241D01*
X0298702Y0174272D01*
X0298758Y0174300D01*
X0298816Y0174324D01*
X0298875Y0174345D01*
X0298935Y0174361D01*
X0298996Y0174374D01*
X0299058Y0174383D01*
X0299120Y0174388D01*
X0299183Y0174389D01*
X0299245Y0174386D01*
X0299307Y0174379D01*
X0299369Y0174368D01*
X0299429Y0174353D01*
X0299489Y0174335D01*
X0299547Y0174313D01*
X0299604Y0174287D01*
X0299659Y0174257D01*
X0299712Y0174224D01*
X0299763Y0174188D01*
X0299811Y0174149D01*
X0299857Y0174106D01*
X0299900Y0174061D01*
X0299940Y0174013D01*
X0299977Y0173963D01*
X0300011Y0173910D01*
X0300042Y0173856D01*
X0300068Y0173800D01*
X0300092Y0173742D01*
X0300111Y0173682D01*
X0300127Y0173622D01*
X0300139Y0173560D01*
X0300147Y0173499D01*
X0300151Y0173436D01*
X0300151Y0173374D01*
X0300147Y0173311D01*
X0300139Y0173250D01*
X0300127Y0173188D01*
X0300111Y0173128D01*
X0300092Y0173068D01*
X0300068Y0173010D01*
X0300042Y0172954D01*
X0300011Y0172900D01*
X0299977Y0172847D01*
X0299940Y0172797D01*
X0299900Y0172749D01*
X0299857Y0172704D01*
X0299811Y0172661D01*
X0299763Y0172622D01*
X0299712Y0172586D01*
X0299659Y0172553D01*
X0299604Y0172523D01*
X0299547Y0172497D01*
X0299489Y0172475D01*
X0299429Y0172457D01*
X0299369Y0172442D01*
X0299307Y0172431D01*
X0299245Y0172424D01*
X0299183Y0172421D01*
X0299120Y0172422D01*
X0299058Y0172427D01*
X0298996Y0172436D01*
X0298935Y0172449D01*
X0298875Y0172465D01*
X0298816Y0172486D01*
X0298758Y0172510D01*
X0298702Y0172538D01*
X0298648Y0172569D01*
X0298596Y0172603D01*
X0298547Y0172641D01*
X0298499Y0172682D01*
X0298455Y0172726D01*
X0298413Y0172772D01*
X0298375Y0172822D01*
X0298339Y0172873D01*
X0298307Y0172927D01*
X0298279Y0172982D01*
X0298253Y0173039D01*
X0298232Y0173098D01*
X0298215Y0173158D01*
X0298201Y0173219D01*
X0298191Y0173280D01*
X0298185Y0173343D01*
X0298183Y0173405D01*
X0295058Y0173405D02*
X0295060Y0173467D01*
X0295066Y0173530D01*
X0295076Y0173591D01*
X0295090Y0173652D01*
X0295107Y0173712D01*
X0295128Y0173771D01*
X0295154Y0173828D01*
X0295182Y0173883D01*
X0295214Y0173937D01*
X0295250Y0173988D01*
X0295288Y0174038D01*
X0295330Y0174084D01*
X0295374Y0174128D01*
X0295422Y0174169D01*
X0295471Y0174207D01*
X0295523Y0174241D01*
X0295577Y0174272D01*
X0295633Y0174300D01*
X0295691Y0174324D01*
X0295750Y0174345D01*
X0295810Y0174361D01*
X0295871Y0174374D01*
X0295933Y0174383D01*
X0295995Y0174388D01*
X0296058Y0174389D01*
X0296120Y0174386D01*
X0296182Y0174379D01*
X0296244Y0174368D01*
X0296304Y0174353D01*
X0296364Y0174335D01*
X0296422Y0174313D01*
X0296479Y0174287D01*
X0296534Y0174257D01*
X0296587Y0174224D01*
X0296638Y0174188D01*
X0296686Y0174149D01*
X0296732Y0174106D01*
X0296775Y0174061D01*
X0296815Y0174013D01*
X0296852Y0173963D01*
X0296886Y0173910D01*
X0296917Y0173856D01*
X0296943Y0173800D01*
X0296967Y0173742D01*
X0296986Y0173682D01*
X0297002Y0173622D01*
X0297014Y0173560D01*
X0297022Y0173499D01*
X0297026Y0173436D01*
X0297026Y0173374D01*
X0297022Y0173311D01*
X0297014Y0173250D01*
X0297002Y0173188D01*
X0296986Y0173128D01*
X0296967Y0173068D01*
X0296943Y0173010D01*
X0296917Y0172954D01*
X0296886Y0172900D01*
X0296852Y0172847D01*
X0296815Y0172797D01*
X0296775Y0172749D01*
X0296732Y0172704D01*
X0296686Y0172661D01*
X0296638Y0172622D01*
X0296587Y0172586D01*
X0296534Y0172553D01*
X0296479Y0172523D01*
X0296422Y0172497D01*
X0296364Y0172475D01*
X0296304Y0172457D01*
X0296244Y0172442D01*
X0296182Y0172431D01*
X0296120Y0172424D01*
X0296058Y0172421D01*
X0295995Y0172422D01*
X0295933Y0172427D01*
X0295871Y0172436D01*
X0295810Y0172449D01*
X0295750Y0172465D01*
X0295691Y0172486D01*
X0295633Y0172510D01*
X0295577Y0172538D01*
X0295523Y0172569D01*
X0295471Y0172603D01*
X0295422Y0172641D01*
X0295374Y0172682D01*
X0295330Y0172726D01*
X0295288Y0172772D01*
X0295250Y0172822D01*
X0295214Y0172873D01*
X0295182Y0172927D01*
X0295154Y0172982D01*
X0295128Y0173039D01*
X0295107Y0173098D01*
X0295090Y0173158D01*
X0295076Y0173219D01*
X0295066Y0173280D01*
X0295060Y0173343D01*
X0295058Y0173405D01*
X0291933Y0173405D02*
X0291935Y0173467D01*
X0291941Y0173530D01*
X0291951Y0173591D01*
X0291965Y0173652D01*
X0291982Y0173712D01*
X0292003Y0173771D01*
X0292029Y0173828D01*
X0292057Y0173883D01*
X0292089Y0173937D01*
X0292125Y0173988D01*
X0292163Y0174038D01*
X0292205Y0174084D01*
X0292249Y0174128D01*
X0292297Y0174169D01*
X0292346Y0174207D01*
X0292398Y0174241D01*
X0292452Y0174272D01*
X0292508Y0174300D01*
X0292566Y0174324D01*
X0292625Y0174345D01*
X0292685Y0174361D01*
X0292746Y0174374D01*
X0292808Y0174383D01*
X0292870Y0174388D01*
X0292933Y0174389D01*
X0292995Y0174386D01*
X0293057Y0174379D01*
X0293119Y0174368D01*
X0293179Y0174353D01*
X0293239Y0174335D01*
X0293297Y0174313D01*
X0293354Y0174287D01*
X0293409Y0174257D01*
X0293462Y0174224D01*
X0293513Y0174188D01*
X0293561Y0174149D01*
X0293607Y0174106D01*
X0293650Y0174061D01*
X0293690Y0174013D01*
X0293727Y0173963D01*
X0293761Y0173910D01*
X0293792Y0173856D01*
X0293818Y0173800D01*
X0293842Y0173742D01*
X0293861Y0173682D01*
X0293877Y0173622D01*
X0293889Y0173560D01*
X0293897Y0173499D01*
X0293901Y0173436D01*
X0293901Y0173374D01*
X0293897Y0173311D01*
X0293889Y0173250D01*
X0293877Y0173188D01*
X0293861Y0173128D01*
X0293842Y0173068D01*
X0293818Y0173010D01*
X0293792Y0172954D01*
X0293761Y0172900D01*
X0293727Y0172847D01*
X0293690Y0172797D01*
X0293650Y0172749D01*
X0293607Y0172704D01*
X0293561Y0172661D01*
X0293513Y0172622D01*
X0293462Y0172586D01*
X0293409Y0172553D01*
X0293354Y0172523D01*
X0293297Y0172497D01*
X0293239Y0172475D01*
X0293179Y0172457D01*
X0293119Y0172442D01*
X0293057Y0172431D01*
X0292995Y0172424D01*
X0292933Y0172421D01*
X0292870Y0172422D01*
X0292808Y0172427D01*
X0292746Y0172436D01*
X0292685Y0172449D01*
X0292625Y0172465D01*
X0292566Y0172486D01*
X0292508Y0172510D01*
X0292452Y0172538D01*
X0292398Y0172569D01*
X0292346Y0172603D01*
X0292297Y0172641D01*
X0292249Y0172682D01*
X0292205Y0172726D01*
X0292163Y0172772D01*
X0292125Y0172822D01*
X0292089Y0172873D01*
X0292057Y0172927D01*
X0292029Y0172982D01*
X0292003Y0173039D01*
X0291982Y0173098D01*
X0291965Y0173158D01*
X0291951Y0173219D01*
X0291941Y0173280D01*
X0291935Y0173343D01*
X0291933Y0173405D01*
X0288808Y0173405D02*
X0288810Y0173467D01*
X0288816Y0173530D01*
X0288826Y0173591D01*
X0288840Y0173652D01*
X0288857Y0173712D01*
X0288878Y0173771D01*
X0288904Y0173828D01*
X0288932Y0173883D01*
X0288964Y0173937D01*
X0289000Y0173988D01*
X0289038Y0174038D01*
X0289080Y0174084D01*
X0289124Y0174128D01*
X0289172Y0174169D01*
X0289221Y0174207D01*
X0289273Y0174241D01*
X0289327Y0174272D01*
X0289383Y0174300D01*
X0289441Y0174324D01*
X0289500Y0174345D01*
X0289560Y0174361D01*
X0289621Y0174374D01*
X0289683Y0174383D01*
X0289745Y0174388D01*
X0289808Y0174389D01*
X0289870Y0174386D01*
X0289932Y0174379D01*
X0289994Y0174368D01*
X0290054Y0174353D01*
X0290114Y0174335D01*
X0290172Y0174313D01*
X0290229Y0174287D01*
X0290284Y0174257D01*
X0290337Y0174224D01*
X0290388Y0174188D01*
X0290436Y0174149D01*
X0290482Y0174106D01*
X0290525Y0174061D01*
X0290565Y0174013D01*
X0290602Y0173963D01*
X0290636Y0173910D01*
X0290667Y0173856D01*
X0290693Y0173800D01*
X0290717Y0173742D01*
X0290736Y0173682D01*
X0290752Y0173622D01*
X0290764Y0173560D01*
X0290772Y0173499D01*
X0290776Y0173436D01*
X0290776Y0173374D01*
X0290772Y0173311D01*
X0290764Y0173250D01*
X0290752Y0173188D01*
X0290736Y0173128D01*
X0290717Y0173068D01*
X0290693Y0173010D01*
X0290667Y0172954D01*
X0290636Y0172900D01*
X0290602Y0172847D01*
X0290565Y0172797D01*
X0290525Y0172749D01*
X0290482Y0172704D01*
X0290436Y0172661D01*
X0290388Y0172622D01*
X0290337Y0172586D01*
X0290284Y0172553D01*
X0290229Y0172523D01*
X0290172Y0172497D01*
X0290114Y0172475D01*
X0290054Y0172457D01*
X0289994Y0172442D01*
X0289932Y0172431D01*
X0289870Y0172424D01*
X0289808Y0172421D01*
X0289745Y0172422D01*
X0289683Y0172427D01*
X0289621Y0172436D01*
X0289560Y0172449D01*
X0289500Y0172465D01*
X0289441Y0172486D01*
X0289383Y0172510D01*
X0289327Y0172538D01*
X0289273Y0172569D01*
X0289221Y0172603D01*
X0289172Y0172641D01*
X0289124Y0172682D01*
X0289080Y0172726D01*
X0289038Y0172772D01*
X0289000Y0172822D01*
X0288964Y0172873D01*
X0288932Y0172927D01*
X0288904Y0172982D01*
X0288878Y0173039D01*
X0288857Y0173098D01*
X0288840Y0173158D01*
X0288826Y0173219D01*
X0288816Y0173280D01*
X0288810Y0173343D01*
X0288808Y0173405D01*
X0285683Y0173405D02*
X0285685Y0173467D01*
X0285691Y0173530D01*
X0285701Y0173591D01*
X0285715Y0173652D01*
X0285732Y0173712D01*
X0285753Y0173771D01*
X0285779Y0173828D01*
X0285807Y0173883D01*
X0285839Y0173937D01*
X0285875Y0173988D01*
X0285913Y0174038D01*
X0285955Y0174084D01*
X0285999Y0174128D01*
X0286047Y0174169D01*
X0286096Y0174207D01*
X0286148Y0174241D01*
X0286202Y0174272D01*
X0286258Y0174300D01*
X0286316Y0174324D01*
X0286375Y0174345D01*
X0286435Y0174361D01*
X0286496Y0174374D01*
X0286558Y0174383D01*
X0286620Y0174388D01*
X0286683Y0174389D01*
X0286745Y0174386D01*
X0286807Y0174379D01*
X0286869Y0174368D01*
X0286929Y0174353D01*
X0286989Y0174335D01*
X0287047Y0174313D01*
X0287104Y0174287D01*
X0287159Y0174257D01*
X0287212Y0174224D01*
X0287263Y0174188D01*
X0287311Y0174149D01*
X0287357Y0174106D01*
X0287400Y0174061D01*
X0287440Y0174013D01*
X0287477Y0173963D01*
X0287511Y0173910D01*
X0287542Y0173856D01*
X0287568Y0173800D01*
X0287592Y0173742D01*
X0287611Y0173682D01*
X0287627Y0173622D01*
X0287639Y0173560D01*
X0287647Y0173499D01*
X0287651Y0173436D01*
X0287651Y0173374D01*
X0287647Y0173311D01*
X0287639Y0173250D01*
X0287627Y0173188D01*
X0287611Y0173128D01*
X0287592Y0173068D01*
X0287568Y0173010D01*
X0287542Y0172954D01*
X0287511Y0172900D01*
X0287477Y0172847D01*
X0287440Y0172797D01*
X0287400Y0172749D01*
X0287357Y0172704D01*
X0287311Y0172661D01*
X0287263Y0172622D01*
X0287212Y0172586D01*
X0287159Y0172553D01*
X0287104Y0172523D01*
X0287047Y0172497D01*
X0286989Y0172475D01*
X0286929Y0172457D01*
X0286869Y0172442D01*
X0286807Y0172431D01*
X0286745Y0172424D01*
X0286683Y0172421D01*
X0286620Y0172422D01*
X0286558Y0172427D01*
X0286496Y0172436D01*
X0286435Y0172449D01*
X0286375Y0172465D01*
X0286316Y0172486D01*
X0286258Y0172510D01*
X0286202Y0172538D01*
X0286148Y0172569D01*
X0286096Y0172603D01*
X0286047Y0172641D01*
X0285999Y0172682D01*
X0285955Y0172726D01*
X0285913Y0172772D01*
X0285875Y0172822D01*
X0285839Y0172873D01*
X0285807Y0172927D01*
X0285779Y0172982D01*
X0285753Y0173039D01*
X0285732Y0173098D01*
X0285715Y0173158D01*
X0285701Y0173219D01*
X0285691Y0173280D01*
X0285685Y0173343D01*
X0285683Y0173405D01*
X0300683Y0175280D02*
X0300685Y0175342D01*
X0300691Y0175405D01*
X0300701Y0175466D01*
X0300715Y0175527D01*
X0300732Y0175587D01*
X0300753Y0175646D01*
X0300779Y0175703D01*
X0300807Y0175758D01*
X0300839Y0175812D01*
X0300875Y0175863D01*
X0300913Y0175913D01*
X0300955Y0175959D01*
X0300999Y0176003D01*
X0301047Y0176044D01*
X0301096Y0176082D01*
X0301148Y0176116D01*
X0301202Y0176147D01*
X0301258Y0176175D01*
X0301316Y0176199D01*
X0301375Y0176220D01*
X0301435Y0176236D01*
X0301496Y0176249D01*
X0301558Y0176258D01*
X0301620Y0176263D01*
X0301683Y0176264D01*
X0301745Y0176261D01*
X0301807Y0176254D01*
X0301869Y0176243D01*
X0301929Y0176228D01*
X0301989Y0176210D01*
X0302047Y0176188D01*
X0302104Y0176162D01*
X0302159Y0176132D01*
X0302212Y0176099D01*
X0302263Y0176063D01*
X0302311Y0176024D01*
X0302357Y0175981D01*
X0302400Y0175936D01*
X0302440Y0175888D01*
X0302477Y0175838D01*
X0302511Y0175785D01*
X0302542Y0175731D01*
X0302568Y0175675D01*
X0302592Y0175617D01*
X0302611Y0175557D01*
X0302627Y0175497D01*
X0302639Y0175435D01*
X0302647Y0175374D01*
X0302651Y0175311D01*
X0302651Y0175249D01*
X0302647Y0175186D01*
X0302639Y0175125D01*
X0302627Y0175063D01*
X0302611Y0175003D01*
X0302592Y0174943D01*
X0302568Y0174885D01*
X0302542Y0174829D01*
X0302511Y0174775D01*
X0302477Y0174722D01*
X0302440Y0174672D01*
X0302400Y0174624D01*
X0302357Y0174579D01*
X0302311Y0174536D01*
X0302263Y0174497D01*
X0302212Y0174461D01*
X0302159Y0174428D01*
X0302104Y0174398D01*
X0302047Y0174372D01*
X0301989Y0174350D01*
X0301929Y0174332D01*
X0301869Y0174317D01*
X0301807Y0174306D01*
X0301745Y0174299D01*
X0301683Y0174296D01*
X0301620Y0174297D01*
X0301558Y0174302D01*
X0301496Y0174311D01*
X0301435Y0174324D01*
X0301375Y0174340D01*
X0301316Y0174361D01*
X0301258Y0174385D01*
X0301202Y0174413D01*
X0301148Y0174444D01*
X0301096Y0174478D01*
X0301047Y0174516D01*
X0300999Y0174557D01*
X0300955Y0174601D01*
X0300913Y0174647D01*
X0300875Y0174697D01*
X0300839Y0174748D01*
X0300807Y0174802D01*
X0300779Y0174857D01*
X0300753Y0174914D01*
X0300732Y0174973D01*
X0300715Y0175033D01*
X0300701Y0175094D01*
X0300691Y0175155D01*
X0300685Y0175218D01*
X0300683Y0175280D01*
X0300683Y0178405D02*
X0300685Y0178467D01*
X0300691Y0178530D01*
X0300701Y0178591D01*
X0300715Y0178652D01*
X0300732Y0178712D01*
X0300753Y0178771D01*
X0300779Y0178828D01*
X0300807Y0178883D01*
X0300839Y0178937D01*
X0300875Y0178988D01*
X0300913Y0179038D01*
X0300955Y0179084D01*
X0300999Y0179128D01*
X0301047Y0179169D01*
X0301096Y0179207D01*
X0301148Y0179241D01*
X0301202Y0179272D01*
X0301258Y0179300D01*
X0301316Y0179324D01*
X0301375Y0179345D01*
X0301435Y0179361D01*
X0301496Y0179374D01*
X0301558Y0179383D01*
X0301620Y0179388D01*
X0301683Y0179389D01*
X0301745Y0179386D01*
X0301807Y0179379D01*
X0301869Y0179368D01*
X0301929Y0179353D01*
X0301989Y0179335D01*
X0302047Y0179313D01*
X0302104Y0179287D01*
X0302159Y0179257D01*
X0302212Y0179224D01*
X0302263Y0179188D01*
X0302311Y0179149D01*
X0302357Y0179106D01*
X0302400Y0179061D01*
X0302440Y0179013D01*
X0302477Y0178963D01*
X0302511Y0178910D01*
X0302542Y0178856D01*
X0302568Y0178800D01*
X0302592Y0178742D01*
X0302611Y0178682D01*
X0302627Y0178622D01*
X0302639Y0178560D01*
X0302647Y0178499D01*
X0302651Y0178436D01*
X0302651Y0178374D01*
X0302647Y0178311D01*
X0302639Y0178250D01*
X0302627Y0178188D01*
X0302611Y0178128D01*
X0302592Y0178068D01*
X0302568Y0178010D01*
X0302542Y0177954D01*
X0302511Y0177900D01*
X0302477Y0177847D01*
X0302440Y0177797D01*
X0302400Y0177749D01*
X0302357Y0177704D01*
X0302311Y0177661D01*
X0302263Y0177622D01*
X0302212Y0177586D01*
X0302159Y0177553D01*
X0302104Y0177523D01*
X0302047Y0177497D01*
X0301989Y0177475D01*
X0301929Y0177457D01*
X0301869Y0177442D01*
X0301807Y0177431D01*
X0301745Y0177424D01*
X0301683Y0177421D01*
X0301620Y0177422D01*
X0301558Y0177427D01*
X0301496Y0177436D01*
X0301435Y0177449D01*
X0301375Y0177465D01*
X0301316Y0177486D01*
X0301258Y0177510D01*
X0301202Y0177538D01*
X0301148Y0177569D01*
X0301096Y0177603D01*
X0301047Y0177641D01*
X0300999Y0177682D01*
X0300955Y0177726D01*
X0300913Y0177772D01*
X0300875Y0177822D01*
X0300839Y0177873D01*
X0300807Y0177927D01*
X0300779Y0177982D01*
X0300753Y0178039D01*
X0300732Y0178098D01*
X0300715Y0178158D01*
X0300701Y0178219D01*
X0300691Y0178280D01*
X0300685Y0178343D01*
X0300683Y0178405D01*
X0300683Y0181530D02*
X0300685Y0181592D01*
X0300691Y0181655D01*
X0300701Y0181716D01*
X0300715Y0181777D01*
X0300732Y0181837D01*
X0300753Y0181896D01*
X0300779Y0181953D01*
X0300807Y0182008D01*
X0300839Y0182062D01*
X0300875Y0182113D01*
X0300913Y0182163D01*
X0300955Y0182209D01*
X0300999Y0182253D01*
X0301047Y0182294D01*
X0301096Y0182332D01*
X0301148Y0182366D01*
X0301202Y0182397D01*
X0301258Y0182425D01*
X0301316Y0182449D01*
X0301375Y0182470D01*
X0301435Y0182486D01*
X0301496Y0182499D01*
X0301558Y0182508D01*
X0301620Y0182513D01*
X0301683Y0182514D01*
X0301745Y0182511D01*
X0301807Y0182504D01*
X0301869Y0182493D01*
X0301929Y0182478D01*
X0301989Y0182460D01*
X0302047Y0182438D01*
X0302104Y0182412D01*
X0302159Y0182382D01*
X0302212Y0182349D01*
X0302263Y0182313D01*
X0302311Y0182274D01*
X0302357Y0182231D01*
X0302400Y0182186D01*
X0302440Y0182138D01*
X0302477Y0182088D01*
X0302511Y0182035D01*
X0302542Y0181981D01*
X0302568Y0181925D01*
X0302592Y0181867D01*
X0302611Y0181807D01*
X0302627Y0181747D01*
X0302639Y0181685D01*
X0302647Y0181624D01*
X0302651Y0181561D01*
X0302651Y0181499D01*
X0302647Y0181436D01*
X0302639Y0181375D01*
X0302627Y0181313D01*
X0302611Y0181253D01*
X0302592Y0181193D01*
X0302568Y0181135D01*
X0302542Y0181079D01*
X0302511Y0181025D01*
X0302477Y0180972D01*
X0302440Y0180922D01*
X0302400Y0180874D01*
X0302357Y0180829D01*
X0302311Y0180786D01*
X0302263Y0180747D01*
X0302212Y0180711D01*
X0302159Y0180678D01*
X0302104Y0180648D01*
X0302047Y0180622D01*
X0301989Y0180600D01*
X0301929Y0180582D01*
X0301869Y0180567D01*
X0301807Y0180556D01*
X0301745Y0180549D01*
X0301683Y0180546D01*
X0301620Y0180547D01*
X0301558Y0180552D01*
X0301496Y0180561D01*
X0301435Y0180574D01*
X0301375Y0180590D01*
X0301316Y0180611D01*
X0301258Y0180635D01*
X0301202Y0180663D01*
X0301148Y0180694D01*
X0301096Y0180728D01*
X0301047Y0180766D01*
X0300999Y0180807D01*
X0300955Y0180851D01*
X0300913Y0180897D01*
X0300875Y0180947D01*
X0300839Y0180998D01*
X0300807Y0181052D01*
X0300779Y0181107D01*
X0300753Y0181164D01*
X0300732Y0181223D01*
X0300715Y0181283D01*
X0300701Y0181344D01*
X0300691Y0181405D01*
X0300685Y0181468D01*
X0300683Y0181530D01*
X0300683Y0184655D02*
X0300685Y0184717D01*
X0300691Y0184780D01*
X0300701Y0184841D01*
X0300715Y0184902D01*
X0300732Y0184962D01*
X0300753Y0185021D01*
X0300779Y0185078D01*
X0300807Y0185133D01*
X0300839Y0185187D01*
X0300875Y0185238D01*
X0300913Y0185288D01*
X0300955Y0185334D01*
X0300999Y0185378D01*
X0301047Y0185419D01*
X0301096Y0185457D01*
X0301148Y0185491D01*
X0301202Y0185522D01*
X0301258Y0185550D01*
X0301316Y0185574D01*
X0301375Y0185595D01*
X0301435Y0185611D01*
X0301496Y0185624D01*
X0301558Y0185633D01*
X0301620Y0185638D01*
X0301683Y0185639D01*
X0301745Y0185636D01*
X0301807Y0185629D01*
X0301869Y0185618D01*
X0301929Y0185603D01*
X0301989Y0185585D01*
X0302047Y0185563D01*
X0302104Y0185537D01*
X0302159Y0185507D01*
X0302212Y0185474D01*
X0302263Y0185438D01*
X0302311Y0185399D01*
X0302357Y0185356D01*
X0302400Y0185311D01*
X0302440Y0185263D01*
X0302477Y0185213D01*
X0302511Y0185160D01*
X0302542Y0185106D01*
X0302568Y0185050D01*
X0302592Y0184992D01*
X0302611Y0184932D01*
X0302627Y0184872D01*
X0302639Y0184810D01*
X0302647Y0184749D01*
X0302651Y0184686D01*
X0302651Y0184624D01*
X0302647Y0184561D01*
X0302639Y0184500D01*
X0302627Y0184438D01*
X0302611Y0184378D01*
X0302592Y0184318D01*
X0302568Y0184260D01*
X0302542Y0184204D01*
X0302511Y0184150D01*
X0302477Y0184097D01*
X0302440Y0184047D01*
X0302400Y0183999D01*
X0302357Y0183954D01*
X0302311Y0183911D01*
X0302263Y0183872D01*
X0302212Y0183836D01*
X0302159Y0183803D01*
X0302104Y0183773D01*
X0302047Y0183747D01*
X0301989Y0183725D01*
X0301929Y0183707D01*
X0301869Y0183692D01*
X0301807Y0183681D01*
X0301745Y0183674D01*
X0301683Y0183671D01*
X0301620Y0183672D01*
X0301558Y0183677D01*
X0301496Y0183686D01*
X0301435Y0183699D01*
X0301375Y0183715D01*
X0301316Y0183736D01*
X0301258Y0183760D01*
X0301202Y0183788D01*
X0301148Y0183819D01*
X0301096Y0183853D01*
X0301047Y0183891D01*
X0300999Y0183932D01*
X0300955Y0183976D01*
X0300913Y0184022D01*
X0300875Y0184072D01*
X0300839Y0184123D01*
X0300807Y0184177D01*
X0300779Y0184232D01*
X0300753Y0184289D01*
X0300732Y0184348D01*
X0300715Y0184408D01*
X0300701Y0184469D01*
X0300691Y0184530D01*
X0300685Y0184593D01*
X0300683Y0184655D01*
X0300683Y0187780D02*
X0300685Y0187842D01*
X0300691Y0187905D01*
X0300701Y0187966D01*
X0300715Y0188027D01*
X0300732Y0188087D01*
X0300753Y0188146D01*
X0300779Y0188203D01*
X0300807Y0188258D01*
X0300839Y0188312D01*
X0300875Y0188363D01*
X0300913Y0188413D01*
X0300955Y0188459D01*
X0300999Y0188503D01*
X0301047Y0188544D01*
X0301096Y0188582D01*
X0301148Y0188616D01*
X0301202Y0188647D01*
X0301258Y0188675D01*
X0301316Y0188699D01*
X0301375Y0188720D01*
X0301435Y0188736D01*
X0301496Y0188749D01*
X0301558Y0188758D01*
X0301620Y0188763D01*
X0301683Y0188764D01*
X0301745Y0188761D01*
X0301807Y0188754D01*
X0301869Y0188743D01*
X0301929Y0188728D01*
X0301989Y0188710D01*
X0302047Y0188688D01*
X0302104Y0188662D01*
X0302159Y0188632D01*
X0302212Y0188599D01*
X0302263Y0188563D01*
X0302311Y0188524D01*
X0302357Y0188481D01*
X0302400Y0188436D01*
X0302440Y0188388D01*
X0302477Y0188338D01*
X0302511Y0188285D01*
X0302542Y0188231D01*
X0302568Y0188175D01*
X0302592Y0188117D01*
X0302611Y0188057D01*
X0302627Y0187997D01*
X0302639Y0187935D01*
X0302647Y0187874D01*
X0302651Y0187811D01*
X0302651Y0187749D01*
X0302647Y0187686D01*
X0302639Y0187625D01*
X0302627Y0187563D01*
X0302611Y0187503D01*
X0302592Y0187443D01*
X0302568Y0187385D01*
X0302542Y0187329D01*
X0302511Y0187275D01*
X0302477Y0187222D01*
X0302440Y0187172D01*
X0302400Y0187124D01*
X0302357Y0187079D01*
X0302311Y0187036D01*
X0302263Y0186997D01*
X0302212Y0186961D01*
X0302159Y0186928D01*
X0302104Y0186898D01*
X0302047Y0186872D01*
X0301989Y0186850D01*
X0301929Y0186832D01*
X0301869Y0186817D01*
X0301807Y0186806D01*
X0301745Y0186799D01*
X0301683Y0186796D01*
X0301620Y0186797D01*
X0301558Y0186802D01*
X0301496Y0186811D01*
X0301435Y0186824D01*
X0301375Y0186840D01*
X0301316Y0186861D01*
X0301258Y0186885D01*
X0301202Y0186913D01*
X0301148Y0186944D01*
X0301096Y0186978D01*
X0301047Y0187016D01*
X0300999Y0187057D01*
X0300955Y0187101D01*
X0300913Y0187147D01*
X0300875Y0187197D01*
X0300839Y0187248D01*
X0300807Y0187302D01*
X0300779Y0187357D01*
X0300753Y0187414D01*
X0300732Y0187473D01*
X0300715Y0187533D01*
X0300701Y0187594D01*
X0300691Y0187655D01*
X0300685Y0187718D01*
X0300683Y0187780D01*
X0300683Y0190905D02*
X0300685Y0190967D01*
X0300691Y0191030D01*
X0300701Y0191091D01*
X0300715Y0191152D01*
X0300732Y0191212D01*
X0300753Y0191271D01*
X0300779Y0191328D01*
X0300807Y0191383D01*
X0300839Y0191437D01*
X0300875Y0191488D01*
X0300913Y0191538D01*
X0300955Y0191584D01*
X0300999Y0191628D01*
X0301047Y0191669D01*
X0301096Y0191707D01*
X0301148Y0191741D01*
X0301202Y0191772D01*
X0301258Y0191800D01*
X0301316Y0191824D01*
X0301375Y0191845D01*
X0301435Y0191861D01*
X0301496Y0191874D01*
X0301558Y0191883D01*
X0301620Y0191888D01*
X0301683Y0191889D01*
X0301745Y0191886D01*
X0301807Y0191879D01*
X0301869Y0191868D01*
X0301929Y0191853D01*
X0301989Y0191835D01*
X0302047Y0191813D01*
X0302104Y0191787D01*
X0302159Y0191757D01*
X0302212Y0191724D01*
X0302263Y0191688D01*
X0302311Y0191649D01*
X0302357Y0191606D01*
X0302400Y0191561D01*
X0302440Y0191513D01*
X0302477Y0191463D01*
X0302511Y0191410D01*
X0302542Y0191356D01*
X0302568Y0191300D01*
X0302592Y0191242D01*
X0302611Y0191182D01*
X0302627Y0191122D01*
X0302639Y0191060D01*
X0302647Y0190999D01*
X0302651Y0190936D01*
X0302651Y0190874D01*
X0302647Y0190811D01*
X0302639Y0190750D01*
X0302627Y0190688D01*
X0302611Y0190628D01*
X0302592Y0190568D01*
X0302568Y0190510D01*
X0302542Y0190454D01*
X0302511Y0190400D01*
X0302477Y0190347D01*
X0302440Y0190297D01*
X0302400Y0190249D01*
X0302357Y0190204D01*
X0302311Y0190161D01*
X0302263Y0190122D01*
X0302212Y0190086D01*
X0302159Y0190053D01*
X0302104Y0190023D01*
X0302047Y0189997D01*
X0301989Y0189975D01*
X0301929Y0189957D01*
X0301869Y0189942D01*
X0301807Y0189931D01*
X0301745Y0189924D01*
X0301683Y0189921D01*
X0301620Y0189922D01*
X0301558Y0189927D01*
X0301496Y0189936D01*
X0301435Y0189949D01*
X0301375Y0189965D01*
X0301316Y0189986D01*
X0301258Y0190010D01*
X0301202Y0190038D01*
X0301148Y0190069D01*
X0301096Y0190103D01*
X0301047Y0190141D01*
X0300999Y0190182D01*
X0300955Y0190226D01*
X0300913Y0190272D01*
X0300875Y0190322D01*
X0300839Y0190373D01*
X0300807Y0190427D01*
X0300779Y0190482D01*
X0300753Y0190539D01*
X0300732Y0190598D01*
X0300715Y0190658D01*
X0300701Y0190719D01*
X0300691Y0190780D01*
X0300685Y0190843D01*
X0300683Y0190905D01*
X0300683Y0194030D02*
X0300685Y0194092D01*
X0300691Y0194155D01*
X0300701Y0194216D01*
X0300715Y0194277D01*
X0300732Y0194337D01*
X0300753Y0194396D01*
X0300779Y0194453D01*
X0300807Y0194508D01*
X0300839Y0194562D01*
X0300875Y0194613D01*
X0300913Y0194663D01*
X0300955Y0194709D01*
X0300999Y0194753D01*
X0301047Y0194794D01*
X0301096Y0194832D01*
X0301148Y0194866D01*
X0301202Y0194897D01*
X0301258Y0194925D01*
X0301316Y0194949D01*
X0301375Y0194970D01*
X0301435Y0194986D01*
X0301496Y0194999D01*
X0301558Y0195008D01*
X0301620Y0195013D01*
X0301683Y0195014D01*
X0301745Y0195011D01*
X0301807Y0195004D01*
X0301869Y0194993D01*
X0301929Y0194978D01*
X0301989Y0194960D01*
X0302047Y0194938D01*
X0302104Y0194912D01*
X0302159Y0194882D01*
X0302212Y0194849D01*
X0302263Y0194813D01*
X0302311Y0194774D01*
X0302357Y0194731D01*
X0302400Y0194686D01*
X0302440Y0194638D01*
X0302477Y0194588D01*
X0302511Y0194535D01*
X0302542Y0194481D01*
X0302568Y0194425D01*
X0302592Y0194367D01*
X0302611Y0194307D01*
X0302627Y0194247D01*
X0302639Y0194185D01*
X0302647Y0194124D01*
X0302651Y0194061D01*
X0302651Y0193999D01*
X0302647Y0193936D01*
X0302639Y0193875D01*
X0302627Y0193813D01*
X0302611Y0193753D01*
X0302592Y0193693D01*
X0302568Y0193635D01*
X0302542Y0193579D01*
X0302511Y0193525D01*
X0302477Y0193472D01*
X0302440Y0193422D01*
X0302400Y0193374D01*
X0302357Y0193329D01*
X0302311Y0193286D01*
X0302263Y0193247D01*
X0302212Y0193211D01*
X0302159Y0193178D01*
X0302104Y0193148D01*
X0302047Y0193122D01*
X0301989Y0193100D01*
X0301929Y0193082D01*
X0301869Y0193067D01*
X0301807Y0193056D01*
X0301745Y0193049D01*
X0301683Y0193046D01*
X0301620Y0193047D01*
X0301558Y0193052D01*
X0301496Y0193061D01*
X0301435Y0193074D01*
X0301375Y0193090D01*
X0301316Y0193111D01*
X0301258Y0193135D01*
X0301202Y0193163D01*
X0301148Y0193194D01*
X0301096Y0193228D01*
X0301047Y0193266D01*
X0300999Y0193307D01*
X0300955Y0193351D01*
X0300913Y0193397D01*
X0300875Y0193447D01*
X0300839Y0193498D01*
X0300807Y0193552D01*
X0300779Y0193607D01*
X0300753Y0193664D01*
X0300732Y0193723D01*
X0300715Y0193783D01*
X0300701Y0193844D01*
X0300691Y0193905D01*
X0300685Y0193968D01*
X0300683Y0194030D01*
X0300683Y0197155D02*
X0300685Y0197217D01*
X0300691Y0197280D01*
X0300701Y0197341D01*
X0300715Y0197402D01*
X0300732Y0197462D01*
X0300753Y0197521D01*
X0300779Y0197578D01*
X0300807Y0197633D01*
X0300839Y0197687D01*
X0300875Y0197738D01*
X0300913Y0197788D01*
X0300955Y0197834D01*
X0300999Y0197878D01*
X0301047Y0197919D01*
X0301096Y0197957D01*
X0301148Y0197991D01*
X0301202Y0198022D01*
X0301258Y0198050D01*
X0301316Y0198074D01*
X0301375Y0198095D01*
X0301435Y0198111D01*
X0301496Y0198124D01*
X0301558Y0198133D01*
X0301620Y0198138D01*
X0301683Y0198139D01*
X0301745Y0198136D01*
X0301807Y0198129D01*
X0301869Y0198118D01*
X0301929Y0198103D01*
X0301989Y0198085D01*
X0302047Y0198063D01*
X0302104Y0198037D01*
X0302159Y0198007D01*
X0302212Y0197974D01*
X0302263Y0197938D01*
X0302311Y0197899D01*
X0302357Y0197856D01*
X0302400Y0197811D01*
X0302440Y0197763D01*
X0302477Y0197713D01*
X0302511Y0197660D01*
X0302542Y0197606D01*
X0302568Y0197550D01*
X0302592Y0197492D01*
X0302611Y0197432D01*
X0302627Y0197372D01*
X0302639Y0197310D01*
X0302647Y0197249D01*
X0302651Y0197186D01*
X0302651Y0197124D01*
X0302647Y0197061D01*
X0302639Y0197000D01*
X0302627Y0196938D01*
X0302611Y0196878D01*
X0302592Y0196818D01*
X0302568Y0196760D01*
X0302542Y0196704D01*
X0302511Y0196650D01*
X0302477Y0196597D01*
X0302440Y0196547D01*
X0302400Y0196499D01*
X0302357Y0196454D01*
X0302311Y0196411D01*
X0302263Y0196372D01*
X0302212Y0196336D01*
X0302159Y0196303D01*
X0302104Y0196273D01*
X0302047Y0196247D01*
X0301989Y0196225D01*
X0301929Y0196207D01*
X0301869Y0196192D01*
X0301807Y0196181D01*
X0301745Y0196174D01*
X0301683Y0196171D01*
X0301620Y0196172D01*
X0301558Y0196177D01*
X0301496Y0196186D01*
X0301435Y0196199D01*
X0301375Y0196215D01*
X0301316Y0196236D01*
X0301258Y0196260D01*
X0301202Y0196288D01*
X0301148Y0196319D01*
X0301096Y0196353D01*
X0301047Y0196391D01*
X0300999Y0196432D01*
X0300955Y0196476D01*
X0300913Y0196522D01*
X0300875Y0196572D01*
X0300839Y0196623D01*
X0300807Y0196677D01*
X0300779Y0196732D01*
X0300753Y0196789D01*
X0300732Y0196848D01*
X0300715Y0196908D01*
X0300701Y0196969D01*
X0300691Y0197030D01*
X0300685Y0197093D01*
X0300683Y0197155D01*
X0300683Y0200280D02*
X0300685Y0200342D01*
X0300691Y0200405D01*
X0300701Y0200466D01*
X0300715Y0200527D01*
X0300732Y0200587D01*
X0300753Y0200646D01*
X0300779Y0200703D01*
X0300807Y0200758D01*
X0300839Y0200812D01*
X0300875Y0200863D01*
X0300913Y0200913D01*
X0300955Y0200959D01*
X0300999Y0201003D01*
X0301047Y0201044D01*
X0301096Y0201082D01*
X0301148Y0201116D01*
X0301202Y0201147D01*
X0301258Y0201175D01*
X0301316Y0201199D01*
X0301375Y0201220D01*
X0301435Y0201236D01*
X0301496Y0201249D01*
X0301558Y0201258D01*
X0301620Y0201263D01*
X0301683Y0201264D01*
X0301745Y0201261D01*
X0301807Y0201254D01*
X0301869Y0201243D01*
X0301929Y0201228D01*
X0301989Y0201210D01*
X0302047Y0201188D01*
X0302104Y0201162D01*
X0302159Y0201132D01*
X0302212Y0201099D01*
X0302263Y0201063D01*
X0302311Y0201024D01*
X0302357Y0200981D01*
X0302400Y0200936D01*
X0302440Y0200888D01*
X0302477Y0200838D01*
X0302511Y0200785D01*
X0302542Y0200731D01*
X0302568Y0200675D01*
X0302592Y0200617D01*
X0302611Y0200557D01*
X0302627Y0200497D01*
X0302639Y0200435D01*
X0302647Y0200374D01*
X0302651Y0200311D01*
X0302651Y0200249D01*
X0302647Y0200186D01*
X0302639Y0200125D01*
X0302627Y0200063D01*
X0302611Y0200003D01*
X0302592Y0199943D01*
X0302568Y0199885D01*
X0302542Y0199829D01*
X0302511Y0199775D01*
X0302477Y0199722D01*
X0302440Y0199672D01*
X0302400Y0199624D01*
X0302357Y0199579D01*
X0302311Y0199536D01*
X0302263Y0199497D01*
X0302212Y0199461D01*
X0302159Y0199428D01*
X0302104Y0199398D01*
X0302047Y0199372D01*
X0301989Y0199350D01*
X0301929Y0199332D01*
X0301869Y0199317D01*
X0301807Y0199306D01*
X0301745Y0199299D01*
X0301683Y0199296D01*
X0301620Y0199297D01*
X0301558Y0199302D01*
X0301496Y0199311D01*
X0301435Y0199324D01*
X0301375Y0199340D01*
X0301316Y0199361D01*
X0301258Y0199385D01*
X0301202Y0199413D01*
X0301148Y0199444D01*
X0301096Y0199478D01*
X0301047Y0199516D01*
X0300999Y0199557D01*
X0300955Y0199601D01*
X0300913Y0199647D01*
X0300875Y0199697D01*
X0300839Y0199748D01*
X0300807Y0199802D01*
X0300779Y0199857D01*
X0300753Y0199914D01*
X0300732Y0199973D01*
X0300715Y0200033D01*
X0300701Y0200094D01*
X0300691Y0200155D01*
X0300685Y0200218D01*
X0300683Y0200280D01*
X0298183Y0202155D02*
X0298185Y0202217D01*
X0298191Y0202280D01*
X0298201Y0202341D01*
X0298215Y0202402D01*
X0298232Y0202462D01*
X0298253Y0202521D01*
X0298279Y0202578D01*
X0298307Y0202633D01*
X0298339Y0202687D01*
X0298375Y0202738D01*
X0298413Y0202788D01*
X0298455Y0202834D01*
X0298499Y0202878D01*
X0298547Y0202919D01*
X0298596Y0202957D01*
X0298648Y0202991D01*
X0298702Y0203022D01*
X0298758Y0203050D01*
X0298816Y0203074D01*
X0298875Y0203095D01*
X0298935Y0203111D01*
X0298996Y0203124D01*
X0299058Y0203133D01*
X0299120Y0203138D01*
X0299183Y0203139D01*
X0299245Y0203136D01*
X0299307Y0203129D01*
X0299369Y0203118D01*
X0299429Y0203103D01*
X0299489Y0203085D01*
X0299547Y0203063D01*
X0299604Y0203037D01*
X0299659Y0203007D01*
X0299712Y0202974D01*
X0299763Y0202938D01*
X0299811Y0202899D01*
X0299857Y0202856D01*
X0299900Y0202811D01*
X0299940Y0202763D01*
X0299977Y0202713D01*
X0300011Y0202660D01*
X0300042Y0202606D01*
X0300068Y0202550D01*
X0300092Y0202492D01*
X0300111Y0202432D01*
X0300127Y0202372D01*
X0300139Y0202310D01*
X0300147Y0202249D01*
X0300151Y0202186D01*
X0300151Y0202124D01*
X0300147Y0202061D01*
X0300139Y0202000D01*
X0300127Y0201938D01*
X0300111Y0201878D01*
X0300092Y0201818D01*
X0300068Y0201760D01*
X0300042Y0201704D01*
X0300011Y0201650D01*
X0299977Y0201597D01*
X0299940Y0201547D01*
X0299900Y0201499D01*
X0299857Y0201454D01*
X0299811Y0201411D01*
X0299763Y0201372D01*
X0299712Y0201336D01*
X0299659Y0201303D01*
X0299604Y0201273D01*
X0299547Y0201247D01*
X0299489Y0201225D01*
X0299429Y0201207D01*
X0299369Y0201192D01*
X0299307Y0201181D01*
X0299245Y0201174D01*
X0299183Y0201171D01*
X0299120Y0201172D01*
X0299058Y0201177D01*
X0298996Y0201186D01*
X0298935Y0201199D01*
X0298875Y0201215D01*
X0298816Y0201236D01*
X0298758Y0201260D01*
X0298702Y0201288D01*
X0298648Y0201319D01*
X0298596Y0201353D01*
X0298547Y0201391D01*
X0298499Y0201432D01*
X0298455Y0201476D01*
X0298413Y0201522D01*
X0298375Y0201572D01*
X0298339Y0201623D01*
X0298307Y0201677D01*
X0298279Y0201732D01*
X0298253Y0201789D01*
X0298232Y0201848D01*
X0298215Y0201908D01*
X0298201Y0201969D01*
X0298191Y0202030D01*
X0298185Y0202093D01*
X0298183Y0202155D01*
X0295058Y0202155D02*
X0295060Y0202217D01*
X0295066Y0202280D01*
X0295076Y0202341D01*
X0295090Y0202402D01*
X0295107Y0202462D01*
X0295128Y0202521D01*
X0295154Y0202578D01*
X0295182Y0202633D01*
X0295214Y0202687D01*
X0295250Y0202738D01*
X0295288Y0202788D01*
X0295330Y0202834D01*
X0295374Y0202878D01*
X0295422Y0202919D01*
X0295471Y0202957D01*
X0295523Y0202991D01*
X0295577Y0203022D01*
X0295633Y0203050D01*
X0295691Y0203074D01*
X0295750Y0203095D01*
X0295810Y0203111D01*
X0295871Y0203124D01*
X0295933Y0203133D01*
X0295995Y0203138D01*
X0296058Y0203139D01*
X0296120Y0203136D01*
X0296182Y0203129D01*
X0296244Y0203118D01*
X0296304Y0203103D01*
X0296364Y0203085D01*
X0296422Y0203063D01*
X0296479Y0203037D01*
X0296534Y0203007D01*
X0296587Y0202974D01*
X0296638Y0202938D01*
X0296686Y0202899D01*
X0296732Y0202856D01*
X0296775Y0202811D01*
X0296815Y0202763D01*
X0296852Y0202713D01*
X0296886Y0202660D01*
X0296917Y0202606D01*
X0296943Y0202550D01*
X0296967Y0202492D01*
X0296986Y0202432D01*
X0297002Y0202372D01*
X0297014Y0202310D01*
X0297022Y0202249D01*
X0297026Y0202186D01*
X0297026Y0202124D01*
X0297022Y0202061D01*
X0297014Y0202000D01*
X0297002Y0201938D01*
X0296986Y0201878D01*
X0296967Y0201818D01*
X0296943Y0201760D01*
X0296917Y0201704D01*
X0296886Y0201650D01*
X0296852Y0201597D01*
X0296815Y0201547D01*
X0296775Y0201499D01*
X0296732Y0201454D01*
X0296686Y0201411D01*
X0296638Y0201372D01*
X0296587Y0201336D01*
X0296534Y0201303D01*
X0296479Y0201273D01*
X0296422Y0201247D01*
X0296364Y0201225D01*
X0296304Y0201207D01*
X0296244Y0201192D01*
X0296182Y0201181D01*
X0296120Y0201174D01*
X0296058Y0201171D01*
X0295995Y0201172D01*
X0295933Y0201177D01*
X0295871Y0201186D01*
X0295810Y0201199D01*
X0295750Y0201215D01*
X0295691Y0201236D01*
X0295633Y0201260D01*
X0295577Y0201288D01*
X0295523Y0201319D01*
X0295471Y0201353D01*
X0295422Y0201391D01*
X0295374Y0201432D01*
X0295330Y0201476D01*
X0295288Y0201522D01*
X0295250Y0201572D01*
X0295214Y0201623D01*
X0295182Y0201677D01*
X0295154Y0201732D01*
X0295128Y0201789D01*
X0295107Y0201848D01*
X0295090Y0201908D01*
X0295076Y0201969D01*
X0295066Y0202030D01*
X0295060Y0202093D01*
X0295058Y0202155D01*
X0291933Y0202155D02*
X0291935Y0202217D01*
X0291941Y0202280D01*
X0291951Y0202341D01*
X0291965Y0202402D01*
X0291982Y0202462D01*
X0292003Y0202521D01*
X0292029Y0202578D01*
X0292057Y0202633D01*
X0292089Y0202687D01*
X0292125Y0202738D01*
X0292163Y0202788D01*
X0292205Y0202834D01*
X0292249Y0202878D01*
X0292297Y0202919D01*
X0292346Y0202957D01*
X0292398Y0202991D01*
X0292452Y0203022D01*
X0292508Y0203050D01*
X0292566Y0203074D01*
X0292625Y0203095D01*
X0292685Y0203111D01*
X0292746Y0203124D01*
X0292808Y0203133D01*
X0292870Y0203138D01*
X0292933Y0203139D01*
X0292995Y0203136D01*
X0293057Y0203129D01*
X0293119Y0203118D01*
X0293179Y0203103D01*
X0293239Y0203085D01*
X0293297Y0203063D01*
X0293354Y0203037D01*
X0293409Y0203007D01*
X0293462Y0202974D01*
X0293513Y0202938D01*
X0293561Y0202899D01*
X0293607Y0202856D01*
X0293650Y0202811D01*
X0293690Y0202763D01*
X0293727Y0202713D01*
X0293761Y0202660D01*
X0293792Y0202606D01*
X0293818Y0202550D01*
X0293842Y0202492D01*
X0293861Y0202432D01*
X0293877Y0202372D01*
X0293889Y0202310D01*
X0293897Y0202249D01*
X0293901Y0202186D01*
X0293901Y0202124D01*
X0293897Y0202061D01*
X0293889Y0202000D01*
X0293877Y0201938D01*
X0293861Y0201878D01*
X0293842Y0201818D01*
X0293818Y0201760D01*
X0293792Y0201704D01*
X0293761Y0201650D01*
X0293727Y0201597D01*
X0293690Y0201547D01*
X0293650Y0201499D01*
X0293607Y0201454D01*
X0293561Y0201411D01*
X0293513Y0201372D01*
X0293462Y0201336D01*
X0293409Y0201303D01*
X0293354Y0201273D01*
X0293297Y0201247D01*
X0293239Y0201225D01*
X0293179Y0201207D01*
X0293119Y0201192D01*
X0293057Y0201181D01*
X0292995Y0201174D01*
X0292933Y0201171D01*
X0292870Y0201172D01*
X0292808Y0201177D01*
X0292746Y0201186D01*
X0292685Y0201199D01*
X0292625Y0201215D01*
X0292566Y0201236D01*
X0292508Y0201260D01*
X0292452Y0201288D01*
X0292398Y0201319D01*
X0292346Y0201353D01*
X0292297Y0201391D01*
X0292249Y0201432D01*
X0292205Y0201476D01*
X0292163Y0201522D01*
X0292125Y0201572D01*
X0292089Y0201623D01*
X0292057Y0201677D01*
X0292029Y0201732D01*
X0292003Y0201789D01*
X0291982Y0201848D01*
X0291965Y0201908D01*
X0291951Y0201969D01*
X0291941Y0202030D01*
X0291935Y0202093D01*
X0291933Y0202155D01*
X0288808Y0202155D02*
X0288810Y0202217D01*
X0288816Y0202280D01*
X0288826Y0202341D01*
X0288840Y0202402D01*
X0288857Y0202462D01*
X0288878Y0202521D01*
X0288904Y0202578D01*
X0288932Y0202633D01*
X0288964Y0202687D01*
X0289000Y0202738D01*
X0289038Y0202788D01*
X0289080Y0202834D01*
X0289124Y0202878D01*
X0289172Y0202919D01*
X0289221Y0202957D01*
X0289273Y0202991D01*
X0289327Y0203022D01*
X0289383Y0203050D01*
X0289441Y0203074D01*
X0289500Y0203095D01*
X0289560Y0203111D01*
X0289621Y0203124D01*
X0289683Y0203133D01*
X0289745Y0203138D01*
X0289808Y0203139D01*
X0289870Y0203136D01*
X0289932Y0203129D01*
X0289994Y0203118D01*
X0290054Y0203103D01*
X0290114Y0203085D01*
X0290172Y0203063D01*
X0290229Y0203037D01*
X0290284Y0203007D01*
X0290337Y0202974D01*
X0290388Y0202938D01*
X0290436Y0202899D01*
X0290482Y0202856D01*
X0290525Y0202811D01*
X0290565Y0202763D01*
X0290602Y0202713D01*
X0290636Y0202660D01*
X0290667Y0202606D01*
X0290693Y0202550D01*
X0290717Y0202492D01*
X0290736Y0202432D01*
X0290752Y0202372D01*
X0290764Y0202310D01*
X0290772Y0202249D01*
X0290776Y0202186D01*
X0290776Y0202124D01*
X0290772Y0202061D01*
X0290764Y0202000D01*
X0290752Y0201938D01*
X0290736Y0201878D01*
X0290717Y0201818D01*
X0290693Y0201760D01*
X0290667Y0201704D01*
X0290636Y0201650D01*
X0290602Y0201597D01*
X0290565Y0201547D01*
X0290525Y0201499D01*
X0290482Y0201454D01*
X0290436Y0201411D01*
X0290388Y0201372D01*
X0290337Y0201336D01*
X0290284Y0201303D01*
X0290229Y0201273D01*
X0290172Y0201247D01*
X0290114Y0201225D01*
X0290054Y0201207D01*
X0289994Y0201192D01*
X0289932Y0201181D01*
X0289870Y0201174D01*
X0289808Y0201171D01*
X0289745Y0201172D01*
X0289683Y0201177D01*
X0289621Y0201186D01*
X0289560Y0201199D01*
X0289500Y0201215D01*
X0289441Y0201236D01*
X0289383Y0201260D01*
X0289327Y0201288D01*
X0289273Y0201319D01*
X0289221Y0201353D01*
X0289172Y0201391D01*
X0289124Y0201432D01*
X0289080Y0201476D01*
X0289038Y0201522D01*
X0289000Y0201572D01*
X0288964Y0201623D01*
X0288932Y0201677D01*
X0288904Y0201732D01*
X0288878Y0201789D01*
X0288857Y0201848D01*
X0288840Y0201908D01*
X0288826Y0201969D01*
X0288816Y0202030D01*
X0288810Y0202093D01*
X0288808Y0202155D01*
X0285683Y0202155D02*
X0285685Y0202217D01*
X0285691Y0202280D01*
X0285701Y0202341D01*
X0285715Y0202402D01*
X0285732Y0202462D01*
X0285753Y0202521D01*
X0285779Y0202578D01*
X0285807Y0202633D01*
X0285839Y0202687D01*
X0285875Y0202738D01*
X0285913Y0202788D01*
X0285955Y0202834D01*
X0285999Y0202878D01*
X0286047Y0202919D01*
X0286096Y0202957D01*
X0286148Y0202991D01*
X0286202Y0203022D01*
X0286258Y0203050D01*
X0286316Y0203074D01*
X0286375Y0203095D01*
X0286435Y0203111D01*
X0286496Y0203124D01*
X0286558Y0203133D01*
X0286620Y0203138D01*
X0286683Y0203139D01*
X0286745Y0203136D01*
X0286807Y0203129D01*
X0286869Y0203118D01*
X0286929Y0203103D01*
X0286989Y0203085D01*
X0287047Y0203063D01*
X0287104Y0203037D01*
X0287159Y0203007D01*
X0287212Y0202974D01*
X0287263Y0202938D01*
X0287311Y0202899D01*
X0287357Y0202856D01*
X0287400Y0202811D01*
X0287440Y0202763D01*
X0287477Y0202713D01*
X0287511Y0202660D01*
X0287542Y0202606D01*
X0287568Y0202550D01*
X0287592Y0202492D01*
X0287611Y0202432D01*
X0287627Y0202372D01*
X0287639Y0202310D01*
X0287647Y0202249D01*
X0287651Y0202186D01*
X0287651Y0202124D01*
X0287647Y0202061D01*
X0287639Y0202000D01*
X0287627Y0201938D01*
X0287611Y0201878D01*
X0287592Y0201818D01*
X0287568Y0201760D01*
X0287542Y0201704D01*
X0287511Y0201650D01*
X0287477Y0201597D01*
X0287440Y0201547D01*
X0287400Y0201499D01*
X0287357Y0201454D01*
X0287311Y0201411D01*
X0287263Y0201372D01*
X0287212Y0201336D01*
X0287159Y0201303D01*
X0287104Y0201273D01*
X0287047Y0201247D01*
X0286989Y0201225D01*
X0286929Y0201207D01*
X0286869Y0201192D01*
X0286807Y0201181D01*
X0286745Y0201174D01*
X0286683Y0201171D01*
X0286620Y0201172D01*
X0286558Y0201177D01*
X0286496Y0201186D01*
X0286435Y0201199D01*
X0286375Y0201215D01*
X0286316Y0201236D01*
X0286258Y0201260D01*
X0286202Y0201288D01*
X0286148Y0201319D01*
X0286096Y0201353D01*
X0286047Y0201391D01*
X0285999Y0201432D01*
X0285955Y0201476D01*
X0285913Y0201522D01*
X0285875Y0201572D01*
X0285839Y0201623D01*
X0285807Y0201677D01*
X0285779Y0201732D01*
X0285753Y0201789D01*
X0285732Y0201848D01*
X0285715Y0201908D01*
X0285701Y0201969D01*
X0285691Y0202030D01*
X0285685Y0202093D01*
X0285683Y0202155D01*
X0291618Y0217780D02*
X0291620Y0217938D01*
X0291626Y0218096D01*
X0291636Y0218254D01*
X0291650Y0218412D01*
X0291668Y0218569D01*
X0291689Y0218726D01*
X0291715Y0218882D01*
X0291745Y0219038D01*
X0291778Y0219193D01*
X0291816Y0219346D01*
X0291857Y0219499D01*
X0291902Y0219651D01*
X0291951Y0219802D01*
X0292004Y0219951D01*
X0292060Y0220099D01*
X0292120Y0220245D01*
X0292184Y0220390D01*
X0292252Y0220533D01*
X0292323Y0220675D01*
X0292397Y0220815D01*
X0292475Y0220952D01*
X0292557Y0221088D01*
X0292641Y0221222D01*
X0292730Y0221353D01*
X0292821Y0221482D01*
X0292916Y0221609D01*
X0293013Y0221734D01*
X0293114Y0221856D01*
X0293218Y0221975D01*
X0293325Y0222092D01*
X0293435Y0222206D01*
X0293548Y0222317D01*
X0293663Y0222426D01*
X0293781Y0222531D01*
X0293902Y0222633D01*
X0294025Y0222733D01*
X0294151Y0222829D01*
X0294279Y0222922D01*
X0294409Y0223012D01*
X0294542Y0223098D01*
X0294677Y0223182D01*
X0294813Y0223261D01*
X0294952Y0223338D01*
X0295093Y0223410D01*
X0295235Y0223480D01*
X0295379Y0223545D01*
X0295525Y0223607D01*
X0295672Y0223665D01*
X0295821Y0223720D01*
X0295971Y0223771D01*
X0296122Y0223818D01*
X0296274Y0223861D01*
X0296427Y0223900D01*
X0296582Y0223936D01*
X0296737Y0223967D01*
X0296893Y0223995D01*
X0297049Y0224019D01*
X0297206Y0224039D01*
X0297364Y0224055D01*
X0297521Y0224067D01*
X0297680Y0224075D01*
X0297838Y0224079D01*
X0297996Y0224079D01*
X0298154Y0224075D01*
X0298313Y0224067D01*
X0298470Y0224055D01*
X0298628Y0224039D01*
X0298785Y0224019D01*
X0298941Y0223995D01*
X0299097Y0223967D01*
X0299252Y0223936D01*
X0299407Y0223900D01*
X0299560Y0223861D01*
X0299712Y0223818D01*
X0299863Y0223771D01*
X0300013Y0223720D01*
X0300162Y0223665D01*
X0300309Y0223607D01*
X0300455Y0223545D01*
X0300599Y0223480D01*
X0300741Y0223410D01*
X0300882Y0223338D01*
X0301021Y0223261D01*
X0301157Y0223182D01*
X0301292Y0223098D01*
X0301425Y0223012D01*
X0301555Y0222922D01*
X0301683Y0222829D01*
X0301809Y0222733D01*
X0301932Y0222633D01*
X0302053Y0222531D01*
X0302171Y0222426D01*
X0302286Y0222317D01*
X0302399Y0222206D01*
X0302509Y0222092D01*
X0302616Y0221975D01*
X0302720Y0221856D01*
X0302821Y0221734D01*
X0302918Y0221609D01*
X0303013Y0221482D01*
X0303104Y0221353D01*
X0303193Y0221222D01*
X0303277Y0221088D01*
X0303359Y0220952D01*
X0303437Y0220815D01*
X0303511Y0220675D01*
X0303582Y0220533D01*
X0303650Y0220390D01*
X0303714Y0220245D01*
X0303774Y0220099D01*
X0303830Y0219951D01*
X0303883Y0219802D01*
X0303932Y0219651D01*
X0303977Y0219499D01*
X0304018Y0219346D01*
X0304056Y0219193D01*
X0304089Y0219038D01*
X0304119Y0218882D01*
X0304145Y0218726D01*
X0304166Y0218569D01*
X0304184Y0218412D01*
X0304198Y0218254D01*
X0304208Y0218096D01*
X0304214Y0217938D01*
X0304216Y0217780D01*
X0304214Y0217622D01*
X0304208Y0217464D01*
X0304198Y0217306D01*
X0304184Y0217148D01*
X0304166Y0216991D01*
X0304145Y0216834D01*
X0304119Y0216678D01*
X0304089Y0216522D01*
X0304056Y0216367D01*
X0304018Y0216214D01*
X0303977Y0216061D01*
X0303932Y0215909D01*
X0303883Y0215758D01*
X0303830Y0215609D01*
X0303774Y0215461D01*
X0303714Y0215315D01*
X0303650Y0215170D01*
X0303582Y0215027D01*
X0303511Y0214885D01*
X0303437Y0214745D01*
X0303359Y0214608D01*
X0303277Y0214472D01*
X0303193Y0214338D01*
X0303104Y0214207D01*
X0303013Y0214078D01*
X0302918Y0213951D01*
X0302821Y0213826D01*
X0302720Y0213704D01*
X0302616Y0213585D01*
X0302509Y0213468D01*
X0302399Y0213354D01*
X0302286Y0213243D01*
X0302171Y0213134D01*
X0302053Y0213029D01*
X0301932Y0212927D01*
X0301809Y0212827D01*
X0301683Y0212731D01*
X0301555Y0212638D01*
X0301425Y0212548D01*
X0301292Y0212462D01*
X0301157Y0212378D01*
X0301021Y0212299D01*
X0300882Y0212222D01*
X0300741Y0212150D01*
X0300599Y0212080D01*
X0300455Y0212015D01*
X0300309Y0211953D01*
X0300162Y0211895D01*
X0300013Y0211840D01*
X0299863Y0211789D01*
X0299712Y0211742D01*
X0299560Y0211699D01*
X0299407Y0211660D01*
X0299252Y0211624D01*
X0299097Y0211593D01*
X0298941Y0211565D01*
X0298785Y0211541D01*
X0298628Y0211521D01*
X0298470Y0211505D01*
X0298313Y0211493D01*
X0298154Y0211485D01*
X0297996Y0211481D01*
X0297838Y0211481D01*
X0297680Y0211485D01*
X0297521Y0211493D01*
X0297364Y0211505D01*
X0297206Y0211521D01*
X0297049Y0211541D01*
X0296893Y0211565D01*
X0296737Y0211593D01*
X0296582Y0211624D01*
X0296427Y0211660D01*
X0296274Y0211699D01*
X0296122Y0211742D01*
X0295971Y0211789D01*
X0295821Y0211840D01*
X0295672Y0211895D01*
X0295525Y0211953D01*
X0295379Y0212015D01*
X0295235Y0212080D01*
X0295093Y0212150D01*
X0294952Y0212222D01*
X0294813Y0212299D01*
X0294677Y0212378D01*
X0294542Y0212462D01*
X0294409Y0212548D01*
X0294279Y0212638D01*
X0294151Y0212731D01*
X0294025Y0212827D01*
X0293902Y0212927D01*
X0293781Y0213029D01*
X0293663Y0213134D01*
X0293548Y0213243D01*
X0293435Y0213354D01*
X0293325Y0213468D01*
X0293218Y0213585D01*
X0293114Y0213704D01*
X0293013Y0213826D01*
X0292916Y0213951D01*
X0292821Y0214078D01*
X0292730Y0214207D01*
X0292641Y0214338D01*
X0292557Y0214472D01*
X0292475Y0214608D01*
X0292397Y0214745D01*
X0292323Y0214885D01*
X0292252Y0215027D01*
X0292184Y0215170D01*
X0292120Y0215315D01*
X0292060Y0215461D01*
X0292004Y0215609D01*
X0291951Y0215758D01*
X0291902Y0215909D01*
X0291857Y0216061D01*
X0291816Y0216214D01*
X0291778Y0216367D01*
X0291745Y0216522D01*
X0291715Y0216678D01*
X0291689Y0216834D01*
X0291668Y0216991D01*
X0291650Y0217148D01*
X0291636Y0217306D01*
X0291626Y0217464D01*
X0291620Y0217622D01*
X0291618Y0217780D01*
X0253715Y0289271D02*
X0253717Y0289333D01*
X0253723Y0289396D01*
X0253733Y0289457D01*
X0253747Y0289518D01*
X0253764Y0289578D01*
X0253785Y0289637D01*
X0253811Y0289694D01*
X0253839Y0289749D01*
X0253871Y0289803D01*
X0253907Y0289854D01*
X0253945Y0289904D01*
X0253987Y0289950D01*
X0254031Y0289994D01*
X0254079Y0290035D01*
X0254128Y0290073D01*
X0254180Y0290107D01*
X0254234Y0290138D01*
X0254290Y0290166D01*
X0254348Y0290190D01*
X0254407Y0290211D01*
X0254467Y0290227D01*
X0254528Y0290240D01*
X0254590Y0290249D01*
X0254652Y0290254D01*
X0254715Y0290255D01*
X0254777Y0290252D01*
X0254839Y0290245D01*
X0254901Y0290234D01*
X0254961Y0290219D01*
X0255021Y0290201D01*
X0255079Y0290179D01*
X0255136Y0290153D01*
X0255191Y0290123D01*
X0255244Y0290090D01*
X0255295Y0290054D01*
X0255343Y0290015D01*
X0255389Y0289972D01*
X0255432Y0289927D01*
X0255472Y0289879D01*
X0255509Y0289829D01*
X0255543Y0289776D01*
X0255574Y0289722D01*
X0255600Y0289666D01*
X0255624Y0289608D01*
X0255643Y0289548D01*
X0255659Y0289488D01*
X0255671Y0289426D01*
X0255679Y0289365D01*
X0255683Y0289302D01*
X0255683Y0289240D01*
X0255679Y0289177D01*
X0255671Y0289116D01*
X0255659Y0289054D01*
X0255643Y0288994D01*
X0255624Y0288934D01*
X0255600Y0288876D01*
X0255574Y0288820D01*
X0255543Y0288766D01*
X0255509Y0288713D01*
X0255472Y0288663D01*
X0255432Y0288615D01*
X0255389Y0288570D01*
X0255343Y0288527D01*
X0255295Y0288488D01*
X0255244Y0288452D01*
X0255191Y0288419D01*
X0255136Y0288389D01*
X0255079Y0288363D01*
X0255021Y0288341D01*
X0254961Y0288323D01*
X0254901Y0288308D01*
X0254839Y0288297D01*
X0254777Y0288290D01*
X0254715Y0288287D01*
X0254652Y0288288D01*
X0254590Y0288293D01*
X0254528Y0288302D01*
X0254467Y0288315D01*
X0254407Y0288331D01*
X0254348Y0288352D01*
X0254290Y0288376D01*
X0254234Y0288404D01*
X0254180Y0288435D01*
X0254128Y0288469D01*
X0254079Y0288507D01*
X0254031Y0288548D01*
X0253987Y0288592D01*
X0253945Y0288638D01*
X0253907Y0288688D01*
X0253871Y0288739D01*
X0253839Y0288793D01*
X0253811Y0288848D01*
X0253785Y0288905D01*
X0253764Y0288964D01*
X0253747Y0289024D01*
X0253733Y0289085D01*
X0253723Y0289146D01*
X0253717Y0289209D01*
X0253715Y0289271D01*
X0250516Y0289271D02*
X0250518Y0289333D01*
X0250524Y0289396D01*
X0250534Y0289457D01*
X0250548Y0289518D01*
X0250565Y0289578D01*
X0250586Y0289637D01*
X0250612Y0289694D01*
X0250640Y0289749D01*
X0250672Y0289803D01*
X0250708Y0289854D01*
X0250746Y0289904D01*
X0250788Y0289950D01*
X0250832Y0289994D01*
X0250880Y0290035D01*
X0250929Y0290073D01*
X0250981Y0290107D01*
X0251035Y0290138D01*
X0251091Y0290166D01*
X0251149Y0290190D01*
X0251208Y0290211D01*
X0251268Y0290227D01*
X0251329Y0290240D01*
X0251391Y0290249D01*
X0251453Y0290254D01*
X0251516Y0290255D01*
X0251578Y0290252D01*
X0251640Y0290245D01*
X0251702Y0290234D01*
X0251762Y0290219D01*
X0251822Y0290201D01*
X0251880Y0290179D01*
X0251937Y0290153D01*
X0251992Y0290123D01*
X0252045Y0290090D01*
X0252096Y0290054D01*
X0252144Y0290015D01*
X0252190Y0289972D01*
X0252233Y0289927D01*
X0252273Y0289879D01*
X0252310Y0289829D01*
X0252344Y0289776D01*
X0252375Y0289722D01*
X0252401Y0289666D01*
X0252425Y0289608D01*
X0252444Y0289548D01*
X0252460Y0289488D01*
X0252472Y0289426D01*
X0252480Y0289365D01*
X0252484Y0289302D01*
X0252484Y0289240D01*
X0252480Y0289177D01*
X0252472Y0289116D01*
X0252460Y0289054D01*
X0252444Y0288994D01*
X0252425Y0288934D01*
X0252401Y0288876D01*
X0252375Y0288820D01*
X0252344Y0288766D01*
X0252310Y0288713D01*
X0252273Y0288663D01*
X0252233Y0288615D01*
X0252190Y0288570D01*
X0252144Y0288527D01*
X0252096Y0288488D01*
X0252045Y0288452D01*
X0251992Y0288419D01*
X0251937Y0288389D01*
X0251880Y0288363D01*
X0251822Y0288341D01*
X0251762Y0288323D01*
X0251702Y0288308D01*
X0251640Y0288297D01*
X0251578Y0288290D01*
X0251516Y0288287D01*
X0251453Y0288288D01*
X0251391Y0288293D01*
X0251329Y0288302D01*
X0251268Y0288315D01*
X0251208Y0288331D01*
X0251149Y0288352D01*
X0251091Y0288376D01*
X0251035Y0288404D01*
X0250981Y0288435D01*
X0250929Y0288469D01*
X0250880Y0288507D01*
X0250832Y0288548D01*
X0250788Y0288592D01*
X0250746Y0288638D01*
X0250708Y0288688D01*
X0250672Y0288739D01*
X0250640Y0288793D01*
X0250612Y0288848D01*
X0250586Y0288905D01*
X0250565Y0288964D01*
X0250548Y0289024D01*
X0250534Y0289085D01*
X0250524Y0289146D01*
X0250518Y0289209D01*
X0250516Y0289271D01*
X0247317Y0289271D02*
X0247319Y0289333D01*
X0247325Y0289396D01*
X0247335Y0289457D01*
X0247349Y0289518D01*
X0247366Y0289578D01*
X0247387Y0289637D01*
X0247413Y0289694D01*
X0247441Y0289749D01*
X0247473Y0289803D01*
X0247509Y0289854D01*
X0247547Y0289904D01*
X0247589Y0289950D01*
X0247633Y0289994D01*
X0247681Y0290035D01*
X0247730Y0290073D01*
X0247782Y0290107D01*
X0247836Y0290138D01*
X0247892Y0290166D01*
X0247950Y0290190D01*
X0248009Y0290211D01*
X0248069Y0290227D01*
X0248130Y0290240D01*
X0248192Y0290249D01*
X0248254Y0290254D01*
X0248317Y0290255D01*
X0248379Y0290252D01*
X0248441Y0290245D01*
X0248503Y0290234D01*
X0248563Y0290219D01*
X0248623Y0290201D01*
X0248681Y0290179D01*
X0248738Y0290153D01*
X0248793Y0290123D01*
X0248846Y0290090D01*
X0248897Y0290054D01*
X0248945Y0290015D01*
X0248991Y0289972D01*
X0249034Y0289927D01*
X0249074Y0289879D01*
X0249111Y0289829D01*
X0249145Y0289776D01*
X0249176Y0289722D01*
X0249202Y0289666D01*
X0249226Y0289608D01*
X0249245Y0289548D01*
X0249261Y0289488D01*
X0249273Y0289426D01*
X0249281Y0289365D01*
X0249285Y0289302D01*
X0249285Y0289240D01*
X0249281Y0289177D01*
X0249273Y0289116D01*
X0249261Y0289054D01*
X0249245Y0288994D01*
X0249226Y0288934D01*
X0249202Y0288876D01*
X0249176Y0288820D01*
X0249145Y0288766D01*
X0249111Y0288713D01*
X0249074Y0288663D01*
X0249034Y0288615D01*
X0248991Y0288570D01*
X0248945Y0288527D01*
X0248897Y0288488D01*
X0248846Y0288452D01*
X0248793Y0288419D01*
X0248738Y0288389D01*
X0248681Y0288363D01*
X0248623Y0288341D01*
X0248563Y0288323D01*
X0248503Y0288308D01*
X0248441Y0288297D01*
X0248379Y0288290D01*
X0248317Y0288287D01*
X0248254Y0288288D01*
X0248192Y0288293D01*
X0248130Y0288302D01*
X0248069Y0288315D01*
X0248009Y0288331D01*
X0247950Y0288352D01*
X0247892Y0288376D01*
X0247836Y0288404D01*
X0247782Y0288435D01*
X0247730Y0288469D01*
X0247681Y0288507D01*
X0247633Y0288548D01*
X0247589Y0288592D01*
X0247547Y0288638D01*
X0247509Y0288688D01*
X0247473Y0288739D01*
X0247441Y0288793D01*
X0247413Y0288848D01*
X0247387Y0288905D01*
X0247366Y0288964D01*
X0247349Y0289024D01*
X0247335Y0289085D01*
X0247325Y0289146D01*
X0247319Y0289209D01*
X0247317Y0289271D01*
X0247317Y0292469D02*
X0247319Y0292531D01*
X0247325Y0292594D01*
X0247335Y0292655D01*
X0247349Y0292716D01*
X0247366Y0292776D01*
X0247387Y0292835D01*
X0247413Y0292892D01*
X0247441Y0292947D01*
X0247473Y0293001D01*
X0247509Y0293052D01*
X0247547Y0293102D01*
X0247589Y0293148D01*
X0247633Y0293192D01*
X0247681Y0293233D01*
X0247730Y0293271D01*
X0247782Y0293305D01*
X0247836Y0293336D01*
X0247892Y0293364D01*
X0247950Y0293388D01*
X0248009Y0293409D01*
X0248069Y0293425D01*
X0248130Y0293438D01*
X0248192Y0293447D01*
X0248254Y0293452D01*
X0248317Y0293453D01*
X0248379Y0293450D01*
X0248441Y0293443D01*
X0248503Y0293432D01*
X0248563Y0293417D01*
X0248623Y0293399D01*
X0248681Y0293377D01*
X0248738Y0293351D01*
X0248793Y0293321D01*
X0248846Y0293288D01*
X0248897Y0293252D01*
X0248945Y0293213D01*
X0248991Y0293170D01*
X0249034Y0293125D01*
X0249074Y0293077D01*
X0249111Y0293027D01*
X0249145Y0292974D01*
X0249176Y0292920D01*
X0249202Y0292864D01*
X0249226Y0292806D01*
X0249245Y0292746D01*
X0249261Y0292686D01*
X0249273Y0292624D01*
X0249281Y0292563D01*
X0249285Y0292500D01*
X0249285Y0292438D01*
X0249281Y0292375D01*
X0249273Y0292314D01*
X0249261Y0292252D01*
X0249245Y0292192D01*
X0249226Y0292132D01*
X0249202Y0292074D01*
X0249176Y0292018D01*
X0249145Y0291964D01*
X0249111Y0291911D01*
X0249074Y0291861D01*
X0249034Y0291813D01*
X0248991Y0291768D01*
X0248945Y0291725D01*
X0248897Y0291686D01*
X0248846Y0291650D01*
X0248793Y0291617D01*
X0248738Y0291587D01*
X0248681Y0291561D01*
X0248623Y0291539D01*
X0248563Y0291521D01*
X0248503Y0291506D01*
X0248441Y0291495D01*
X0248379Y0291488D01*
X0248317Y0291485D01*
X0248254Y0291486D01*
X0248192Y0291491D01*
X0248130Y0291500D01*
X0248069Y0291513D01*
X0248009Y0291529D01*
X0247950Y0291550D01*
X0247892Y0291574D01*
X0247836Y0291602D01*
X0247782Y0291633D01*
X0247730Y0291667D01*
X0247681Y0291705D01*
X0247633Y0291746D01*
X0247589Y0291790D01*
X0247547Y0291836D01*
X0247509Y0291886D01*
X0247473Y0291937D01*
X0247441Y0291991D01*
X0247413Y0292046D01*
X0247387Y0292103D01*
X0247366Y0292162D01*
X0247349Y0292222D01*
X0247335Y0292283D01*
X0247325Y0292344D01*
X0247319Y0292407D01*
X0247317Y0292469D01*
X0247317Y0295668D02*
X0247319Y0295730D01*
X0247325Y0295793D01*
X0247335Y0295854D01*
X0247349Y0295915D01*
X0247366Y0295975D01*
X0247387Y0296034D01*
X0247413Y0296091D01*
X0247441Y0296146D01*
X0247473Y0296200D01*
X0247509Y0296251D01*
X0247547Y0296301D01*
X0247589Y0296347D01*
X0247633Y0296391D01*
X0247681Y0296432D01*
X0247730Y0296470D01*
X0247782Y0296504D01*
X0247836Y0296535D01*
X0247892Y0296563D01*
X0247950Y0296587D01*
X0248009Y0296608D01*
X0248069Y0296624D01*
X0248130Y0296637D01*
X0248192Y0296646D01*
X0248254Y0296651D01*
X0248317Y0296652D01*
X0248379Y0296649D01*
X0248441Y0296642D01*
X0248503Y0296631D01*
X0248563Y0296616D01*
X0248623Y0296598D01*
X0248681Y0296576D01*
X0248738Y0296550D01*
X0248793Y0296520D01*
X0248846Y0296487D01*
X0248897Y0296451D01*
X0248945Y0296412D01*
X0248991Y0296369D01*
X0249034Y0296324D01*
X0249074Y0296276D01*
X0249111Y0296226D01*
X0249145Y0296173D01*
X0249176Y0296119D01*
X0249202Y0296063D01*
X0249226Y0296005D01*
X0249245Y0295945D01*
X0249261Y0295885D01*
X0249273Y0295823D01*
X0249281Y0295762D01*
X0249285Y0295699D01*
X0249285Y0295637D01*
X0249281Y0295574D01*
X0249273Y0295513D01*
X0249261Y0295451D01*
X0249245Y0295391D01*
X0249226Y0295331D01*
X0249202Y0295273D01*
X0249176Y0295217D01*
X0249145Y0295163D01*
X0249111Y0295110D01*
X0249074Y0295060D01*
X0249034Y0295012D01*
X0248991Y0294967D01*
X0248945Y0294924D01*
X0248897Y0294885D01*
X0248846Y0294849D01*
X0248793Y0294816D01*
X0248738Y0294786D01*
X0248681Y0294760D01*
X0248623Y0294738D01*
X0248563Y0294720D01*
X0248503Y0294705D01*
X0248441Y0294694D01*
X0248379Y0294687D01*
X0248317Y0294684D01*
X0248254Y0294685D01*
X0248192Y0294690D01*
X0248130Y0294699D01*
X0248069Y0294712D01*
X0248009Y0294728D01*
X0247950Y0294749D01*
X0247892Y0294773D01*
X0247836Y0294801D01*
X0247782Y0294832D01*
X0247730Y0294866D01*
X0247681Y0294904D01*
X0247633Y0294945D01*
X0247589Y0294989D01*
X0247547Y0295035D01*
X0247509Y0295085D01*
X0247473Y0295136D01*
X0247441Y0295190D01*
X0247413Y0295245D01*
X0247387Y0295302D01*
X0247366Y0295361D01*
X0247349Y0295421D01*
X0247335Y0295482D01*
X0247325Y0295543D01*
X0247319Y0295606D01*
X0247317Y0295668D01*
X0250516Y0295668D02*
X0250518Y0295730D01*
X0250524Y0295793D01*
X0250534Y0295854D01*
X0250548Y0295915D01*
X0250565Y0295975D01*
X0250586Y0296034D01*
X0250612Y0296091D01*
X0250640Y0296146D01*
X0250672Y0296200D01*
X0250708Y0296251D01*
X0250746Y0296301D01*
X0250788Y0296347D01*
X0250832Y0296391D01*
X0250880Y0296432D01*
X0250929Y0296470D01*
X0250981Y0296504D01*
X0251035Y0296535D01*
X0251091Y0296563D01*
X0251149Y0296587D01*
X0251208Y0296608D01*
X0251268Y0296624D01*
X0251329Y0296637D01*
X0251391Y0296646D01*
X0251453Y0296651D01*
X0251516Y0296652D01*
X0251578Y0296649D01*
X0251640Y0296642D01*
X0251702Y0296631D01*
X0251762Y0296616D01*
X0251822Y0296598D01*
X0251880Y0296576D01*
X0251937Y0296550D01*
X0251992Y0296520D01*
X0252045Y0296487D01*
X0252096Y0296451D01*
X0252144Y0296412D01*
X0252190Y0296369D01*
X0252233Y0296324D01*
X0252273Y0296276D01*
X0252310Y0296226D01*
X0252344Y0296173D01*
X0252375Y0296119D01*
X0252401Y0296063D01*
X0252425Y0296005D01*
X0252444Y0295945D01*
X0252460Y0295885D01*
X0252472Y0295823D01*
X0252480Y0295762D01*
X0252484Y0295699D01*
X0252484Y0295637D01*
X0252480Y0295574D01*
X0252472Y0295513D01*
X0252460Y0295451D01*
X0252444Y0295391D01*
X0252425Y0295331D01*
X0252401Y0295273D01*
X0252375Y0295217D01*
X0252344Y0295163D01*
X0252310Y0295110D01*
X0252273Y0295060D01*
X0252233Y0295012D01*
X0252190Y0294967D01*
X0252144Y0294924D01*
X0252096Y0294885D01*
X0252045Y0294849D01*
X0251992Y0294816D01*
X0251937Y0294786D01*
X0251880Y0294760D01*
X0251822Y0294738D01*
X0251762Y0294720D01*
X0251702Y0294705D01*
X0251640Y0294694D01*
X0251578Y0294687D01*
X0251516Y0294684D01*
X0251453Y0294685D01*
X0251391Y0294690D01*
X0251329Y0294699D01*
X0251268Y0294712D01*
X0251208Y0294728D01*
X0251149Y0294749D01*
X0251091Y0294773D01*
X0251035Y0294801D01*
X0250981Y0294832D01*
X0250929Y0294866D01*
X0250880Y0294904D01*
X0250832Y0294945D01*
X0250788Y0294989D01*
X0250746Y0295035D01*
X0250708Y0295085D01*
X0250672Y0295136D01*
X0250640Y0295190D01*
X0250612Y0295245D01*
X0250586Y0295302D01*
X0250565Y0295361D01*
X0250548Y0295421D01*
X0250534Y0295482D01*
X0250524Y0295543D01*
X0250518Y0295606D01*
X0250516Y0295668D01*
X0250516Y0292469D02*
X0250518Y0292531D01*
X0250524Y0292594D01*
X0250534Y0292655D01*
X0250548Y0292716D01*
X0250565Y0292776D01*
X0250586Y0292835D01*
X0250612Y0292892D01*
X0250640Y0292947D01*
X0250672Y0293001D01*
X0250708Y0293052D01*
X0250746Y0293102D01*
X0250788Y0293148D01*
X0250832Y0293192D01*
X0250880Y0293233D01*
X0250929Y0293271D01*
X0250981Y0293305D01*
X0251035Y0293336D01*
X0251091Y0293364D01*
X0251149Y0293388D01*
X0251208Y0293409D01*
X0251268Y0293425D01*
X0251329Y0293438D01*
X0251391Y0293447D01*
X0251453Y0293452D01*
X0251516Y0293453D01*
X0251578Y0293450D01*
X0251640Y0293443D01*
X0251702Y0293432D01*
X0251762Y0293417D01*
X0251822Y0293399D01*
X0251880Y0293377D01*
X0251937Y0293351D01*
X0251992Y0293321D01*
X0252045Y0293288D01*
X0252096Y0293252D01*
X0252144Y0293213D01*
X0252190Y0293170D01*
X0252233Y0293125D01*
X0252273Y0293077D01*
X0252310Y0293027D01*
X0252344Y0292974D01*
X0252375Y0292920D01*
X0252401Y0292864D01*
X0252425Y0292806D01*
X0252444Y0292746D01*
X0252460Y0292686D01*
X0252472Y0292624D01*
X0252480Y0292563D01*
X0252484Y0292500D01*
X0252484Y0292438D01*
X0252480Y0292375D01*
X0252472Y0292314D01*
X0252460Y0292252D01*
X0252444Y0292192D01*
X0252425Y0292132D01*
X0252401Y0292074D01*
X0252375Y0292018D01*
X0252344Y0291964D01*
X0252310Y0291911D01*
X0252273Y0291861D01*
X0252233Y0291813D01*
X0252190Y0291768D01*
X0252144Y0291725D01*
X0252096Y0291686D01*
X0252045Y0291650D01*
X0251992Y0291617D01*
X0251937Y0291587D01*
X0251880Y0291561D01*
X0251822Y0291539D01*
X0251762Y0291521D01*
X0251702Y0291506D01*
X0251640Y0291495D01*
X0251578Y0291488D01*
X0251516Y0291485D01*
X0251453Y0291486D01*
X0251391Y0291491D01*
X0251329Y0291500D01*
X0251268Y0291513D01*
X0251208Y0291529D01*
X0251149Y0291550D01*
X0251091Y0291574D01*
X0251035Y0291602D01*
X0250981Y0291633D01*
X0250929Y0291667D01*
X0250880Y0291705D01*
X0250832Y0291746D01*
X0250788Y0291790D01*
X0250746Y0291836D01*
X0250708Y0291886D01*
X0250672Y0291937D01*
X0250640Y0291991D01*
X0250612Y0292046D01*
X0250586Y0292103D01*
X0250565Y0292162D01*
X0250548Y0292222D01*
X0250534Y0292283D01*
X0250524Y0292344D01*
X0250518Y0292407D01*
X0250516Y0292469D01*
X0253715Y0292469D02*
X0253717Y0292531D01*
X0253723Y0292594D01*
X0253733Y0292655D01*
X0253747Y0292716D01*
X0253764Y0292776D01*
X0253785Y0292835D01*
X0253811Y0292892D01*
X0253839Y0292947D01*
X0253871Y0293001D01*
X0253907Y0293052D01*
X0253945Y0293102D01*
X0253987Y0293148D01*
X0254031Y0293192D01*
X0254079Y0293233D01*
X0254128Y0293271D01*
X0254180Y0293305D01*
X0254234Y0293336D01*
X0254290Y0293364D01*
X0254348Y0293388D01*
X0254407Y0293409D01*
X0254467Y0293425D01*
X0254528Y0293438D01*
X0254590Y0293447D01*
X0254652Y0293452D01*
X0254715Y0293453D01*
X0254777Y0293450D01*
X0254839Y0293443D01*
X0254901Y0293432D01*
X0254961Y0293417D01*
X0255021Y0293399D01*
X0255079Y0293377D01*
X0255136Y0293351D01*
X0255191Y0293321D01*
X0255244Y0293288D01*
X0255295Y0293252D01*
X0255343Y0293213D01*
X0255389Y0293170D01*
X0255432Y0293125D01*
X0255472Y0293077D01*
X0255509Y0293027D01*
X0255543Y0292974D01*
X0255574Y0292920D01*
X0255600Y0292864D01*
X0255624Y0292806D01*
X0255643Y0292746D01*
X0255659Y0292686D01*
X0255671Y0292624D01*
X0255679Y0292563D01*
X0255683Y0292500D01*
X0255683Y0292438D01*
X0255679Y0292375D01*
X0255671Y0292314D01*
X0255659Y0292252D01*
X0255643Y0292192D01*
X0255624Y0292132D01*
X0255600Y0292074D01*
X0255574Y0292018D01*
X0255543Y0291964D01*
X0255509Y0291911D01*
X0255472Y0291861D01*
X0255432Y0291813D01*
X0255389Y0291768D01*
X0255343Y0291725D01*
X0255295Y0291686D01*
X0255244Y0291650D01*
X0255191Y0291617D01*
X0255136Y0291587D01*
X0255079Y0291561D01*
X0255021Y0291539D01*
X0254961Y0291521D01*
X0254901Y0291506D01*
X0254839Y0291495D01*
X0254777Y0291488D01*
X0254715Y0291485D01*
X0254652Y0291486D01*
X0254590Y0291491D01*
X0254528Y0291500D01*
X0254467Y0291513D01*
X0254407Y0291529D01*
X0254348Y0291550D01*
X0254290Y0291574D01*
X0254234Y0291602D01*
X0254180Y0291633D01*
X0254128Y0291667D01*
X0254079Y0291705D01*
X0254031Y0291746D01*
X0253987Y0291790D01*
X0253945Y0291836D01*
X0253907Y0291886D01*
X0253871Y0291937D01*
X0253839Y0291991D01*
X0253811Y0292046D01*
X0253785Y0292103D01*
X0253764Y0292162D01*
X0253747Y0292222D01*
X0253733Y0292283D01*
X0253723Y0292344D01*
X0253717Y0292407D01*
X0253715Y0292469D01*
X0253715Y0295668D02*
X0253717Y0295730D01*
X0253723Y0295793D01*
X0253733Y0295854D01*
X0253747Y0295915D01*
X0253764Y0295975D01*
X0253785Y0296034D01*
X0253811Y0296091D01*
X0253839Y0296146D01*
X0253871Y0296200D01*
X0253907Y0296251D01*
X0253945Y0296301D01*
X0253987Y0296347D01*
X0254031Y0296391D01*
X0254079Y0296432D01*
X0254128Y0296470D01*
X0254180Y0296504D01*
X0254234Y0296535D01*
X0254290Y0296563D01*
X0254348Y0296587D01*
X0254407Y0296608D01*
X0254467Y0296624D01*
X0254528Y0296637D01*
X0254590Y0296646D01*
X0254652Y0296651D01*
X0254715Y0296652D01*
X0254777Y0296649D01*
X0254839Y0296642D01*
X0254901Y0296631D01*
X0254961Y0296616D01*
X0255021Y0296598D01*
X0255079Y0296576D01*
X0255136Y0296550D01*
X0255191Y0296520D01*
X0255244Y0296487D01*
X0255295Y0296451D01*
X0255343Y0296412D01*
X0255389Y0296369D01*
X0255432Y0296324D01*
X0255472Y0296276D01*
X0255509Y0296226D01*
X0255543Y0296173D01*
X0255574Y0296119D01*
X0255600Y0296063D01*
X0255624Y0296005D01*
X0255643Y0295945D01*
X0255659Y0295885D01*
X0255671Y0295823D01*
X0255679Y0295762D01*
X0255683Y0295699D01*
X0255683Y0295637D01*
X0255679Y0295574D01*
X0255671Y0295513D01*
X0255659Y0295451D01*
X0255643Y0295391D01*
X0255624Y0295331D01*
X0255600Y0295273D01*
X0255574Y0295217D01*
X0255543Y0295163D01*
X0255509Y0295110D01*
X0255472Y0295060D01*
X0255432Y0295012D01*
X0255389Y0294967D01*
X0255343Y0294924D01*
X0255295Y0294885D01*
X0255244Y0294849D01*
X0255191Y0294816D01*
X0255136Y0294786D01*
X0255079Y0294760D01*
X0255021Y0294738D01*
X0254961Y0294720D01*
X0254901Y0294705D01*
X0254839Y0294694D01*
X0254777Y0294687D01*
X0254715Y0294684D01*
X0254652Y0294685D01*
X0254590Y0294690D01*
X0254528Y0294699D01*
X0254467Y0294712D01*
X0254407Y0294728D01*
X0254348Y0294749D01*
X0254290Y0294773D01*
X0254234Y0294801D01*
X0254180Y0294832D01*
X0254128Y0294866D01*
X0254079Y0294904D01*
X0254031Y0294945D01*
X0253987Y0294989D01*
X0253945Y0295035D01*
X0253907Y0295085D01*
X0253871Y0295136D01*
X0253839Y0295190D01*
X0253811Y0295245D01*
X0253785Y0295302D01*
X0253764Y0295361D01*
X0253747Y0295421D01*
X0253733Y0295482D01*
X0253723Y0295543D01*
X0253717Y0295606D01*
X0253715Y0295668D01*
X0323941Y0349925D02*
X0323943Y0350083D01*
X0323949Y0350241D01*
X0323959Y0350399D01*
X0323973Y0350557D01*
X0323991Y0350714D01*
X0324012Y0350871D01*
X0324038Y0351027D01*
X0324068Y0351183D01*
X0324101Y0351338D01*
X0324139Y0351491D01*
X0324180Y0351644D01*
X0324225Y0351796D01*
X0324274Y0351947D01*
X0324327Y0352096D01*
X0324383Y0352244D01*
X0324443Y0352390D01*
X0324507Y0352535D01*
X0324575Y0352678D01*
X0324646Y0352820D01*
X0324720Y0352960D01*
X0324798Y0353097D01*
X0324880Y0353233D01*
X0324964Y0353367D01*
X0325053Y0353498D01*
X0325144Y0353627D01*
X0325239Y0353754D01*
X0325336Y0353879D01*
X0325437Y0354001D01*
X0325541Y0354120D01*
X0325648Y0354237D01*
X0325758Y0354351D01*
X0325871Y0354462D01*
X0325986Y0354571D01*
X0326104Y0354676D01*
X0326225Y0354778D01*
X0326348Y0354878D01*
X0326474Y0354974D01*
X0326602Y0355067D01*
X0326732Y0355157D01*
X0326865Y0355243D01*
X0327000Y0355327D01*
X0327136Y0355406D01*
X0327275Y0355483D01*
X0327416Y0355555D01*
X0327558Y0355625D01*
X0327702Y0355690D01*
X0327848Y0355752D01*
X0327995Y0355810D01*
X0328144Y0355865D01*
X0328294Y0355916D01*
X0328445Y0355963D01*
X0328597Y0356006D01*
X0328750Y0356045D01*
X0328905Y0356081D01*
X0329060Y0356112D01*
X0329216Y0356140D01*
X0329372Y0356164D01*
X0329529Y0356184D01*
X0329687Y0356200D01*
X0329844Y0356212D01*
X0330003Y0356220D01*
X0330161Y0356224D01*
X0330319Y0356224D01*
X0330477Y0356220D01*
X0330636Y0356212D01*
X0330793Y0356200D01*
X0330951Y0356184D01*
X0331108Y0356164D01*
X0331264Y0356140D01*
X0331420Y0356112D01*
X0331575Y0356081D01*
X0331730Y0356045D01*
X0331883Y0356006D01*
X0332035Y0355963D01*
X0332186Y0355916D01*
X0332336Y0355865D01*
X0332485Y0355810D01*
X0332632Y0355752D01*
X0332778Y0355690D01*
X0332922Y0355625D01*
X0333064Y0355555D01*
X0333205Y0355483D01*
X0333344Y0355406D01*
X0333480Y0355327D01*
X0333615Y0355243D01*
X0333748Y0355157D01*
X0333878Y0355067D01*
X0334006Y0354974D01*
X0334132Y0354878D01*
X0334255Y0354778D01*
X0334376Y0354676D01*
X0334494Y0354571D01*
X0334609Y0354462D01*
X0334722Y0354351D01*
X0334832Y0354237D01*
X0334939Y0354120D01*
X0335043Y0354001D01*
X0335144Y0353879D01*
X0335241Y0353754D01*
X0335336Y0353627D01*
X0335427Y0353498D01*
X0335516Y0353367D01*
X0335600Y0353233D01*
X0335682Y0353097D01*
X0335760Y0352960D01*
X0335834Y0352820D01*
X0335905Y0352678D01*
X0335973Y0352535D01*
X0336037Y0352390D01*
X0336097Y0352244D01*
X0336153Y0352096D01*
X0336206Y0351947D01*
X0336255Y0351796D01*
X0336300Y0351644D01*
X0336341Y0351491D01*
X0336379Y0351338D01*
X0336412Y0351183D01*
X0336442Y0351027D01*
X0336468Y0350871D01*
X0336489Y0350714D01*
X0336507Y0350557D01*
X0336521Y0350399D01*
X0336531Y0350241D01*
X0336537Y0350083D01*
X0336539Y0349925D01*
X0336537Y0349767D01*
X0336531Y0349609D01*
X0336521Y0349451D01*
X0336507Y0349293D01*
X0336489Y0349136D01*
X0336468Y0348979D01*
X0336442Y0348823D01*
X0336412Y0348667D01*
X0336379Y0348512D01*
X0336341Y0348359D01*
X0336300Y0348206D01*
X0336255Y0348054D01*
X0336206Y0347903D01*
X0336153Y0347754D01*
X0336097Y0347606D01*
X0336037Y0347460D01*
X0335973Y0347315D01*
X0335905Y0347172D01*
X0335834Y0347030D01*
X0335760Y0346890D01*
X0335682Y0346753D01*
X0335600Y0346617D01*
X0335516Y0346483D01*
X0335427Y0346352D01*
X0335336Y0346223D01*
X0335241Y0346096D01*
X0335144Y0345971D01*
X0335043Y0345849D01*
X0334939Y0345730D01*
X0334832Y0345613D01*
X0334722Y0345499D01*
X0334609Y0345388D01*
X0334494Y0345279D01*
X0334376Y0345174D01*
X0334255Y0345072D01*
X0334132Y0344972D01*
X0334006Y0344876D01*
X0333878Y0344783D01*
X0333748Y0344693D01*
X0333615Y0344607D01*
X0333480Y0344523D01*
X0333344Y0344444D01*
X0333205Y0344367D01*
X0333064Y0344295D01*
X0332922Y0344225D01*
X0332778Y0344160D01*
X0332632Y0344098D01*
X0332485Y0344040D01*
X0332336Y0343985D01*
X0332186Y0343934D01*
X0332035Y0343887D01*
X0331883Y0343844D01*
X0331730Y0343805D01*
X0331575Y0343769D01*
X0331420Y0343738D01*
X0331264Y0343710D01*
X0331108Y0343686D01*
X0330951Y0343666D01*
X0330793Y0343650D01*
X0330636Y0343638D01*
X0330477Y0343630D01*
X0330319Y0343626D01*
X0330161Y0343626D01*
X0330003Y0343630D01*
X0329844Y0343638D01*
X0329687Y0343650D01*
X0329529Y0343666D01*
X0329372Y0343686D01*
X0329216Y0343710D01*
X0329060Y0343738D01*
X0328905Y0343769D01*
X0328750Y0343805D01*
X0328597Y0343844D01*
X0328445Y0343887D01*
X0328294Y0343934D01*
X0328144Y0343985D01*
X0327995Y0344040D01*
X0327848Y0344098D01*
X0327702Y0344160D01*
X0327558Y0344225D01*
X0327416Y0344295D01*
X0327275Y0344367D01*
X0327136Y0344444D01*
X0327000Y0344523D01*
X0326865Y0344607D01*
X0326732Y0344693D01*
X0326602Y0344783D01*
X0326474Y0344876D01*
X0326348Y0344972D01*
X0326225Y0345072D01*
X0326104Y0345174D01*
X0325986Y0345279D01*
X0325871Y0345388D01*
X0325758Y0345499D01*
X0325648Y0345613D01*
X0325541Y0345730D01*
X0325437Y0345849D01*
X0325336Y0345971D01*
X0325239Y0346096D01*
X0325144Y0346223D01*
X0325053Y0346352D01*
X0324964Y0346483D01*
X0324880Y0346617D01*
X0324798Y0346753D01*
X0324720Y0346890D01*
X0324646Y0347030D01*
X0324575Y0347172D01*
X0324507Y0347315D01*
X0324443Y0347460D01*
X0324383Y0347606D01*
X0324327Y0347754D01*
X0324274Y0347903D01*
X0324225Y0348054D01*
X0324180Y0348206D01*
X0324139Y0348359D01*
X0324101Y0348512D01*
X0324068Y0348667D01*
X0324038Y0348823D01*
X0324012Y0348979D01*
X0323991Y0349136D01*
X0323973Y0349293D01*
X0323959Y0349451D01*
X0323949Y0349609D01*
X0323943Y0349767D01*
X0323941Y0349925D01*
X0096235Y0295668D02*
X0096237Y0295730D01*
X0096243Y0295793D01*
X0096253Y0295854D01*
X0096267Y0295915D01*
X0096284Y0295975D01*
X0096305Y0296034D01*
X0096331Y0296091D01*
X0096359Y0296146D01*
X0096391Y0296200D01*
X0096427Y0296251D01*
X0096465Y0296301D01*
X0096507Y0296347D01*
X0096551Y0296391D01*
X0096599Y0296432D01*
X0096648Y0296470D01*
X0096700Y0296504D01*
X0096754Y0296535D01*
X0096810Y0296563D01*
X0096868Y0296587D01*
X0096927Y0296608D01*
X0096987Y0296624D01*
X0097048Y0296637D01*
X0097110Y0296646D01*
X0097172Y0296651D01*
X0097235Y0296652D01*
X0097297Y0296649D01*
X0097359Y0296642D01*
X0097421Y0296631D01*
X0097481Y0296616D01*
X0097541Y0296598D01*
X0097599Y0296576D01*
X0097656Y0296550D01*
X0097711Y0296520D01*
X0097764Y0296487D01*
X0097815Y0296451D01*
X0097863Y0296412D01*
X0097909Y0296369D01*
X0097952Y0296324D01*
X0097992Y0296276D01*
X0098029Y0296226D01*
X0098063Y0296173D01*
X0098094Y0296119D01*
X0098120Y0296063D01*
X0098144Y0296005D01*
X0098163Y0295945D01*
X0098179Y0295885D01*
X0098191Y0295823D01*
X0098199Y0295762D01*
X0098203Y0295699D01*
X0098203Y0295637D01*
X0098199Y0295574D01*
X0098191Y0295513D01*
X0098179Y0295451D01*
X0098163Y0295391D01*
X0098144Y0295331D01*
X0098120Y0295273D01*
X0098094Y0295217D01*
X0098063Y0295163D01*
X0098029Y0295110D01*
X0097992Y0295060D01*
X0097952Y0295012D01*
X0097909Y0294967D01*
X0097863Y0294924D01*
X0097815Y0294885D01*
X0097764Y0294849D01*
X0097711Y0294816D01*
X0097656Y0294786D01*
X0097599Y0294760D01*
X0097541Y0294738D01*
X0097481Y0294720D01*
X0097421Y0294705D01*
X0097359Y0294694D01*
X0097297Y0294687D01*
X0097235Y0294684D01*
X0097172Y0294685D01*
X0097110Y0294690D01*
X0097048Y0294699D01*
X0096987Y0294712D01*
X0096927Y0294728D01*
X0096868Y0294749D01*
X0096810Y0294773D01*
X0096754Y0294801D01*
X0096700Y0294832D01*
X0096648Y0294866D01*
X0096599Y0294904D01*
X0096551Y0294945D01*
X0096507Y0294989D01*
X0096465Y0295035D01*
X0096427Y0295085D01*
X0096391Y0295136D01*
X0096359Y0295190D01*
X0096331Y0295245D01*
X0096305Y0295302D01*
X0096284Y0295361D01*
X0096267Y0295421D01*
X0096253Y0295482D01*
X0096243Y0295543D01*
X0096237Y0295606D01*
X0096235Y0295668D01*
X0093036Y0295668D02*
X0093038Y0295730D01*
X0093044Y0295793D01*
X0093054Y0295854D01*
X0093068Y0295915D01*
X0093085Y0295975D01*
X0093106Y0296034D01*
X0093132Y0296091D01*
X0093160Y0296146D01*
X0093192Y0296200D01*
X0093228Y0296251D01*
X0093266Y0296301D01*
X0093308Y0296347D01*
X0093352Y0296391D01*
X0093400Y0296432D01*
X0093449Y0296470D01*
X0093501Y0296504D01*
X0093555Y0296535D01*
X0093611Y0296563D01*
X0093669Y0296587D01*
X0093728Y0296608D01*
X0093788Y0296624D01*
X0093849Y0296637D01*
X0093911Y0296646D01*
X0093973Y0296651D01*
X0094036Y0296652D01*
X0094098Y0296649D01*
X0094160Y0296642D01*
X0094222Y0296631D01*
X0094282Y0296616D01*
X0094342Y0296598D01*
X0094400Y0296576D01*
X0094457Y0296550D01*
X0094512Y0296520D01*
X0094565Y0296487D01*
X0094616Y0296451D01*
X0094664Y0296412D01*
X0094710Y0296369D01*
X0094753Y0296324D01*
X0094793Y0296276D01*
X0094830Y0296226D01*
X0094864Y0296173D01*
X0094895Y0296119D01*
X0094921Y0296063D01*
X0094945Y0296005D01*
X0094964Y0295945D01*
X0094980Y0295885D01*
X0094992Y0295823D01*
X0095000Y0295762D01*
X0095004Y0295699D01*
X0095004Y0295637D01*
X0095000Y0295574D01*
X0094992Y0295513D01*
X0094980Y0295451D01*
X0094964Y0295391D01*
X0094945Y0295331D01*
X0094921Y0295273D01*
X0094895Y0295217D01*
X0094864Y0295163D01*
X0094830Y0295110D01*
X0094793Y0295060D01*
X0094753Y0295012D01*
X0094710Y0294967D01*
X0094664Y0294924D01*
X0094616Y0294885D01*
X0094565Y0294849D01*
X0094512Y0294816D01*
X0094457Y0294786D01*
X0094400Y0294760D01*
X0094342Y0294738D01*
X0094282Y0294720D01*
X0094222Y0294705D01*
X0094160Y0294694D01*
X0094098Y0294687D01*
X0094036Y0294684D01*
X0093973Y0294685D01*
X0093911Y0294690D01*
X0093849Y0294699D01*
X0093788Y0294712D01*
X0093728Y0294728D01*
X0093669Y0294749D01*
X0093611Y0294773D01*
X0093555Y0294801D01*
X0093501Y0294832D01*
X0093449Y0294866D01*
X0093400Y0294904D01*
X0093352Y0294945D01*
X0093308Y0294989D01*
X0093266Y0295035D01*
X0093228Y0295085D01*
X0093192Y0295136D01*
X0093160Y0295190D01*
X0093132Y0295245D01*
X0093106Y0295302D01*
X0093085Y0295361D01*
X0093068Y0295421D01*
X0093054Y0295482D01*
X0093044Y0295543D01*
X0093038Y0295606D01*
X0093036Y0295668D01*
X0089837Y0295668D02*
X0089839Y0295730D01*
X0089845Y0295793D01*
X0089855Y0295854D01*
X0089869Y0295915D01*
X0089886Y0295975D01*
X0089907Y0296034D01*
X0089933Y0296091D01*
X0089961Y0296146D01*
X0089993Y0296200D01*
X0090029Y0296251D01*
X0090067Y0296301D01*
X0090109Y0296347D01*
X0090153Y0296391D01*
X0090201Y0296432D01*
X0090250Y0296470D01*
X0090302Y0296504D01*
X0090356Y0296535D01*
X0090412Y0296563D01*
X0090470Y0296587D01*
X0090529Y0296608D01*
X0090589Y0296624D01*
X0090650Y0296637D01*
X0090712Y0296646D01*
X0090774Y0296651D01*
X0090837Y0296652D01*
X0090899Y0296649D01*
X0090961Y0296642D01*
X0091023Y0296631D01*
X0091083Y0296616D01*
X0091143Y0296598D01*
X0091201Y0296576D01*
X0091258Y0296550D01*
X0091313Y0296520D01*
X0091366Y0296487D01*
X0091417Y0296451D01*
X0091465Y0296412D01*
X0091511Y0296369D01*
X0091554Y0296324D01*
X0091594Y0296276D01*
X0091631Y0296226D01*
X0091665Y0296173D01*
X0091696Y0296119D01*
X0091722Y0296063D01*
X0091746Y0296005D01*
X0091765Y0295945D01*
X0091781Y0295885D01*
X0091793Y0295823D01*
X0091801Y0295762D01*
X0091805Y0295699D01*
X0091805Y0295637D01*
X0091801Y0295574D01*
X0091793Y0295513D01*
X0091781Y0295451D01*
X0091765Y0295391D01*
X0091746Y0295331D01*
X0091722Y0295273D01*
X0091696Y0295217D01*
X0091665Y0295163D01*
X0091631Y0295110D01*
X0091594Y0295060D01*
X0091554Y0295012D01*
X0091511Y0294967D01*
X0091465Y0294924D01*
X0091417Y0294885D01*
X0091366Y0294849D01*
X0091313Y0294816D01*
X0091258Y0294786D01*
X0091201Y0294760D01*
X0091143Y0294738D01*
X0091083Y0294720D01*
X0091023Y0294705D01*
X0090961Y0294694D01*
X0090899Y0294687D01*
X0090837Y0294684D01*
X0090774Y0294685D01*
X0090712Y0294690D01*
X0090650Y0294699D01*
X0090589Y0294712D01*
X0090529Y0294728D01*
X0090470Y0294749D01*
X0090412Y0294773D01*
X0090356Y0294801D01*
X0090302Y0294832D01*
X0090250Y0294866D01*
X0090201Y0294904D01*
X0090153Y0294945D01*
X0090109Y0294989D01*
X0090067Y0295035D01*
X0090029Y0295085D01*
X0089993Y0295136D01*
X0089961Y0295190D01*
X0089933Y0295245D01*
X0089907Y0295302D01*
X0089886Y0295361D01*
X0089869Y0295421D01*
X0089855Y0295482D01*
X0089845Y0295543D01*
X0089839Y0295606D01*
X0089837Y0295668D01*
X0089837Y0292469D02*
X0089839Y0292531D01*
X0089845Y0292594D01*
X0089855Y0292655D01*
X0089869Y0292716D01*
X0089886Y0292776D01*
X0089907Y0292835D01*
X0089933Y0292892D01*
X0089961Y0292947D01*
X0089993Y0293001D01*
X0090029Y0293052D01*
X0090067Y0293102D01*
X0090109Y0293148D01*
X0090153Y0293192D01*
X0090201Y0293233D01*
X0090250Y0293271D01*
X0090302Y0293305D01*
X0090356Y0293336D01*
X0090412Y0293364D01*
X0090470Y0293388D01*
X0090529Y0293409D01*
X0090589Y0293425D01*
X0090650Y0293438D01*
X0090712Y0293447D01*
X0090774Y0293452D01*
X0090837Y0293453D01*
X0090899Y0293450D01*
X0090961Y0293443D01*
X0091023Y0293432D01*
X0091083Y0293417D01*
X0091143Y0293399D01*
X0091201Y0293377D01*
X0091258Y0293351D01*
X0091313Y0293321D01*
X0091366Y0293288D01*
X0091417Y0293252D01*
X0091465Y0293213D01*
X0091511Y0293170D01*
X0091554Y0293125D01*
X0091594Y0293077D01*
X0091631Y0293027D01*
X0091665Y0292974D01*
X0091696Y0292920D01*
X0091722Y0292864D01*
X0091746Y0292806D01*
X0091765Y0292746D01*
X0091781Y0292686D01*
X0091793Y0292624D01*
X0091801Y0292563D01*
X0091805Y0292500D01*
X0091805Y0292438D01*
X0091801Y0292375D01*
X0091793Y0292314D01*
X0091781Y0292252D01*
X0091765Y0292192D01*
X0091746Y0292132D01*
X0091722Y0292074D01*
X0091696Y0292018D01*
X0091665Y0291964D01*
X0091631Y0291911D01*
X0091594Y0291861D01*
X0091554Y0291813D01*
X0091511Y0291768D01*
X0091465Y0291725D01*
X0091417Y0291686D01*
X0091366Y0291650D01*
X0091313Y0291617D01*
X0091258Y0291587D01*
X0091201Y0291561D01*
X0091143Y0291539D01*
X0091083Y0291521D01*
X0091023Y0291506D01*
X0090961Y0291495D01*
X0090899Y0291488D01*
X0090837Y0291485D01*
X0090774Y0291486D01*
X0090712Y0291491D01*
X0090650Y0291500D01*
X0090589Y0291513D01*
X0090529Y0291529D01*
X0090470Y0291550D01*
X0090412Y0291574D01*
X0090356Y0291602D01*
X0090302Y0291633D01*
X0090250Y0291667D01*
X0090201Y0291705D01*
X0090153Y0291746D01*
X0090109Y0291790D01*
X0090067Y0291836D01*
X0090029Y0291886D01*
X0089993Y0291937D01*
X0089961Y0291991D01*
X0089933Y0292046D01*
X0089907Y0292103D01*
X0089886Y0292162D01*
X0089869Y0292222D01*
X0089855Y0292283D01*
X0089845Y0292344D01*
X0089839Y0292407D01*
X0089837Y0292469D01*
X0089837Y0289271D02*
X0089839Y0289333D01*
X0089845Y0289396D01*
X0089855Y0289457D01*
X0089869Y0289518D01*
X0089886Y0289578D01*
X0089907Y0289637D01*
X0089933Y0289694D01*
X0089961Y0289749D01*
X0089993Y0289803D01*
X0090029Y0289854D01*
X0090067Y0289904D01*
X0090109Y0289950D01*
X0090153Y0289994D01*
X0090201Y0290035D01*
X0090250Y0290073D01*
X0090302Y0290107D01*
X0090356Y0290138D01*
X0090412Y0290166D01*
X0090470Y0290190D01*
X0090529Y0290211D01*
X0090589Y0290227D01*
X0090650Y0290240D01*
X0090712Y0290249D01*
X0090774Y0290254D01*
X0090837Y0290255D01*
X0090899Y0290252D01*
X0090961Y0290245D01*
X0091023Y0290234D01*
X0091083Y0290219D01*
X0091143Y0290201D01*
X0091201Y0290179D01*
X0091258Y0290153D01*
X0091313Y0290123D01*
X0091366Y0290090D01*
X0091417Y0290054D01*
X0091465Y0290015D01*
X0091511Y0289972D01*
X0091554Y0289927D01*
X0091594Y0289879D01*
X0091631Y0289829D01*
X0091665Y0289776D01*
X0091696Y0289722D01*
X0091722Y0289666D01*
X0091746Y0289608D01*
X0091765Y0289548D01*
X0091781Y0289488D01*
X0091793Y0289426D01*
X0091801Y0289365D01*
X0091805Y0289302D01*
X0091805Y0289240D01*
X0091801Y0289177D01*
X0091793Y0289116D01*
X0091781Y0289054D01*
X0091765Y0288994D01*
X0091746Y0288934D01*
X0091722Y0288876D01*
X0091696Y0288820D01*
X0091665Y0288766D01*
X0091631Y0288713D01*
X0091594Y0288663D01*
X0091554Y0288615D01*
X0091511Y0288570D01*
X0091465Y0288527D01*
X0091417Y0288488D01*
X0091366Y0288452D01*
X0091313Y0288419D01*
X0091258Y0288389D01*
X0091201Y0288363D01*
X0091143Y0288341D01*
X0091083Y0288323D01*
X0091023Y0288308D01*
X0090961Y0288297D01*
X0090899Y0288290D01*
X0090837Y0288287D01*
X0090774Y0288288D01*
X0090712Y0288293D01*
X0090650Y0288302D01*
X0090589Y0288315D01*
X0090529Y0288331D01*
X0090470Y0288352D01*
X0090412Y0288376D01*
X0090356Y0288404D01*
X0090302Y0288435D01*
X0090250Y0288469D01*
X0090201Y0288507D01*
X0090153Y0288548D01*
X0090109Y0288592D01*
X0090067Y0288638D01*
X0090029Y0288688D01*
X0089993Y0288739D01*
X0089961Y0288793D01*
X0089933Y0288848D01*
X0089907Y0288905D01*
X0089886Y0288964D01*
X0089869Y0289024D01*
X0089855Y0289085D01*
X0089845Y0289146D01*
X0089839Y0289209D01*
X0089837Y0289271D01*
X0093036Y0289271D02*
X0093038Y0289333D01*
X0093044Y0289396D01*
X0093054Y0289457D01*
X0093068Y0289518D01*
X0093085Y0289578D01*
X0093106Y0289637D01*
X0093132Y0289694D01*
X0093160Y0289749D01*
X0093192Y0289803D01*
X0093228Y0289854D01*
X0093266Y0289904D01*
X0093308Y0289950D01*
X0093352Y0289994D01*
X0093400Y0290035D01*
X0093449Y0290073D01*
X0093501Y0290107D01*
X0093555Y0290138D01*
X0093611Y0290166D01*
X0093669Y0290190D01*
X0093728Y0290211D01*
X0093788Y0290227D01*
X0093849Y0290240D01*
X0093911Y0290249D01*
X0093973Y0290254D01*
X0094036Y0290255D01*
X0094098Y0290252D01*
X0094160Y0290245D01*
X0094222Y0290234D01*
X0094282Y0290219D01*
X0094342Y0290201D01*
X0094400Y0290179D01*
X0094457Y0290153D01*
X0094512Y0290123D01*
X0094565Y0290090D01*
X0094616Y0290054D01*
X0094664Y0290015D01*
X0094710Y0289972D01*
X0094753Y0289927D01*
X0094793Y0289879D01*
X0094830Y0289829D01*
X0094864Y0289776D01*
X0094895Y0289722D01*
X0094921Y0289666D01*
X0094945Y0289608D01*
X0094964Y0289548D01*
X0094980Y0289488D01*
X0094992Y0289426D01*
X0095000Y0289365D01*
X0095004Y0289302D01*
X0095004Y0289240D01*
X0095000Y0289177D01*
X0094992Y0289116D01*
X0094980Y0289054D01*
X0094964Y0288994D01*
X0094945Y0288934D01*
X0094921Y0288876D01*
X0094895Y0288820D01*
X0094864Y0288766D01*
X0094830Y0288713D01*
X0094793Y0288663D01*
X0094753Y0288615D01*
X0094710Y0288570D01*
X0094664Y0288527D01*
X0094616Y0288488D01*
X0094565Y0288452D01*
X0094512Y0288419D01*
X0094457Y0288389D01*
X0094400Y0288363D01*
X0094342Y0288341D01*
X0094282Y0288323D01*
X0094222Y0288308D01*
X0094160Y0288297D01*
X0094098Y0288290D01*
X0094036Y0288287D01*
X0093973Y0288288D01*
X0093911Y0288293D01*
X0093849Y0288302D01*
X0093788Y0288315D01*
X0093728Y0288331D01*
X0093669Y0288352D01*
X0093611Y0288376D01*
X0093555Y0288404D01*
X0093501Y0288435D01*
X0093449Y0288469D01*
X0093400Y0288507D01*
X0093352Y0288548D01*
X0093308Y0288592D01*
X0093266Y0288638D01*
X0093228Y0288688D01*
X0093192Y0288739D01*
X0093160Y0288793D01*
X0093132Y0288848D01*
X0093106Y0288905D01*
X0093085Y0288964D01*
X0093068Y0289024D01*
X0093054Y0289085D01*
X0093044Y0289146D01*
X0093038Y0289209D01*
X0093036Y0289271D01*
X0093036Y0292469D02*
X0093038Y0292531D01*
X0093044Y0292594D01*
X0093054Y0292655D01*
X0093068Y0292716D01*
X0093085Y0292776D01*
X0093106Y0292835D01*
X0093132Y0292892D01*
X0093160Y0292947D01*
X0093192Y0293001D01*
X0093228Y0293052D01*
X0093266Y0293102D01*
X0093308Y0293148D01*
X0093352Y0293192D01*
X0093400Y0293233D01*
X0093449Y0293271D01*
X0093501Y0293305D01*
X0093555Y0293336D01*
X0093611Y0293364D01*
X0093669Y0293388D01*
X0093728Y0293409D01*
X0093788Y0293425D01*
X0093849Y0293438D01*
X0093911Y0293447D01*
X0093973Y0293452D01*
X0094036Y0293453D01*
X0094098Y0293450D01*
X0094160Y0293443D01*
X0094222Y0293432D01*
X0094282Y0293417D01*
X0094342Y0293399D01*
X0094400Y0293377D01*
X0094457Y0293351D01*
X0094512Y0293321D01*
X0094565Y0293288D01*
X0094616Y0293252D01*
X0094664Y0293213D01*
X0094710Y0293170D01*
X0094753Y0293125D01*
X0094793Y0293077D01*
X0094830Y0293027D01*
X0094864Y0292974D01*
X0094895Y0292920D01*
X0094921Y0292864D01*
X0094945Y0292806D01*
X0094964Y0292746D01*
X0094980Y0292686D01*
X0094992Y0292624D01*
X0095000Y0292563D01*
X0095004Y0292500D01*
X0095004Y0292438D01*
X0095000Y0292375D01*
X0094992Y0292314D01*
X0094980Y0292252D01*
X0094964Y0292192D01*
X0094945Y0292132D01*
X0094921Y0292074D01*
X0094895Y0292018D01*
X0094864Y0291964D01*
X0094830Y0291911D01*
X0094793Y0291861D01*
X0094753Y0291813D01*
X0094710Y0291768D01*
X0094664Y0291725D01*
X0094616Y0291686D01*
X0094565Y0291650D01*
X0094512Y0291617D01*
X0094457Y0291587D01*
X0094400Y0291561D01*
X0094342Y0291539D01*
X0094282Y0291521D01*
X0094222Y0291506D01*
X0094160Y0291495D01*
X0094098Y0291488D01*
X0094036Y0291485D01*
X0093973Y0291486D01*
X0093911Y0291491D01*
X0093849Y0291500D01*
X0093788Y0291513D01*
X0093728Y0291529D01*
X0093669Y0291550D01*
X0093611Y0291574D01*
X0093555Y0291602D01*
X0093501Y0291633D01*
X0093449Y0291667D01*
X0093400Y0291705D01*
X0093352Y0291746D01*
X0093308Y0291790D01*
X0093266Y0291836D01*
X0093228Y0291886D01*
X0093192Y0291937D01*
X0093160Y0291991D01*
X0093132Y0292046D01*
X0093106Y0292103D01*
X0093085Y0292162D01*
X0093068Y0292222D01*
X0093054Y0292283D01*
X0093044Y0292344D01*
X0093038Y0292407D01*
X0093036Y0292469D01*
X0096235Y0292469D02*
X0096237Y0292531D01*
X0096243Y0292594D01*
X0096253Y0292655D01*
X0096267Y0292716D01*
X0096284Y0292776D01*
X0096305Y0292835D01*
X0096331Y0292892D01*
X0096359Y0292947D01*
X0096391Y0293001D01*
X0096427Y0293052D01*
X0096465Y0293102D01*
X0096507Y0293148D01*
X0096551Y0293192D01*
X0096599Y0293233D01*
X0096648Y0293271D01*
X0096700Y0293305D01*
X0096754Y0293336D01*
X0096810Y0293364D01*
X0096868Y0293388D01*
X0096927Y0293409D01*
X0096987Y0293425D01*
X0097048Y0293438D01*
X0097110Y0293447D01*
X0097172Y0293452D01*
X0097235Y0293453D01*
X0097297Y0293450D01*
X0097359Y0293443D01*
X0097421Y0293432D01*
X0097481Y0293417D01*
X0097541Y0293399D01*
X0097599Y0293377D01*
X0097656Y0293351D01*
X0097711Y0293321D01*
X0097764Y0293288D01*
X0097815Y0293252D01*
X0097863Y0293213D01*
X0097909Y0293170D01*
X0097952Y0293125D01*
X0097992Y0293077D01*
X0098029Y0293027D01*
X0098063Y0292974D01*
X0098094Y0292920D01*
X0098120Y0292864D01*
X0098144Y0292806D01*
X0098163Y0292746D01*
X0098179Y0292686D01*
X0098191Y0292624D01*
X0098199Y0292563D01*
X0098203Y0292500D01*
X0098203Y0292438D01*
X0098199Y0292375D01*
X0098191Y0292314D01*
X0098179Y0292252D01*
X0098163Y0292192D01*
X0098144Y0292132D01*
X0098120Y0292074D01*
X0098094Y0292018D01*
X0098063Y0291964D01*
X0098029Y0291911D01*
X0097992Y0291861D01*
X0097952Y0291813D01*
X0097909Y0291768D01*
X0097863Y0291725D01*
X0097815Y0291686D01*
X0097764Y0291650D01*
X0097711Y0291617D01*
X0097656Y0291587D01*
X0097599Y0291561D01*
X0097541Y0291539D01*
X0097481Y0291521D01*
X0097421Y0291506D01*
X0097359Y0291495D01*
X0097297Y0291488D01*
X0097235Y0291485D01*
X0097172Y0291486D01*
X0097110Y0291491D01*
X0097048Y0291500D01*
X0096987Y0291513D01*
X0096927Y0291529D01*
X0096868Y0291550D01*
X0096810Y0291574D01*
X0096754Y0291602D01*
X0096700Y0291633D01*
X0096648Y0291667D01*
X0096599Y0291705D01*
X0096551Y0291746D01*
X0096507Y0291790D01*
X0096465Y0291836D01*
X0096427Y0291886D01*
X0096391Y0291937D01*
X0096359Y0291991D01*
X0096331Y0292046D01*
X0096305Y0292103D01*
X0096284Y0292162D01*
X0096267Y0292222D01*
X0096253Y0292283D01*
X0096243Y0292344D01*
X0096237Y0292407D01*
X0096235Y0292469D01*
X0096235Y0289271D02*
X0096237Y0289333D01*
X0096243Y0289396D01*
X0096253Y0289457D01*
X0096267Y0289518D01*
X0096284Y0289578D01*
X0096305Y0289637D01*
X0096331Y0289694D01*
X0096359Y0289749D01*
X0096391Y0289803D01*
X0096427Y0289854D01*
X0096465Y0289904D01*
X0096507Y0289950D01*
X0096551Y0289994D01*
X0096599Y0290035D01*
X0096648Y0290073D01*
X0096700Y0290107D01*
X0096754Y0290138D01*
X0096810Y0290166D01*
X0096868Y0290190D01*
X0096927Y0290211D01*
X0096987Y0290227D01*
X0097048Y0290240D01*
X0097110Y0290249D01*
X0097172Y0290254D01*
X0097235Y0290255D01*
X0097297Y0290252D01*
X0097359Y0290245D01*
X0097421Y0290234D01*
X0097481Y0290219D01*
X0097541Y0290201D01*
X0097599Y0290179D01*
X0097656Y0290153D01*
X0097711Y0290123D01*
X0097764Y0290090D01*
X0097815Y0290054D01*
X0097863Y0290015D01*
X0097909Y0289972D01*
X0097952Y0289927D01*
X0097992Y0289879D01*
X0098029Y0289829D01*
X0098063Y0289776D01*
X0098094Y0289722D01*
X0098120Y0289666D01*
X0098144Y0289608D01*
X0098163Y0289548D01*
X0098179Y0289488D01*
X0098191Y0289426D01*
X0098199Y0289365D01*
X0098203Y0289302D01*
X0098203Y0289240D01*
X0098199Y0289177D01*
X0098191Y0289116D01*
X0098179Y0289054D01*
X0098163Y0288994D01*
X0098144Y0288934D01*
X0098120Y0288876D01*
X0098094Y0288820D01*
X0098063Y0288766D01*
X0098029Y0288713D01*
X0097992Y0288663D01*
X0097952Y0288615D01*
X0097909Y0288570D01*
X0097863Y0288527D01*
X0097815Y0288488D01*
X0097764Y0288452D01*
X0097711Y0288419D01*
X0097656Y0288389D01*
X0097599Y0288363D01*
X0097541Y0288341D01*
X0097481Y0288323D01*
X0097421Y0288308D01*
X0097359Y0288297D01*
X0097297Y0288290D01*
X0097235Y0288287D01*
X0097172Y0288288D01*
X0097110Y0288293D01*
X0097048Y0288302D01*
X0096987Y0288315D01*
X0096927Y0288331D01*
X0096868Y0288352D01*
X0096810Y0288376D01*
X0096754Y0288404D01*
X0096700Y0288435D01*
X0096648Y0288469D01*
X0096599Y0288507D01*
X0096551Y0288548D01*
X0096507Y0288592D01*
X0096465Y0288638D01*
X0096427Y0288688D01*
X0096391Y0288739D01*
X0096359Y0288793D01*
X0096331Y0288848D01*
X0096305Y0288905D01*
X0096284Y0288964D01*
X0096267Y0289024D01*
X0096253Y0289085D01*
X0096243Y0289146D01*
X0096237Y0289209D01*
X0096235Y0289271D01*
X0091618Y0277780D02*
X0091620Y0277938D01*
X0091626Y0278096D01*
X0091636Y0278254D01*
X0091650Y0278412D01*
X0091668Y0278569D01*
X0091689Y0278726D01*
X0091715Y0278882D01*
X0091745Y0279038D01*
X0091778Y0279193D01*
X0091816Y0279346D01*
X0091857Y0279499D01*
X0091902Y0279651D01*
X0091951Y0279802D01*
X0092004Y0279951D01*
X0092060Y0280099D01*
X0092120Y0280245D01*
X0092184Y0280390D01*
X0092252Y0280533D01*
X0092323Y0280675D01*
X0092397Y0280815D01*
X0092475Y0280952D01*
X0092557Y0281088D01*
X0092641Y0281222D01*
X0092730Y0281353D01*
X0092821Y0281482D01*
X0092916Y0281609D01*
X0093013Y0281734D01*
X0093114Y0281856D01*
X0093218Y0281975D01*
X0093325Y0282092D01*
X0093435Y0282206D01*
X0093548Y0282317D01*
X0093663Y0282426D01*
X0093781Y0282531D01*
X0093902Y0282633D01*
X0094025Y0282733D01*
X0094151Y0282829D01*
X0094279Y0282922D01*
X0094409Y0283012D01*
X0094542Y0283098D01*
X0094677Y0283182D01*
X0094813Y0283261D01*
X0094952Y0283338D01*
X0095093Y0283410D01*
X0095235Y0283480D01*
X0095379Y0283545D01*
X0095525Y0283607D01*
X0095672Y0283665D01*
X0095821Y0283720D01*
X0095971Y0283771D01*
X0096122Y0283818D01*
X0096274Y0283861D01*
X0096427Y0283900D01*
X0096582Y0283936D01*
X0096737Y0283967D01*
X0096893Y0283995D01*
X0097049Y0284019D01*
X0097206Y0284039D01*
X0097364Y0284055D01*
X0097521Y0284067D01*
X0097680Y0284075D01*
X0097838Y0284079D01*
X0097996Y0284079D01*
X0098154Y0284075D01*
X0098313Y0284067D01*
X0098470Y0284055D01*
X0098628Y0284039D01*
X0098785Y0284019D01*
X0098941Y0283995D01*
X0099097Y0283967D01*
X0099252Y0283936D01*
X0099407Y0283900D01*
X0099560Y0283861D01*
X0099712Y0283818D01*
X0099863Y0283771D01*
X0100013Y0283720D01*
X0100162Y0283665D01*
X0100309Y0283607D01*
X0100455Y0283545D01*
X0100599Y0283480D01*
X0100741Y0283410D01*
X0100882Y0283338D01*
X0101021Y0283261D01*
X0101157Y0283182D01*
X0101292Y0283098D01*
X0101425Y0283012D01*
X0101555Y0282922D01*
X0101683Y0282829D01*
X0101809Y0282733D01*
X0101932Y0282633D01*
X0102053Y0282531D01*
X0102171Y0282426D01*
X0102286Y0282317D01*
X0102399Y0282206D01*
X0102509Y0282092D01*
X0102616Y0281975D01*
X0102720Y0281856D01*
X0102821Y0281734D01*
X0102918Y0281609D01*
X0103013Y0281482D01*
X0103104Y0281353D01*
X0103193Y0281222D01*
X0103277Y0281088D01*
X0103359Y0280952D01*
X0103437Y0280815D01*
X0103511Y0280675D01*
X0103582Y0280533D01*
X0103650Y0280390D01*
X0103714Y0280245D01*
X0103774Y0280099D01*
X0103830Y0279951D01*
X0103883Y0279802D01*
X0103932Y0279651D01*
X0103977Y0279499D01*
X0104018Y0279346D01*
X0104056Y0279193D01*
X0104089Y0279038D01*
X0104119Y0278882D01*
X0104145Y0278726D01*
X0104166Y0278569D01*
X0104184Y0278412D01*
X0104198Y0278254D01*
X0104208Y0278096D01*
X0104214Y0277938D01*
X0104216Y0277780D01*
X0104214Y0277622D01*
X0104208Y0277464D01*
X0104198Y0277306D01*
X0104184Y0277148D01*
X0104166Y0276991D01*
X0104145Y0276834D01*
X0104119Y0276678D01*
X0104089Y0276522D01*
X0104056Y0276367D01*
X0104018Y0276214D01*
X0103977Y0276061D01*
X0103932Y0275909D01*
X0103883Y0275758D01*
X0103830Y0275609D01*
X0103774Y0275461D01*
X0103714Y0275315D01*
X0103650Y0275170D01*
X0103582Y0275027D01*
X0103511Y0274885D01*
X0103437Y0274745D01*
X0103359Y0274608D01*
X0103277Y0274472D01*
X0103193Y0274338D01*
X0103104Y0274207D01*
X0103013Y0274078D01*
X0102918Y0273951D01*
X0102821Y0273826D01*
X0102720Y0273704D01*
X0102616Y0273585D01*
X0102509Y0273468D01*
X0102399Y0273354D01*
X0102286Y0273243D01*
X0102171Y0273134D01*
X0102053Y0273029D01*
X0101932Y0272927D01*
X0101809Y0272827D01*
X0101683Y0272731D01*
X0101555Y0272638D01*
X0101425Y0272548D01*
X0101292Y0272462D01*
X0101157Y0272378D01*
X0101021Y0272299D01*
X0100882Y0272222D01*
X0100741Y0272150D01*
X0100599Y0272080D01*
X0100455Y0272015D01*
X0100309Y0271953D01*
X0100162Y0271895D01*
X0100013Y0271840D01*
X0099863Y0271789D01*
X0099712Y0271742D01*
X0099560Y0271699D01*
X0099407Y0271660D01*
X0099252Y0271624D01*
X0099097Y0271593D01*
X0098941Y0271565D01*
X0098785Y0271541D01*
X0098628Y0271521D01*
X0098470Y0271505D01*
X0098313Y0271493D01*
X0098154Y0271485D01*
X0097996Y0271481D01*
X0097838Y0271481D01*
X0097680Y0271485D01*
X0097521Y0271493D01*
X0097364Y0271505D01*
X0097206Y0271521D01*
X0097049Y0271541D01*
X0096893Y0271565D01*
X0096737Y0271593D01*
X0096582Y0271624D01*
X0096427Y0271660D01*
X0096274Y0271699D01*
X0096122Y0271742D01*
X0095971Y0271789D01*
X0095821Y0271840D01*
X0095672Y0271895D01*
X0095525Y0271953D01*
X0095379Y0272015D01*
X0095235Y0272080D01*
X0095093Y0272150D01*
X0094952Y0272222D01*
X0094813Y0272299D01*
X0094677Y0272378D01*
X0094542Y0272462D01*
X0094409Y0272548D01*
X0094279Y0272638D01*
X0094151Y0272731D01*
X0094025Y0272827D01*
X0093902Y0272927D01*
X0093781Y0273029D01*
X0093663Y0273134D01*
X0093548Y0273243D01*
X0093435Y0273354D01*
X0093325Y0273468D01*
X0093218Y0273585D01*
X0093114Y0273704D01*
X0093013Y0273826D01*
X0092916Y0273951D01*
X0092821Y0274078D01*
X0092730Y0274207D01*
X0092641Y0274338D01*
X0092557Y0274472D01*
X0092475Y0274608D01*
X0092397Y0274745D01*
X0092323Y0274885D01*
X0092252Y0275027D01*
X0092184Y0275170D01*
X0092120Y0275315D01*
X0092060Y0275461D01*
X0092004Y0275609D01*
X0091951Y0275758D01*
X0091902Y0275909D01*
X0091857Y0276061D01*
X0091816Y0276214D01*
X0091778Y0276367D01*
X0091745Y0276522D01*
X0091715Y0276678D01*
X0091689Y0276834D01*
X0091668Y0276991D01*
X0091650Y0277148D01*
X0091636Y0277306D01*
X0091626Y0277464D01*
X0091620Y0277622D01*
X0091618Y0277780D01*
X0008981Y0349925D02*
X0008983Y0350083D01*
X0008989Y0350241D01*
X0008999Y0350399D01*
X0009013Y0350557D01*
X0009031Y0350714D01*
X0009052Y0350871D01*
X0009078Y0351027D01*
X0009108Y0351183D01*
X0009141Y0351338D01*
X0009179Y0351491D01*
X0009220Y0351644D01*
X0009265Y0351796D01*
X0009314Y0351947D01*
X0009367Y0352096D01*
X0009423Y0352244D01*
X0009483Y0352390D01*
X0009547Y0352535D01*
X0009615Y0352678D01*
X0009686Y0352820D01*
X0009760Y0352960D01*
X0009838Y0353097D01*
X0009920Y0353233D01*
X0010004Y0353367D01*
X0010093Y0353498D01*
X0010184Y0353627D01*
X0010279Y0353754D01*
X0010376Y0353879D01*
X0010477Y0354001D01*
X0010581Y0354120D01*
X0010688Y0354237D01*
X0010798Y0354351D01*
X0010911Y0354462D01*
X0011026Y0354571D01*
X0011144Y0354676D01*
X0011265Y0354778D01*
X0011388Y0354878D01*
X0011514Y0354974D01*
X0011642Y0355067D01*
X0011772Y0355157D01*
X0011905Y0355243D01*
X0012040Y0355327D01*
X0012176Y0355406D01*
X0012315Y0355483D01*
X0012456Y0355555D01*
X0012598Y0355625D01*
X0012742Y0355690D01*
X0012888Y0355752D01*
X0013035Y0355810D01*
X0013184Y0355865D01*
X0013334Y0355916D01*
X0013485Y0355963D01*
X0013637Y0356006D01*
X0013790Y0356045D01*
X0013945Y0356081D01*
X0014100Y0356112D01*
X0014256Y0356140D01*
X0014412Y0356164D01*
X0014569Y0356184D01*
X0014727Y0356200D01*
X0014884Y0356212D01*
X0015043Y0356220D01*
X0015201Y0356224D01*
X0015359Y0356224D01*
X0015517Y0356220D01*
X0015676Y0356212D01*
X0015833Y0356200D01*
X0015991Y0356184D01*
X0016148Y0356164D01*
X0016304Y0356140D01*
X0016460Y0356112D01*
X0016615Y0356081D01*
X0016770Y0356045D01*
X0016923Y0356006D01*
X0017075Y0355963D01*
X0017226Y0355916D01*
X0017376Y0355865D01*
X0017525Y0355810D01*
X0017672Y0355752D01*
X0017818Y0355690D01*
X0017962Y0355625D01*
X0018104Y0355555D01*
X0018245Y0355483D01*
X0018384Y0355406D01*
X0018520Y0355327D01*
X0018655Y0355243D01*
X0018788Y0355157D01*
X0018918Y0355067D01*
X0019046Y0354974D01*
X0019172Y0354878D01*
X0019295Y0354778D01*
X0019416Y0354676D01*
X0019534Y0354571D01*
X0019649Y0354462D01*
X0019762Y0354351D01*
X0019872Y0354237D01*
X0019979Y0354120D01*
X0020083Y0354001D01*
X0020184Y0353879D01*
X0020281Y0353754D01*
X0020376Y0353627D01*
X0020467Y0353498D01*
X0020556Y0353367D01*
X0020640Y0353233D01*
X0020722Y0353097D01*
X0020800Y0352960D01*
X0020874Y0352820D01*
X0020945Y0352678D01*
X0021013Y0352535D01*
X0021077Y0352390D01*
X0021137Y0352244D01*
X0021193Y0352096D01*
X0021246Y0351947D01*
X0021295Y0351796D01*
X0021340Y0351644D01*
X0021381Y0351491D01*
X0021419Y0351338D01*
X0021452Y0351183D01*
X0021482Y0351027D01*
X0021508Y0350871D01*
X0021529Y0350714D01*
X0021547Y0350557D01*
X0021561Y0350399D01*
X0021571Y0350241D01*
X0021577Y0350083D01*
X0021579Y0349925D01*
X0021577Y0349767D01*
X0021571Y0349609D01*
X0021561Y0349451D01*
X0021547Y0349293D01*
X0021529Y0349136D01*
X0021508Y0348979D01*
X0021482Y0348823D01*
X0021452Y0348667D01*
X0021419Y0348512D01*
X0021381Y0348359D01*
X0021340Y0348206D01*
X0021295Y0348054D01*
X0021246Y0347903D01*
X0021193Y0347754D01*
X0021137Y0347606D01*
X0021077Y0347460D01*
X0021013Y0347315D01*
X0020945Y0347172D01*
X0020874Y0347030D01*
X0020800Y0346890D01*
X0020722Y0346753D01*
X0020640Y0346617D01*
X0020556Y0346483D01*
X0020467Y0346352D01*
X0020376Y0346223D01*
X0020281Y0346096D01*
X0020184Y0345971D01*
X0020083Y0345849D01*
X0019979Y0345730D01*
X0019872Y0345613D01*
X0019762Y0345499D01*
X0019649Y0345388D01*
X0019534Y0345279D01*
X0019416Y0345174D01*
X0019295Y0345072D01*
X0019172Y0344972D01*
X0019046Y0344876D01*
X0018918Y0344783D01*
X0018788Y0344693D01*
X0018655Y0344607D01*
X0018520Y0344523D01*
X0018384Y0344444D01*
X0018245Y0344367D01*
X0018104Y0344295D01*
X0017962Y0344225D01*
X0017818Y0344160D01*
X0017672Y0344098D01*
X0017525Y0344040D01*
X0017376Y0343985D01*
X0017226Y0343934D01*
X0017075Y0343887D01*
X0016923Y0343844D01*
X0016770Y0343805D01*
X0016615Y0343769D01*
X0016460Y0343738D01*
X0016304Y0343710D01*
X0016148Y0343686D01*
X0015991Y0343666D01*
X0015833Y0343650D01*
X0015676Y0343638D01*
X0015517Y0343630D01*
X0015359Y0343626D01*
X0015201Y0343626D01*
X0015043Y0343630D01*
X0014884Y0343638D01*
X0014727Y0343650D01*
X0014569Y0343666D01*
X0014412Y0343686D01*
X0014256Y0343710D01*
X0014100Y0343738D01*
X0013945Y0343769D01*
X0013790Y0343805D01*
X0013637Y0343844D01*
X0013485Y0343887D01*
X0013334Y0343934D01*
X0013184Y0343985D01*
X0013035Y0344040D01*
X0012888Y0344098D01*
X0012742Y0344160D01*
X0012598Y0344225D01*
X0012456Y0344295D01*
X0012315Y0344367D01*
X0012176Y0344444D01*
X0012040Y0344523D01*
X0011905Y0344607D01*
X0011772Y0344693D01*
X0011642Y0344783D01*
X0011514Y0344876D01*
X0011388Y0344972D01*
X0011265Y0345072D01*
X0011144Y0345174D01*
X0011026Y0345279D01*
X0010911Y0345388D01*
X0010798Y0345499D01*
X0010688Y0345613D01*
X0010581Y0345730D01*
X0010477Y0345849D01*
X0010376Y0345971D01*
X0010279Y0346096D01*
X0010184Y0346223D01*
X0010093Y0346352D01*
X0010004Y0346483D01*
X0009920Y0346617D01*
X0009838Y0346753D01*
X0009760Y0346890D01*
X0009686Y0347030D01*
X0009615Y0347172D01*
X0009547Y0347315D01*
X0009483Y0347460D01*
X0009423Y0347606D01*
X0009367Y0347754D01*
X0009314Y0347903D01*
X0009265Y0348054D01*
X0009220Y0348206D01*
X0009179Y0348359D01*
X0009141Y0348512D01*
X0009108Y0348667D01*
X0009078Y0348823D01*
X0009052Y0348979D01*
X0009031Y0349136D01*
X0009013Y0349293D01*
X0008999Y0349451D01*
X0008989Y0349609D01*
X0008983Y0349767D01*
X0008981Y0349925D01*
D11*
X0015280Y0349925D03*
X0097917Y0277780D03*
X0092917Y0087780D03*
X0015280Y0015280D03*
X0297917Y0217780D03*
X0330240Y0349925D03*
X0330240Y0015280D03*
D12*
X0344020Y0001500D02*
X0001500Y0001500D01*
X0001500Y0068429D01*
X0088114Y0068429D01*
X0088114Y0077780D01*
X0041854Y0077780D01*
X0041730Y0077782D01*
X0041607Y0077788D01*
X0041483Y0077797D01*
X0041361Y0077811D01*
X0041238Y0077828D01*
X0041116Y0077850D01*
X0040995Y0077875D01*
X0040875Y0077904D01*
X0040756Y0077936D01*
X0040637Y0077973D01*
X0040520Y0078013D01*
X0040405Y0078056D01*
X0040290Y0078104D01*
X0040178Y0078155D01*
X0040067Y0078209D01*
X0039957Y0078267D01*
X0039850Y0078328D01*
X0039744Y0078393D01*
X0039641Y0078461D01*
X0039540Y0078532D01*
X0039441Y0078606D01*
X0039344Y0078683D01*
X0039250Y0078764D01*
X0039159Y0078847D01*
X0039070Y0078933D01*
X0038984Y0079022D01*
X0038901Y0079113D01*
X0038820Y0079207D01*
X0038743Y0079304D01*
X0038669Y0079403D01*
X0038598Y0079504D01*
X0038530Y0079607D01*
X0038465Y0079713D01*
X0038404Y0079820D01*
X0038346Y0079930D01*
X0038292Y0080041D01*
X0038241Y0080153D01*
X0038193Y0080268D01*
X0038150Y0080383D01*
X0038110Y0080500D01*
X0038073Y0080619D01*
X0038041Y0080738D01*
X0038012Y0080858D01*
X0037987Y0080979D01*
X0037965Y0081101D01*
X0037948Y0081224D01*
X0037934Y0081346D01*
X0037925Y0081470D01*
X0037919Y0081593D01*
X0037917Y0081717D01*
X0037917Y0081780D02*
X0037917Y0283857D01*
X0037919Y0283981D01*
X0037925Y0284104D01*
X0037934Y0284228D01*
X0037948Y0284350D01*
X0037965Y0284473D01*
X0037987Y0284595D01*
X0038012Y0284716D01*
X0038041Y0284836D01*
X0038073Y0284955D01*
X0038110Y0285074D01*
X0038150Y0285191D01*
X0038193Y0285306D01*
X0038241Y0285421D01*
X0038292Y0285533D01*
X0038346Y0285644D01*
X0038404Y0285754D01*
X0038465Y0285861D01*
X0038530Y0285967D01*
X0038598Y0286070D01*
X0038669Y0286171D01*
X0038743Y0286270D01*
X0038820Y0286367D01*
X0038901Y0286461D01*
X0038984Y0286552D01*
X0039070Y0286641D01*
X0039159Y0286727D01*
X0039250Y0286810D01*
X0039344Y0286891D01*
X0039441Y0286968D01*
X0039540Y0287042D01*
X0039641Y0287113D01*
X0039744Y0287181D01*
X0039850Y0287246D01*
X0039957Y0287307D01*
X0040067Y0287365D01*
X0040178Y0287419D01*
X0040290Y0287470D01*
X0040405Y0287518D01*
X0040520Y0287561D01*
X0040637Y0287601D01*
X0040756Y0287638D01*
X0040875Y0287670D01*
X0040995Y0287699D01*
X0041116Y0287724D01*
X0041238Y0287746D01*
X0041361Y0287763D01*
X0041483Y0287777D01*
X0041607Y0287786D01*
X0041730Y0287792D01*
X0041854Y0287794D01*
X0088114Y0287794D01*
X0088114Y0297145D01*
X0001500Y0297145D01*
X0001500Y0363705D01*
X0344020Y0363705D01*
X0344020Y0297145D01*
X0257406Y0297145D01*
X0257406Y0287794D01*
X0291854Y0287794D01*
X0291917Y0287780D02*
X0297917Y0281780D01*
X0297917Y0236780D01*
X0307292Y0227405D01*
X0307292Y0097155D01*
X0297917Y0087780D01*
X0297917Y0081717D01*
X0297915Y0081593D01*
X0297909Y0081470D01*
X0297900Y0081346D01*
X0297886Y0081224D01*
X0297869Y0081101D01*
X0297847Y0080979D01*
X0297822Y0080858D01*
X0297793Y0080738D01*
X0297761Y0080619D01*
X0297724Y0080500D01*
X0297684Y0080383D01*
X0297641Y0080268D01*
X0297593Y0080153D01*
X0297542Y0080041D01*
X0297488Y0079930D01*
X0297430Y0079820D01*
X0297369Y0079713D01*
X0297304Y0079607D01*
X0297236Y0079504D01*
X0297165Y0079403D01*
X0297091Y0079304D01*
X0297014Y0079207D01*
X0296933Y0079113D01*
X0296850Y0079022D01*
X0296764Y0078933D01*
X0296675Y0078847D01*
X0296584Y0078764D01*
X0296490Y0078683D01*
X0296393Y0078606D01*
X0296294Y0078532D01*
X0296193Y0078461D01*
X0296090Y0078393D01*
X0295984Y0078328D01*
X0295877Y0078267D01*
X0295767Y0078209D01*
X0295656Y0078155D01*
X0295544Y0078104D01*
X0295429Y0078056D01*
X0295314Y0078013D01*
X0295197Y0077973D01*
X0295078Y0077936D01*
X0294959Y0077904D01*
X0294839Y0077875D01*
X0294718Y0077850D01*
X0294596Y0077828D01*
X0294473Y0077811D01*
X0294351Y0077797D01*
X0294227Y0077788D01*
X0294104Y0077782D01*
X0293980Y0077780D01*
X0257406Y0077780D01*
X0257406Y0068429D01*
X0344020Y0068429D01*
X0344020Y0001500D01*
X0245594Y0068429D02*
X0245594Y0077780D01*
X0099925Y0077780D01*
X0099925Y0068429D01*
X0245594Y0068429D01*
X0245594Y0287794D02*
X0099925Y0287794D01*
X0099925Y0297145D01*
X0245594Y0297145D01*
X0245594Y0287794D01*
D13*
X0248301Y0289271D03*
X0248301Y0292469D03*
X0251500Y0292469D03*
X0251500Y0289271D03*
X0254699Y0289271D03*
X0254699Y0292469D03*
X0254699Y0295668D03*
X0251500Y0295668D03*
X0248301Y0295668D03*
X0286667Y0202155D03*
X0289792Y0202155D03*
X0292917Y0202155D03*
X0296042Y0202155D03*
X0299167Y0202155D03*
X0301667Y0200280D03*
X0301667Y0197155D03*
X0301667Y0194030D03*
X0301667Y0190905D03*
X0301667Y0187780D03*
X0301667Y0184655D03*
X0301667Y0181530D03*
X0301667Y0178405D03*
X0301667Y0175280D03*
X0299167Y0173405D03*
X0296042Y0173405D03*
X0292917Y0173405D03*
X0289792Y0173405D03*
X0286667Y0173405D03*
X0254699Y0076303D03*
X0254699Y0073104D03*
X0254699Y0069906D03*
X0251500Y0069906D03*
X0251500Y0073104D03*
X0248301Y0073104D03*
X0248301Y0069906D03*
X0248301Y0076303D03*
X0251500Y0076303D03*
X0097219Y0076303D03*
X0097219Y0073104D03*
X0097219Y0069906D03*
X0094020Y0069906D03*
X0094020Y0073104D03*
X0090821Y0073104D03*
X0090821Y0069906D03*
X0090821Y0076303D03*
X0094020Y0076303D03*
X0094020Y0289271D03*
X0094020Y0292469D03*
X0097219Y0292469D03*
X0097219Y0289271D03*
X0097219Y0295668D03*
X0094020Y0295668D03*
X0090821Y0295668D03*
X0090821Y0292469D03*
X0090821Y0289271D03*
D14*
X0109792Y0254655D03*
X0119792Y0254655D03*
X0119792Y0244655D03*
X0119792Y0234655D03*
X0109792Y0234655D03*
X0109792Y0244655D03*
D15*
X0112917Y0277780D03*
X0122917Y0277780D03*
X0132917Y0277780D03*
X0142917Y0277780D03*
X0152917Y0277780D03*
X0162917Y0277780D03*
X0172917Y0277780D03*
X0182917Y0277780D03*
X0192917Y0277780D03*
X0202917Y0277780D03*
X0217917Y0277780D03*
X0227917Y0277780D03*
X0237917Y0277780D03*
X0247917Y0277780D03*
X0257917Y0277780D03*
X0267917Y0277780D03*
X0277917Y0277780D03*
X0287917Y0277780D03*
X0287917Y0087780D03*
X0277917Y0087780D03*
X0267917Y0087780D03*
X0257917Y0087780D03*
X0247917Y0087780D03*
X0237917Y0087780D03*
X0217917Y0087780D03*
X0207917Y0087780D03*
X0197917Y0087780D03*
X0187917Y0087780D03*
X0177917Y0087780D03*
X0167917Y0087780D03*
X0157917Y0087780D03*
X0147917Y0087780D03*
X0137917Y0087780D03*
X0127917Y0087780D03*
X0117917Y0087780D03*
X0107917Y0087780D03*
D16*
X0095717Y0222858D03*
X0087917Y0222858D03*
X0087917Y0232701D03*
X0095717Y0232701D03*
D17*
X0077217Y0251480D03*
X0077217Y0204080D03*
D18*
X0069561Y0210772D02*
X0065230Y0210772D01*
X0065230Y0244787D02*
X0069561Y0244787D01*
D19*
X0048852Y0244787D02*
X0043734Y0244787D01*
X0043734Y0210772D02*
X0048852Y0210772D01*
D20*
X0054217Y0137780D02*
X0061617Y0137780D01*
X0061617Y0127780D02*
X0054217Y0127780D01*
X0054217Y0117780D02*
X0061617Y0117780D01*
X0061617Y0107780D02*
X0054217Y0107780D01*
D21*
X0060417Y0216530D03*
X0044167Y0216530D03*
X0044167Y0224030D03*
X0044167Y0231530D03*
X0044167Y0239030D03*
X0060417Y0239030D03*
D22*
X0056917Y0086530D03*
X0068917Y0086530D03*
D23*
X0235417Y0186530D03*
X0241667Y0186530D03*
X0247917Y0186530D03*
X0251667Y0181530D03*
X0250417Y0175280D03*
X0247917Y0169030D03*
X0254167Y0169030D03*
X0257917Y0174030D03*
X0254167Y0162780D03*
X0257917Y0157780D03*
X0259167Y0151530D03*
X0252917Y0151530D03*
X0249167Y0156530D03*
X0242917Y0157780D03*
X0246667Y0162780D03*
X0241667Y0151530D03*
M02*
