%
M48
M72
T01C0.01969
T02C0.02362
T03C0.03150
T04C0.03200
T05C0.03543
T06C0.03600
T07C0.04000
T08C0.04400
T09C0.09000
T10C0.12598
%
T01
X90821Y76303
X90821Y73104
X90821Y69906
X94020Y69906
X94020Y73104
X94020Y76303
X97219Y76303
X97219Y73104
X97219Y69906
X248301Y69906
X248301Y73104
X248301Y76303
X251500Y76303
X251500Y73104
X251500Y69906
X254699Y69906
X254699Y73104
X254699Y76303
X254699Y295668
X251500Y295668
X248301Y295668
X97219Y295668
X94020Y295668
X90821Y295668
X55417Y276530
X59167Y276530
X62917Y276530
X66667Y276530
X70417Y276530
X70417Y272780
X66667Y272780
X62917Y272780
X59167Y272780
X55417Y272780
X55417Y269030
X59167Y269030
X62917Y269030
X66667Y269030
X70417Y269030
X70417Y265280
X66667Y265280
X62917Y265280
X59167Y265280
X55417Y265280
X55417Y261530
X59167Y261530
X62917Y261530
X66667Y261530
X70417Y261530
X67917Y255280
X55417Y254030
X50417Y255280
X46667Y255280
X42917Y255280
X42917Y251530
X46667Y251530
X50417Y251530
X57917Y229655
X55417Y225905
X55417Y221530
X50417Y204030
X46667Y204030
X42917Y204030
X42917Y200280
X46667Y200280
X50417Y200280
X50417Y196530
X46667Y196530
X42917Y196530
X42917Y192780
X46667Y192780
X50417Y192780
X54167Y192780
X54167Y196530
X57917Y196530
X61667Y196530
X65417Y196530
X65417Y192780
X61667Y192780
X57917Y192780
X57917Y189030
X54167Y189030
X50417Y189030
X46667Y189030
X42917Y189030
X42917Y185280
X42917Y181530
X42917Y177780
X42917Y174030
X42917Y170280
X42917Y166530
X46667Y166530
X46667Y162780
X42917Y162780
X42917Y159030
X42917Y155280
X42917Y151530
X69167Y162780
X72917Y162780
X76667Y162780
X80417Y162780
X86667Y159030
X90417Y159030
X90417Y155280
X86667Y155280
X79167Y149030
X75417Y149030
X75417Y144030
X79167Y144030
X79167Y140280
X75417Y140280
X82917Y140280
X91667Y136530
X105417Y137780
X119167Y137780
X109167Y112780
X105417Y112780
X101667Y112780
X97917Y112780
X94167Y112780
X90417Y112780
X85417Y111530
X84167Y119030
X102917Y92780
X112917Y92780
X122917Y92780
X132917Y92780
X132917Y82780
X122917Y82780
X112917Y82780
X102917Y82780
X77917Y86530
X47917Y86530
X124167Y110280
X129167Y110280
X154167Y125280
X161667Y145280
X157292Y146530
X152917Y146530
X145417Y156530
X169167Y143405
X172917Y129030
X181667Y124030
X197917Y147780
X197917Y152780
X206667Y157780
X204167Y161530
X199167Y162780
X202292Y170280
X196667Y176530
X176667Y180905
X189167Y199030
X191667Y202780
X194167Y206530
X196667Y210280
X194167Y214030
X191667Y217780
X189167Y224030
X185417Y227780
X182917Y232780
X171667Y236530
X167917Y234030
X164167Y237155
X157917Y240280
X156667Y232780
X150417Y230280
X150417Y225280
X156667Y220280
X161667Y220280
X161667Y215280
X166667Y219030
X174167Y217780
X176667Y214030
X174167Y210280
X176667Y206530
X176667Y201530
X142917Y219030
X126667Y212780
X121667Y212780
X121667Y207780
X126667Y207780
X131667Y199030
X136667Y187780
X121667Y189030
X107917Y185280
X100417Y192780
X100417Y196530
X91667Y196530
X91667Y200280
X91667Y204030
X87917Y204030
X87917Y200280
X87917Y196530
X84167Y196530
X84167Y192780
X80417Y192780
X76667Y192780
X72917Y192780
X69167Y192780
X69167Y196530
X67917Y200280
X55417Y201530
X57917Y185280
X74167Y212780
X79167Y220280
X73542Y225280
X77917Y227155
X75417Y233405
X74167Y242780
X89167Y246530
X95417Y241530
X106667Y226530
X112917Y222780
X112917Y217780
X101667Y215280
X100417Y210280
X101667Y205280
X112605Y202780
X91667Y192780
X87917Y192780
X92917Y185280
X97917Y181530
X101667Y172780
X137917Y239030
X146667Y249030
X156667Y252780
X160417Y249030
X172917Y252780
X182917Y256530
X172917Y266530
X167917Y272780
X160417Y265280
X155417Y265280
X157917Y272780
X157917Y282780
X147917Y282780
X137917Y282780
X127917Y282780
X117917Y282780
X117917Y272780
X109167Y269030
X105417Y269030
X85417Y283405
X90821Y289271
X90821Y292469
X94020Y292469
X94020Y289271
X97219Y289271
X97219Y292469
X90417Y269030
X85417Y261530
X62917Y281530
X114792Y260280
X125417Y249655
X131667Y260280
X136667Y260280
X137917Y272780
X127917Y272780
X147917Y272780
X167917Y282780
X177917Y282780
X187917Y282780
X197917Y282780
X207917Y282780
X210417Y279655
X210417Y275905
X207917Y272780
X212917Y272780
X205417Y265280
X197917Y272780
X194167Y266530
X187917Y272780
X177917Y272780
X181667Y245280
X212917Y282780
X222917Y282780
X232917Y282780
X242917Y282780
X248301Y289271
X248301Y292469
X251500Y292469
X251500Y289271
X254699Y289271
X254699Y292469
X252917Y282780
X262917Y282780
X272917Y282780
X282917Y282780
X282917Y272780
X272917Y272780
X262917Y272780
X252917Y272780
X242917Y272780
X232917Y272780
X222917Y272780
X224167Y229030
X227917Y229030
X227917Y225280
X224167Y225280
X231667Y225280
X231667Y229030
X235417Y229030
X239167Y229030
X242917Y229030
X246667Y229030
X250417Y229030
X254167Y229030
X257917Y229030
X261667Y229030
X265417Y229030
X269167Y229030
X272917Y229030
X272917Y225280
X269167Y225280
X265417Y225280
X261667Y225280
X257917Y225280
X254167Y225280
X250417Y225280
X246667Y225280
X242917Y225280
X239167Y225280
X235417Y225280
X234167Y195280
X230417Y195280
X226667Y195280
X226667Y191530
X230417Y191530
X234167Y191530
X237917Y191530
X237917Y195280
X241667Y195280
X241667Y191530
X245417Y191530
X245417Y195280
X249167Y195280
X252917Y195280
X256667Y195280
X260417Y195280
X264167Y195280
X260417Y191530
X256667Y191530
X252917Y191530
X249167Y191530
X256667Y187780
X260417Y187780
X260417Y184030
X256667Y184030
X256667Y180280
X260417Y180280
X262917Y170280
X260417Y166530
X262917Y162780
X262917Y157780
X255417Y146530
X250417Y146530
X246667Y149030
X241667Y146530
X236667Y150280
X236667Y155280
X237917Y160280
X239167Y165280
X240417Y170280
X241667Y175280
X241667Y180280
X236667Y180280
X231667Y179030
X230417Y184030
X230417Y187780
X226667Y187780
X226667Y184030
X226667Y180280
X262917Y145280
X276667Y144030
X276667Y162155
X276667Y166530
X276667Y170905
X286667Y173405
X289792Y173405
X292917Y173405
X296042Y173405
X299167Y173405
X301667Y175280
X301667Y178405
X301667Y181530
X301667Y184655
X301667Y187780
X301667Y190905
X301667Y194030
X301667Y197155
X301667Y200280
X299167Y202155
X296042Y202155
X292917Y202155
X289792Y202155
X286667Y202155
X276667Y225280
X276667Y229030
X276667Y232780
X276667Y236530
X276667Y240280
X276667Y244030
X276667Y247780
X276667Y251530
X276667Y255280
X276667Y259030
X280417Y259030
X284167Y259030
X287917Y259030
X291667Y259030
X292917Y272780
X245417Y132780
X259167Y125905
X269167Y112780
X272917Y112780
X272917Y109030
X269167Y109030
X269167Y105280
X272917Y105280
X272917Y101530
X276667Y105280
X276667Y109030
X276667Y112780
X262917Y92780
X252917Y92780
X242917Y92780
X242917Y82780
X232917Y82780
X227917Y82780
X222917Y82780
X227917Y87780
X227917Y92780
X224167Y92780
X231667Y92780
X212917Y92780
X202917Y92780
X192917Y92780
X192917Y82780
X182917Y82780
X172917Y82780
X172917Y92780
X162917Y92780
X162917Y82780
X152917Y82780
X142917Y82780
X202917Y82780
X212917Y82780
X252917Y82780
X262917Y82780
X272917Y82780
X282917Y82780
X294167Y94655
X297917Y94655
T02
X197917Y112780
X136667Y160280
X46293Y210772
X67396Y210772
X67396Y244787
X46293Y244787
T03
X246042Y125280
X235417Y119030
X241667Y112780
X209167Y112780
X202917Y116530
X191667Y117780
X189167Y129030
X206042Y166530
X206042Y174030
X201667Y180280
X135417Y117780
X137917Y111530
X76667Y96530
X57917Y99030
X54167Y165280
X112917Y189030
X126667Y185280
X121667Y172780
X54167Y234030
T04
X68917Y86530
X56917Y86530
T05
X121667Y147780
X106667Y166530
X95417Y176530
X67917Y155280
X57917Y146530
X62917Y186530
T06
X95717Y222858
X87917Y222858
X87917Y232701
X95717Y232701
T07
X287917Y277780
X277917Y277780
X267917Y277780
X257917Y277780
X247917Y277780
X237917Y277780
X227917Y277780
X217917Y277780
X202917Y277780
X192917Y277780
X182917Y277780
X172917Y277780
X162917Y277780
X152917Y277780
X142917Y277780
X132917Y277780
X122917Y277780
X112917Y277780
X109792Y254655
X119792Y254655
X119792Y244655
X119792Y234655
X109792Y234655
X109792Y244655
X287917Y87780
X277917Y87780
X267917Y87780
X257917Y87780
X247917Y87780
X237917Y87780
X217917Y87780
X207917Y87780
X197917Y87780
X187917Y87780
X177917Y87780
X167917Y87780
X157917Y87780
X147917Y87780
X137917Y87780
X127917Y87780
X117917Y87780
X107917Y87780
T08
X57917Y107780
X57917Y117780
X57917Y127780
X57917Y137780
T09
X77217Y204080
X77217Y251480
T10
X330240Y349925
X297917Y217780
X330240Y15280
X92917Y87780
X15280Y15280
X97917Y277780
X15280Y349925
M30
